<?xml version="1.0" encoding="UTF-8"?>
<!DOCTYPE svg PUBLIC "-//W3C//DTD SVG 1.1//EN" "http://www.w3.org/Graphics/SVG/1.1/DTD/svg11.dtd">
<!-- Creator: CorelDRAW 2021 (64-Bit) -->
<svg xmlns="http://www.w3.org/2000/svg" xml:space="preserve" width="67.7332mm" height="67.7332mm" version="1.1" style="shape-rendering:geometricPrecision; text-rendering:geometricPrecision; image-rendering:optimizeQuality; fill-rule:evenodd; clip-rule:evenodd"
viewBox="0 0 6773.32 6773.32"
 xmlns:xlink="http://www.w3.org/1999/xlink"
 xmlns:xodm="http://www.corel.com/coreldraw/odm/2003">
 <defs>
  <style type="text/css">
   <![CDATA[
    .fil3 {fill:#2B2A29}
    .fil1 {fill:#A3C626}
    .fil2 {fill:#E95623}
    .fil0 {fill:#2B2A29;fill-rule:nonzero}
    .fil4 {fill:#A3C626;fill-rule:nonzero}
   ]]>
  </style>
 </defs>
 <g id="Layer_x0020_1">
  <metadata id="CorelCorpID_0Corel-Layer"/>
  <g id="_2842192705920">
   <path class="fil0" d="M2812.41 4663.51c0,5.77 -0.83,12.5 -2.53,20.19l-15.21 72.2 -49.4 0 14.02 -65.8c1.22,-4.95 1.86,-8.9 1.86,-11.95 0,-5.19 -2.62,-7.76 -7.88,-7.76 -2.57,0 -5.51,1.3 -8.87,3.87 -3.37,2.62 -6.33,6.03 -8.87,10.23 -2.57,4.23 -4.31,8.51 -5.22,12.94l-11.96 58.47 -49.64 0 14.05 -65.8c1.31,-5.26 1.94,-9.22 1.94,-11.95 0,-5.19 -2.61,-7.76 -7.88,-7.76 -4.15,0 -8.71,2.77 -13.57,8.31 -4.87,5.51 -8.04,11.76 -9.5,18.73l-12.28 58.47 -49.64 0 16.83 -78.86c2.69,-12.83 5.02,-26.13 6.93,-39.9l48.61 0c-0.56,9.3 -1.31,16.11 -2.34,20.46l0.48 0c6.33,-7.2 13.61,-12.86 21.85,-17.06 8.23,-4.16 15.99,-6.25 23.27,-6.25 17.7,0 27.12,8.75 28.27,26.2 6.06,-7.96 13.42,-14.33 22.13,-19.08 8.67,-4.75 17.41,-7.12 26.13,-7.12 18.96,0 28.42,9.73 28.42,29.22zm152.27 0.43c0,7.8 -2.69,14.25 -8.12,19.4 -5.42,5.14 -13.14,8.74 -23.19,10.84 8.19,0.43 14.72,2.77 19.55,6.93 4.83,4.2 7.24,9.62 7.24,16.23 0,7.44 -3.04,14.53 -9.14,21.3 -6.13,6.77 -14.29,11.79 -24.54,15.12 -10.26,3.33 -22.05,4.98 -35.43,4.98 -18.73,0 -32.39,-3.79 -41.01,-11.39 -8.64,-7.65 -12.91,-19.52 -12.91,-35.64 0,-16.38 3.17,-30.51 9.5,-42.43 6.34,-11.92 15.52,-20.7 27.6,-26.4 12.07,-5.74 26.51,-8.59 43.38,-8.59 10.22,0 18.73,1.23 25.61,3.64 6.89,2.46 12.2,5.9 15.92,10.37 3.68,4.47 5.54,9.7 5.54,15.64zm-45.8 6.69c0,-2.14 -0.76,-4.04 -2.26,-5.67 -1.51,-1.61 -3.68,-2.41 -6.57,-2.41 -10.05,0 -17.49,7.36 -22.37,22.09 11.04,-0.31 19,-1.58 23.87,-3.8 4.92,-2.25 7.33,-5.66 7.33,-10.21zm-4.52 45.16c0,-2.73 -1.14,-4.98 -3.36,-6.8 -2.26,-1.82 -5.34,-2.73 -9.3,-2.73 -3.69,0 -7.17,0.19 -10.37,0.63 -3.21,0.44 -6.02,0.75 -8.4,0.99 -0.63,2.02 -0.95,4.35 -0.95,6.97 0,4.58 1.23,8.03 3.68,10.29 2.42,2.3 5.82,3.45 10.14,3.45 5.27,0 9.66,-1.23 13.22,-3.73 3.57,-2.49 5.34,-5.5 5.34,-9.07zm203.77 -29.25c0,13.85 -3.09,26.49 -9.3,37.97 -6.25,11.47 -14.92,20.03 -26.05,25.72 -11.12,5.67 -24.19,8.51 -39.19,8.51 -18.33,0 -32.5,-4.59 -42.52,-13.77 -10.02,-9.22 -15,-22.12 -15,-38.71 0,-9.74 1.74,-19.28 5.3,-28.63 3.56,-9.34 8.52,-17.21 14.85,-23.59 6.34,-6.37 14.13,-11.24 23.4,-14.65 9.22,-3.4 19.79,-5.1 31.71,-5.1 18.08,0 32.06,4.55 41.96,13.62 9.89,9.06 14.84,21.97 14.84,38.63zm-49.16 0c0,-5.27 -1.11,-9.27 -3.37,-12.03 -2.22,-2.74 -5.26,-4.12 -9.03,-4.12 -4.27,0 -7.95,1.66 -11.16,4.94 -3.17,3.29 -5.66,7.8 -7.44,13.59 -1.82,5.78 -2.73,11.72 -2.73,17.81 0,5.26 1.14,9.22 3.41,11.91 2.29,2.66 5.34,4.01 9.22,4.01 6.33,0 11.44,-3.41 15.32,-10.22 3.84,-6.81 5.78,-15.44 5.78,-25.89zm191.96 69.36l-49.4 0 8.59 -40.62 -3.36 0c-3.72,0 -7.12,1.19 -10.18,3.6 -3.04,2.38 -6.22,6.57 -9.53,12.51l-13.82 24.51 -54.4 0 19.48 -30.17c8.04,-12.47 19.09,-19.91 33.06,-22.41 -7.33,-1.3 -13.34,-4.58 -17.97,-9.77 -4.64,-5.23 -6.98,-11.21 -6.98,-17.94 0,-25.65 19.64,-38.47 58.91,-38.47l70.79 0 -25.19 118.76zm-38.04 -90.74c-12.15,0 -18.2,4.4 -18.2,13.23 0,3.48 1.26,6.21 3.83,8.23 2.54,2.02 6.34,3.01 11.37,3.01l5.66 0 5.22 -24.47 -7.88 0zm425.74 -1.65c0,5.77 -0.83,12.5 -2.53,20.19l-15.21 72.2 -49.4 0 14.02 -65.8c1.22,-4.95 1.86,-8.9 1.86,-11.95 0,-5.19 -2.62,-7.76 -7.88,-7.76 -2.58,0 -5.51,1.3 -8.87,3.87 -3.37,2.62 -6.34,6.03 -8.87,10.23 -2.58,4.23 -4.31,8.51 -5.23,12.94l-11.95 58.47 -49.64 0 14.05 -65.8c1.3,-5.26 1.94,-9.22 1.94,-11.95 0,-5.19 -2.61,-7.76 -7.88,-7.76 -4.15,0 -8.71,2.77 -13.58,8.31 -4.87,5.51 -8.04,11.76 -9.5,18.73l-12.27 58.47 -49.64 0 16.83 -78.86c2.68,-12.83 5.02,-26.13 6.92,-39.9l48.61 0c-0.55,9.3 -1.3,16.11 -2.33,20.46l0.47 0c6.33,-7.2 13.62,-12.86 21.86,-17.06 8.23,-4.16 15.98,-6.25 23.27,-6.25 17.69,0 27.12,8.75 28.27,26.2 6.05,-7.96 13.41,-14.33 22.13,-19.08 8.67,-4.75 17.41,-7.12 26.13,-7.12 18.96,0 28.42,9.73 28.42,29.22zm146.85 6.24c0,13.59 -6.26,23.72 -18.77,30.37 -12.47,6.65 -31.71,10.33 -57.67,11.12l0 0.91c0,4.51 1.89,8 5.65,10.54 3.8,2.49 8.87,3.75 15.2,3.75 5.66,0 12.44,-0.99 20.35,-2.93 7.96,-1.93 14.45,-4.23 19.56,-6.85l-6.85 32.35c-6.02,2.85 -13.34,5.19 -21.97,7 -8.63,1.83 -17.22,2.73 -25.82,2.73 -16.62,0 -29.68,-4.38 -39.19,-13.21 -9.5,-8.79 -14.24,-20.87 -14.24,-36.15 0,-13.89 3.24,-26.72 9.77,-38.48 6.54,-11.75 15.56,-20.78 27.04,-27.11 11.48,-6.34 24.7,-9.5 39.71,-9.5 15,0 26.64,3.04 34.87,9.14 8.24,6.1 12.36,14.88 12.36,26.32zm-45.61 -0.28c0,-1.66 -0.51,-3.2 -1.54,-4.59 -1.07,-1.37 -2.89,-2.09 -5.51,-2.09 -5.18,0 -9.66,1.98 -13.42,5.89 -3.76,3.93 -6.29,9.51 -7.6,16.67 8.76,0 15.6,-1.3 20.59,-3.92 4.98,-2.65 7.48,-6.61 7.48,-11.96zm202.3 7.8c0,16 -3.36,30.29 -10.09,42.84 -6.73,12.55 -16.15,22.13 -28.26,28.74 -12.09,6.61 -26.13,9.89 -42.17,9.89 -1.07,0 -3.68,-0.11 -7.87,-0.35 -4.16,-0.23 -6.46,-0.44 -6.85,-0.67l-11.6 52.81 -49.64 0 27.99 -131.63c1.73,-7.92 3.36,-15.99 4.74,-24.26 1.39,-8.28 2.18,-14.1 2.42,-17.5l47.42 0c-0.35,6.49 -1.23,13.53 -2.53,21.14l0.48 0c10.88,-16 24.58,-23.99 41.05,-23.99 10.49,0 18.96,3.95 25.34,11.91 6.37,7.96 9.57,18.33 9.57,31.07zm-49.21 7.65c0,-9.7 -3.67,-14.53 -11.12,-14.53 -5.02,0 -9.7,3.13 -14.02,9.34 -4.35,6.26 -7.87,15.32 -10.68,27.24l-4.51 19.71c2.77,0.48 5.26,0.71 7.4,0.71 9.22,0 17.02,-4.15 23.39,-12.43 6.38,-8.27 9.54,-18.29 9.54,-30.04zm212.29 -7.65c0,16 -3.36,30.29 -10.09,42.84 -6.73,12.55 -16.16,22.13 -28.27,28.74 -12.08,6.61 -26.13,9.89 -42.16,9.89 -1.07,0 -3.68,-0.11 -7.88,-0.35 -4.16,-0.23 -6.45,-0.44 -6.85,-0.67l-11.6 52.81 -49.64 0 27.99 -131.63c1.74,-7.92 3.36,-15.99 4.75,-24.26 1.38,-8.28 2.18,-14.1 2.41,-17.5l47.43 0c-0.36,6.49 -1.23,13.53 -2.54,21.14l0.48 0c10.89,-16 24.58,-23.99 41.05,-23.99 10.49,0 18.96,3.95 25.34,11.91 6.37,7.96 9.58,18.33 9.58,31.07zm-49.21 7.65c0,-9.7 -3.68,-14.53 -11.12,-14.53 -5.03,0 -9.7,3.13 -14.02,9.34 -4.35,6.26 -7.87,15.32 -10.69,27.24l-4.51 19.71c2.78,0.48 5.27,0.71 7.4,0.71 9.23,0 17.03,-4.15 23.4,-12.43 6.37,-8.27 9.54,-18.29 9.54,-30.04zm195.7 70.98l-50.12 0c0.55,-8.99 1.15,-15.49 1.86,-19.52l-0.47 0c-6.98,7.48 -14.3,13.11 -22.02,16.78 -7.75,3.72 -15.43,5.58 -23.07,5.58 -19.36,0 -29.02,-9.73 -29.02,-29.21 0,-5.78 0.87,-12.51 2.57,-20.19l15.28 -72.2 49.4 0 -13.77 64.37c-1.31,5.22 -1.98,9.61 -1.98,13.1 0,1.54 0.56,2.89 1.66,4.11 1.15,1.19 2.9,1.78 5.3,1.78 5.63,0 10.73,-2.88 15.29,-8.63 4.59,-5.77 7.72,-12.86 9.42,-21.29l11.12 -53.44 49.41 0 -15.88 74.57c-1.46,6.97 -2.69,14.66 -3.59,23.09 -0.96,8.43 -1.39,15.43 -1.39,21.1zm253.77 -92.39c0,5.77 -0.84,12.5 -2.54,20.19l-15.2 72.2 -49.4 0 14.01 -65.8c1.23,-4.95 1.86,-8.9 1.86,-11.95 0,-5.19 -2.61,-7.76 -7.88,-7.76 -2.57,0 -5.5,1.3 -8.87,3.87 -3.36,2.62 -6.33,6.03 -8.86,10.23 -2.57,4.23 -4.32,8.51 -5.22,12.94l-11.96 58.47 -49.65 0 14.06 -65.8c1.31,-5.26 1.94,-9.22 1.94,-11.95 0,-5.19 -2.62,-7.76 -7.88,-7.76 -4.16,0 -8.71,2.77 -13.58,8.31 -4.87,5.51 -8.03,11.76 -9.5,18.73l-12.27 58.47 -49.64 0 16.82 -78.86c2.69,-12.83 5.03,-26.13 6.93,-39.9l48.61 0c-0.56,9.3 -1.31,16.11 -2.33,20.46l0.47 0c6.34,-7.2 13.62,-12.86 21.85,-17.06 8.24,-4.16 16,-6.25 23.28,-6.25 17.7,0 27.11,8.75 28.27,26.2 6.05,-7.96 13.42,-14.33 22.12,-19.08 8.68,-4.75 17.42,-7.12 26.13,-7.12 18.96,0 28.43,9.73 28.43,29.22zm155.27 23.03c0,13.85 -3.08,26.49 -9.3,37.97 -6.25,11.47 -14.92,20.03 -26.05,25.72 -11.12,5.67 -24.19,8.51 -39.18,8.51 -18.33,0 -32.51,-4.59 -42.52,-13.77 -10.02,-9.22 -15.01,-22.12 -15.01,-38.71 0,-9.74 1.74,-19.28 5.3,-28.63 3.56,-9.34 8.51,-17.21 14.85,-23.59 6.34,-6.37 14.13,-11.24 23.4,-14.65 9.22,-3.4 19.79,-5.1 31.71,-5.1 18.08,0 32.06,4.55 41.96,13.62 9.9,9.06 14.84,21.97 14.84,38.63zm-49.17 0c0,-5.27 -1.1,-9.27 -3.36,-12.03 -2.22,-2.74 -5.26,-4.12 -9.03,-4.12 -4.27,0 -7.95,1.66 -11.16,4.94 -3.16,3.29 -5.66,7.8 -7.44,13.59 -1.82,5.78 -2.73,11.72 -2.73,17.81 0,5.26 1.14,9.22 3.41,11.91 2.29,2.66 5.33,4.01 9.21,4.01 6.34,0 11.45,-3.41 15.33,-10.22 3.84,-6.81 5.77,-15.44 5.77,-25.89zm212.17 -9.27c0,16 -3.37,30.29 -10.1,42.84 -6.73,12.55 -16.15,22.13 -28.27,28.74 -12.07,6.61 -26.12,9.89 -42.15,9.89 -1.07,0 -3.68,-0.11 -7.88,-0.35 -4.16,-0.23 -6.46,-0.44 -6.85,-0.67l-11.6 52.81 -49.64 0 27.99 -131.63c1.74,-7.92 3.36,-15.99 4.75,-24.26 1.38,-8.28 2.18,-14.1 2.41,-17.5l47.43 0c-0.36,6.49 -1.23,13.53 -2.54,21.14l0.48 0c10.89,-16 24.58,-23.99 41.05,-23.99 10.5,0 18.96,3.95 25.34,11.91 6.37,7.96 9.58,18.33 9.58,31.07zm-49.21 7.65c0,-9.7 -3.68,-14.53 -11.12,-14.53 -5.03,0 -9.7,3.13 -14.02,9.34 -4.35,6.26 -7.87,15.32 -10.69,27.24l-4.51 19.71c2.77,0.48 5.27,0.71 7.4,0.71 9.23,0 17.03,-4.15 23.4,-12.43 6.37,-8.27 9.54,-18.29 9.54,-30.04zm195.7 70.98l-50.12 0c0.55,-8.99 1.15,-15.49 1.86,-19.52l-0.47 0c-6.98,7.48 -14.3,13.11 -22.02,16.78 -7.76,3.72 -15.43,5.58 -23.08,5.58 -19.35,0 -29.01,-9.73 -29.01,-29.21 0,-5.78 0.87,-12.51 2.57,-20.19l15.28 -72.2 49.4 0 -13.77 64.37c-1.31,5.22 -1.99,9.61 -1.99,13.1 0,1.54 0.57,2.89 1.67,4.11 1.15,1.19 2.9,1.78 5.3,1.78 5.63,0 10.73,-2.88 15.29,-8.63 4.59,-5.77 7.72,-12.86 9.42,-21.29l11.12 -53.44 49.41 0 -15.88 74.57c-1.46,6.97 -2.69,14.66 -3.6,23.09 -0.95,8.43 -1.38,15.43 -1.38,21.1zm158.32 0l-49.41 0 8.6 -40.62 -3.37 0c-3.72,0 -7.12,1.19 -10.17,3.6 -3.05,2.38 -6.22,6.57 -9.54,12.51l-13.82 24.51 -54.39 0 19.47 -30.17c8.04,-12.47 19.09,-19.91 33.06,-22.41 -7.32,-1.3 -13.34,-4.58 -17.97,-9.77 -4.64,-5.23 -6.97,-11.21 -6.97,-17.94 0,-25.65 19.64,-38.47 58.91,-38.47l70.78 0 -25.18 118.76zm-38.05 -90.74c-12.15,0 -18.2,4.4 -18.2,13.23 0,3.48 1.26,6.21 3.83,8.23 2.54,2.02 6.34,3.01 11.37,3.01l5.66 0 5.22 -24.47 -7.88 0zm339.56 -1.22c0,7.8 -2.69,14.25 -8.12,19.4 -5.42,5.14 -13.14,8.74 -23.19,10.84 8.19,0.43 14.72,2.77 19.55,6.93 4.83,4.2 7.24,9.62 7.24,16.23 0,7.44 -3.04,14.53 -9.14,21.3 -6.13,6.77 -14.29,11.79 -24.54,15.12 -10.26,3.33 -22.05,4.98 -35.43,4.98 -18.73,0 -32.39,-3.79 -41.02,-11.39 -8.63,-7.65 -12.9,-19.52 -12.9,-35.64 0,-16.38 3.17,-30.51 9.5,-42.43 6.34,-11.92 15.51,-20.7 27.6,-26.4 12.07,-5.74 26.51,-8.59 43.38,-8.59 10.21,0 18.73,1.23 25.61,3.64 6.89,2.46 12.2,5.9 15.92,10.37 3.68,4.47 5.54,9.7 5.54,15.64zm-45.8 6.69c0,-2.14 -0.76,-4.04 -2.26,-5.67 -1.51,-1.61 -3.68,-2.41 -6.57,-2.41 -10.05,0 -17.5,7.36 -22.37,22.09 11.04,-0.31 19,-1.58 23.87,-3.8 4.91,-2.25 7.33,-5.66 7.33,-10.21zm-4.52 45.16c0,-2.73 -1.14,-4.98 -3.36,-6.8 -2.26,-1.82 -5.34,-2.73 -9.3,-2.73 -3.69,0 -7.17,0.19 -10.37,0.63 -3.21,0.44 -6.02,0.75 -8.4,0.99 -0.63,2.02 -0.95,4.35 -0.95,6.97 0,4.58 1.23,8.03 3.68,10.29 2.42,2.3 5.82,3.45 10.14,3.45 5.27,0 9.65,-1.23 13.22,-3.73 3.57,-2.49 5.34,-5.5 5.34,-9.07zm175.62 -19.04l22.61 59.15 -53.96 0 -17.38 -58.67 -0.47 0 -12.51 58.67 -49.4 0 25.37 -118.76 49.4 0 -11.91 55.77 0.55 0 39.35 -55.77 57.05 0 -48.7 59.61zm55.09 114.96c-10.37,0 -19.47,-1.58 -27.36,-4.74l8.12 -36.35c4,3.33 9.3,5 15.88,5 9.25,0 16.14,-3.72 20.62,-11.13l5.94 -9.74 -24.23 -117.61 51.81 0 4.76 57.28c0.47,5.34 0.71,11.05 0.71,17.06l-0.24 4.51 0.48 0c1.15,-3.4 2.58,-7.2 4.23,-11.4 1.66,-4.23 11.17,-26.72 28.58,-67.45l50.8 0 -68.88 122.12c-8.2,14.5 -15.6,25.14 -22.17,31.99 -6.58,6.85 -13.82,11.95 -21.74,15.36 -7.91,3.4 -17.02,5.1 -27.31,5.1zm248.19 -136.33c-5.11,-3.33 -11.92,-4.99 -20.43,-4.99 -8.95,0 -16.55,3.21 -22.76,9.62 -6.27,6.45 -9.35,14.37 -9.35,23.83 0,12.55 6.58,18.81 19.71,18.81 3.72,0 7.84,-0.56 12.4,-1.66 4.55,-1.15 8.67,-2.7 12.31,-4.72l-6.85 33.69c-5.58,2.93 -11.64,5.11 -18.25,6.57 -6.61,1.47 -12.99,2.21 -19.08,2.21 -15.4,0 -27.47,-4.35 -36.26,-13.02 -8.79,-8.71 -13.15,-20.66 -13.15,-35.87 0,-13.85 3.33,-26.59 10.01,-38.24 6.7,-11.67 16,-20.82 27.92,-27.43 11.88,-6.61 25.3,-9.89 40.22,-9.89 12.71,0 23.2,2.09 31.55,6.25l-7.99 34.84zm148.1 80.52l-48.93 0c0,-2.49 0.6,-9.55 1.75,-21.14l-0.48 0c-11.76,15.99 -24.98,23.98 -39.67,23.98 -11.68,0 -20.7,-4.03 -27.07,-12.14 -6.38,-8.12 -9.55,-19.52 -9.55,-34.21 0,-10.49 2.02,-20.87 6.06,-31.04 4.08,-10.21 9.71,-18.72 16.83,-25.53 7.16,-6.77 15.95,-12.07 26.32,-15.87 10.41,-3.76 22.41,-5.66 36.02,-5.66 18.65,0 38.21,2.41 58.68,7.2l-15.4 72.68c-1.27,5.47 -2.3,12.43 -3.21,20.87 -0.87,8.43 -1.35,15.35 -1.35,20.86zm-34.44 -89.55c-1.86,-0.47 -4.19,-0.71 -7.05,-0.71 -6.21,0 -11.75,1.78 -16.7,5.34 -4.95,3.56 -8.95,8.91 -12.04,16.03 -3.04,7.09 -4.55,14.22 -4.55,21.34 0,4.68 0.99,8.2 3.01,10.65 2.02,2.42 4.47,3.65 7.41,3.65 5.58,0 10.56,-3.17 14.96,-9.46 4.43,-6.3 7.91,-15.37 10.45,-27.12l4.51 -19.72z"/>
   <g>
    <path class="fil1" d="M1370.05 3309.33c49.63,54.7 92.59,115.52 127.79,181.19l-1166.76 0 0 1255.19c-89.17,-39.66 -170.78,-93.29 -241.99,-158.18l0 -1262.8c-32.77,-45.71 -54.9,-95.06 -72.66,-150.35 -19.75,-61.46 -35.73,-220.52 -10.85,-252.39 82.54,57.24 173,102.77 257.78,155.57 0.55,-9.17 -15.37,-44.09 -20.86,-59.42 -56.09,-156.88 -24.48,-348.42 60.37,-487.02 24.91,21.09 84.41,120.22 110.4,153.97 21.75,28.25 43.35,76.83 62.63,88.46 2.87,-3.89 6.23,-114 11.23,-138.36 25.64,-124.89 88.43,-213.35 166.33,-302.74 32.62,-37.44 44.62,-56.52 61.9,-4.08l22.89 92.64c4.84,22.99 13.06,126.04 16.39,132.42 7.05,-3.39 17.8,-19.89 18.81,-20.72 42.25,-69.73 138.68,-153.19 190.93,-201.06 21.6,-19.79 64.36,-57.32 102.4,-99.33 54.71,-60.45 87.16,-123.05 95.8,-204.01 3.13,-29.21 2.64,-48.44 4.63,-77.6 191.55,173.19 238.49,363.6 187.26,540.07 10.08,-0.87 10.61,-2.74 18.84,-6.92 10.66,-5.4 10.99,-4.91 20.55,-9.35 40.7,-18.88 70.8,-25.95 121.42,-50.86 24.61,-12.11 56.58,-24 78.59,-41.78l35.65 -27.07c11.22,-9.35 19.13,-21.07 35.96,-21.98 30.57,39.24 14.59,152.7 -0.41,205.98 -25.28,89.84 -104.08,148.58 -112.93,165.29 26.56,-1.76 61.59,-8.12 93.99,-9.99 45.61,-2.63 240.03,-7.85 269.27,-44.34 1.27,2.08 9.78,4.51 5.32,28.27 -1.74,9.31 -6.09,24.05 -8.94,33.45 -55.65,146.95 -137.07,188.55 -260.4,228.61 62.83,5.24 106.77,30.66 159.42,49.16 60.4,21.23 115.25,42.3 213.91,43.32 -130.05,174.92 -368.56,139.8 -491.92,116.23 7.58,32.06 192.97,136.97 200.13,153.64 -9.49,13.74 -52.73,29.34 -75.17,35.05 -101.39,25.84 -190.66,3.83 -287.7,-28.16zm-1028.89 -8.54l147.3 0c225.79,-541.77 600.05,-620.72 761.63,-713.73 -437.11,52.29 -757.7,388.52 -906.51,708.47l-2.42 5.26zm523.97 0l96.86 0c81.75,-257.06 224.06,-360.15 327.23,-438.94 -156.52,41.02 -337.62,261.92 -424.09,438.94zm124.99 0l76.32 0c120.35,-159.73 228.42,-220.67 399.17,-295.5 -141.73,0.87 -374.02,180.86 -475.49,295.5z"/>
    <polygon class="fil1" points="1279.5,4429.26 824.3,4429.26 1279.5,3978.15 "/>
    <polygon class="fil2" points="815.17,4415.12 815.17,3964.01 1270.36,3964.01 "/>
    <path class="fil3" d="M500.62 3644.41l1058.17 0c27.3,86.29 42.06,178.15 42.06,273.47 0,177.35 -51.02,342.77 -139.12,482.46l0 -531.45 -736.63 0 0 736.62 559.51 0c-158.44,135.98 -364.4,218.16 -589.56,218.16 -66.75,0 -131.78,-7.29 -194.43,-20.99l0 -1158.27z"/>
   </g>
   <g>
    <path class="fil3" d="M5867.66 3445.48c12.2,-23.3 36,-35.95 62.42,-39.2 16.47,-2.02 33.38,-1.36 49.83,0.56 18.17,2.11 36.15,5.95 53.75,10.88 17.36,4.84 34.49,10.7 50.98,17.94 17.04,7.5 33.27,17.04 47.22,29.44 21.91,19.48 34.63,46.24 30.09,75.89 -0.43,2.85 -0.98,5.26 -1.8,8.03 -4.62,15.58 -13.15,29.36 -24.54,40.89 -3.33,3.37 -6.39,7.23 -9.21,11.04 -3.97,5.36 -7.47,11.23 -10.66,17.08 -1.96,3.59 -3.26,9.91 -4,14.4 -1.41,14.43 -3.22,28.83 -5.41,43.17 -2.26,14.69 -4.51,29.37 -6.75,44.06 -2.26,14.69 -4.5,29.38 -6.76,44.06 -2.14,14.01 -3.92,28.06 -5.33,42.17 -0.12,1.09 -0.23,2.02 -0.4,3.11l-1.3 8.44c-3.77,24.6 -7.35,49.22 -10.72,73.87 -3.29,24.08 -6.76,48.15 -10.44,72.19 -3.65,23.72 -7.5,47.41 -11.69,71.04 8.82,-7.25 17.58,-14.5 26.27,-21.67 45.98,-37.86 90.47,-77.83 134.1,-118.35 53.87,-50.01 105.99,-101.96 156.82,-155.05 47.5,-49.6 92.39,-101.65 134.28,-156.08 -0.59,-5.21 -1.45,-10.3 -2.68,-14.74 -2.32,-8.23 -4.77,-16.7 -7.76,-24.72 -3,-8.02 -5.85,-16.22 -8.02,-24.5 -5.44,-20.67 -1.68,-41.71 8.18,-60.39 0.29,-0.52 0.53,-0.97 0.82,-1.49 19,-33.59 52.34,-51.12 90.62,-51.12 20.07,0 39.57,4.35 57.82,12.73 13.1,6.01 25.46,13.55 36.27,23.03 34.17,20.67 61.09,49.63 74.41,88.04 11.24,32.4 15.03,66.16 9.83,100.1 -3.71,24.23 -10.9,47.71 -22.5,69.31l-2.53 6.73c-2.9,7.71 -7.32,18.85 -8.83,26.75l-3.86 25.18c-3.68,24.02 -7.64,48.01 -11.63,71.99 -5.05,30.28 -9.88,60.6 -14.53,90.95 -0.11,0.67 -0.2,1.22 -0.32,1.89 -5.06,27.24 -9.55,54.61 -13.74,82.01 -4.76,31.05 -10.29,61.98 -16.64,92.74 -1.18,7.52 -2.55,15.02 -4.15,22.47 -1.12,5.23 -2.11,10.49 -2.91,15.76 -2.2,14.39 -4.32,29.57 -4.78,44.13 -0.36,11.2 -0.61,22.43 -0.61,33.64 0,10.01 0.19,20.03 0.52,30.04 0.53,16.14 -0.61,32.57 -2.27,48.61 -0.11,1.02 -0.21,1.9 -0.37,2.93 -3.17,20.65 -9.89,40.43 -19.49,58.98 -8.89,17.22 -19.71,33.33 -32.54,47.86 -12.99,14.68 -27.96,27.44 -45.03,37.17 -18.11,10.34 -37.99,16.97 -59.01,16.97 -22.78,0 -43.68,-8.49 -61.5,-22.37 -15.85,-12.35 -28.19,-28.15 -37.36,-45.98 -9.85,-19.21 -14.93,-40.3 -16.72,-61.73 -2.01,-24.09 1.24,-48.12 7.94,-71.27 0.16,-0.57 0.31,-1.05 0.49,-1.63 9.18,-28.64 16.57,-58.77 23.85,-87.95 11.16,-44.75 20.4,-90.1 28.97,-135.41 3.69,-19.56 7.43,-39.09 10.78,-58.71 2.19,-12.84 4.31,-25.69 6.38,-38.55 -41.68,41.79 -84.03,82.9 -127.3,123.05 -37.31,34.61 -75.06,68.79 -113.52,102.14 -29.69,25.75 -59.4,51.5 -89.1,77.25 -1.51,1.32 -2.85,2.38 -4.48,3.54 -10.1,7.2 -19.89,15.5 -29.24,23.63 -13.92,12.07 -27.58,24.47 -41.02,37.06 -14.92,13.99 -29.67,28.15 -44.26,42.48 -12.9,12.67 -25.57,25.64 -37.2,38.49 -30.72,35.77 -75.5,82 -127.06,82 -59.65,0 -88.91,-52.46 -102.1,-103.2 -2.53,-8.37 -5,-16.79 -7.33,-25.25 -9.96,10.41 -20.68,20.11 -32.1,29.09 -15.54,13.23 -33.31,23.89 -51.6,32.85 -19.06,9.33 -38.66,17.57 -58.59,24.83 -21.48,7.84 -43.5,14.09 -65.9,18.71 -21.1,4.34 -42.82,7.27 -64.39,7.27 -41.59,0 -83.99,-12.07 -104.72,-51.59 -5.22,-9.95 -11.01,-19.58 -17.51,-28.75 -6.86,-9.68 -13.95,-19.24 -21.38,-28.5 -5.24,-6.54 -10.41,-13.19 -15.31,-20 -1.78,4.39 -3.75,8.57 -5.97,12.38 -9.99,18.47 -23.01,36.11 -38.81,51.33 -13.54,13.03 -28.37,24.73 -44.56,34.34 -14.94,8.88 -30.82,16.21 -47.52,21.11 -15.14,4.44 -30.84,7.27 -46.67,7.27 -20.59,0 -37.36,-9.2 -52.03,-21.62 -1.86,1.48 -3.8,2.87 -5.84,4.19 -11.38,7.32 -24.23,11.67 -37.67,12.47 -16.14,1.72 -32.35,2.89 -48.56,3.68 -18.12,0.88 -36.26,1.28 -54.41,1.28 -22.2,0 -44.38,-0.65 -66.54,-1.91 -21.49,-1.23 -43,-3.3 -64.27,-6.69 -18.26,-2.91 -36.63,-6.74 -54.26,-12.34 -20.41,-6.48 -39.81,-16.36 -53.88,-32.95 -0.7,-0.83 -1.28,-1.55 -1.94,-2.42 -7.42,-9.73 -15,-19.33 -22.69,-28.85 -12.99,-16.07 -23.72,-34.51 -33.03,-52.91 -11.8,-23.34 -21.84,-47.89 -31.06,-72.34 -7.7,-20.41 -14.39,-41.44 -20.43,-62.62 -1.37,0.05 -2.73,0.11 -4.1,0.16 -19.55,0.84 -39.1,1.83 -58.64,2.96 -19.55,1.15 -39.08,2.68 -58.57,4.63 -9.87,1 -19.72,2.17 -29.55,3.6 -35.46,43.26 -74.72,83.42 -116.36,120.75 -57.48,51.53 -124.35,94.08 -192.37,130.24 -14.91,7.94 -30.88,14.22 -47.67,16.68 -19.06,2.81 -38.1,1.52 -55.37,-7.83 -19.14,-10.36 -30.95,-27.95 -34.23,-47.5 -5.74,1.99 -11.49,3.93 -17.23,5.84 -38.38,12.72 -77.49,23.22 -116.98,31.85 -40.73,8.89 -82.31,14.06 -124.04,14.06 -26.15,0 -52.35,-2.39 -77.89,-8.08 -27.32,-6.1 -52.84,-17.27 -74.73,-33.55 -17.58,-12.38 -33.06,-27.68 -46.73,-44.64 3.8,26.33 -8.11,51.85 -30.76,66.43 -11.39,7.32 -24.24,11.67 -37.68,12.47 -16.14,1.72 -32.34,2.89 -48.56,3.68 -18.11,0.88 -36.26,1.28 -54.4,1.28 -22.2,0 -44.39,-0.65 -66.54,-1.91 -21.49,-1.23 -43,-3.3 -64.27,-6.69 -18.26,-2.91 -36.63,-6.74 -54.26,-12.34 -20.42,-6.48 -39.81,-16.36 -53.89,-32.95 -0.7,-0.83 -1.27,-1.55 -1.93,-2.42 -7.43,-9.73 -15.01,-19.33 -22.69,-28.85 -13,-16.07 -23.72,-34.51 -33.03,-52.91 -11.81,-23.34 -21.85,-47.89 -31.06,-72.34 -7.7,-20.41 -14.39,-41.44 -20.44,-62.62 -1.36,0.05 -2.73,0.11 -4.09,0.16 -19.56,0.84 -39.1,1.83 -58.65,2.96 -19.55,1.15 -39.08,2.68 -58.57,4.63 -9.87,1 -19.71,2.17 -29.54,3.6 -35.47,43.26 -74.72,83.42 -116.36,120.75 -57.48,51.53 -124.35,94.08 -192.37,130.24 -14.92,7.94 -30.88,14.22 -47.67,16.68 -19.06,2.81 -38.11,1.52 -55.38,-7.83 -31.29,-16.96 -43.01,-53.21 -29.83,-85.83 7.64,-18.9 22.45,-32.94 38.71,-44.55 43.2,-30.89 85.45,-65.3 121.91,-104.12 -10.15,-2.17 -20.13,-5.06 -29.92,-8.49 -12.76,-4.49 -25.12,-10.2 -36.55,-17.47 -11.83,-7.52 -22.7,-16.54 -31.2,-27.78 -12.34,-16.31 -17.05,-35.97 -13.98,-54.57 -58.03,66.03 -122.33,126.18 -191.94,179.97 -80.17,61.96 -168.01,112.77 -260.7,153.54 -0.61,0.27 -1.14,0.5 -1.77,0.75 -15.35,6.17 -31.45,10.94 -47.91,12.95 -19.25,2.37 -38.61,1.1 -56.23,-7.66 -31.18,-15.51 -45.86,-49.78 -35.68,-83.06 7.16,-23.42 24.88,-39.65 45.32,-51.74 40.25,-23.8 79.48,-49.37 117.2,-77.02 35.55,-26.04 70.03,-53.64 102.81,-83.11 28.34,-25.48 55.5,-52.58 80.16,-81.67 10.14,-11.96 20.08,-24.44 29.35,-37.39 -19.33,-22.06 -38.69,-44.1 -58.06,-66.12 -33.08,-37.63 -64.58,-76.65 -94.14,-117.11 -28.03,-38.37 -53.36,-79.05 -73.71,-122.04 -19.65,-41.52 -31.49,-87.21 -24.43,-133.29 2.97,-19.37 8.3,-38.26 15.87,-56.36 7.39,-17.67 16.77,-34.47 28.45,-49.68 10.61,-13.82 22.77,-26.51 36.76,-36.94 18.2,-13.59 39.41,-21.62 62.27,-21.62 35.39,0 63.93,19.71 81.65,48.71 9.06,13.99 13.25,32.91 16.45,49.85 3.42,18.11 8.33,36.35 13.29,54.09 7.55,26.96 16.44,53.68 25.76,80.08 11.64,32.92 25.94,65.06 41.6,96.24 5.24,10.45 12.19,21 18.61,30.75 9.61,14.64 19.74,28.95 30.2,43 5.31,7.15 10.66,14.28 16.01,21.39 12.98,-18.4 25.18,-37.35 36.53,-56.81 21.69,-37.18 42.08,-75.44 59.53,-114.8 12.94,-29.14 25.41,-59.5 34.59,-90.06 3.26,-10.83 8.49,-26.68 10.33,-38.32 -0.14,-2.86 -0.39,-5.74 -0.65,-8.58 -0.56,-5.77 -1.27,-11.52 -2.08,-17.26 -1.23,-8.72 -2.03,-17.49 -2.33,-26.28 -0.44,-12.61 0.95,-25.22 4.79,-37.26 0.67,-2.12 1.35,-3.91 2.25,-5.95 9.99,-22.78 29.39,-37.92 52.6,-45.63 16.38,-5.44 33.84,-7.3 51.04,-7.3 20.57,0 41.11,3.38 60.96,8.66 23.37,6.23 45.31,16.44 65.61,29.52 33.32,20.46 52.54,54.46 46.5,93.97 -2.28,14.89 -7.38,29.06 -15.04,42.04 -2.31,3.91 -4.62,7.85 -6.86,11.81 -38.62,88.98 -82.26,175.76 -131.18,259.54 -39.48,67.61 -83.48,132.41 -131.94,193.83 6.94,-3.82 14.12,-7.22 21.22,-10.3 33.84,-14.7 78.09,-17.06 114.58,-17.06 11.51,0 23.03,-0.24 34.53,-0.58 8.8,-0.26 17.97,-1.08 27.12,-2.15 32.41,-56.06 63.52,-113.14 91.61,-171.4 23.74,-49.26 46.84,-99.54 66.48,-150.59 12.19,-31.68 24.67,-65.12 33.25,-97.99 2.43,-9.36 6.03,-21.77 7.92,-32.33 -2.22,-6.62 -4.15,-13.34 -5.82,-20.12 -2.08,-8.45 -3.63,-17.03 -4.62,-25.69 -1.6,-13.99 -0.53,-28.05 3.77,-41.49 0.67,-2.11 1.34,-3.88 2.23,-5.91 12.31,-27.97 38.56,-41.37 66.79,-47.78 20.38,-4.63 41.5,-6.32 62.36,-6.32 20.37,0 40.68,2.07 60.68,5.9 23.01,4.4 45.01,12.41 65.07,24.59 0.35,0.22 0.65,0.41 1.01,0.63 19.85,12.61 38.72,28.29 48.32,50.37 9.4,21.64 10.27,45.79 0.3,67.39 -5.18,11.23 -12.37,21.22 -21.28,29.64 -2.19,5.18 -4.59,10.22 -6.86,14.99 -6.73,14.2 -13.73,28.28 -20.79,42.31 -8.26,16.4 -16.2,32.96 -23.93,49.6 -5.06,10.9 -10.14,21.78 -15.22,32.67 3.17,16.21 6.61,32.38 10.16,48.51 6.04,27.51 12.53,54.92 19.35,82.25 6.75,27.08 14.2,54 22.46,80.66 2.08,6.73 4.22,13.49 6.44,20.22 13.87,-1.83 27.72,-3.77 41.55,-5.86 14.67,-2.2 29.32,-4.53 43.95,-7.04 9.43,-1.63 19.14,-3.61 27.71,-6.31 20.19,-6.86 42.1,-9.09 63.73,-4.96 16.11,3.07 31.66,8.39 46.24,15.94 4.27,2.21 8.46,4.58 12.56,7.1 0,-73.98 9.42,-149.73 21.93,-222.16 6.88,-39.8 19.8,-77.97 37.96,-114.03 18.37,-36.46 42.13,-69.45 71.03,-98.26 29.33,-29.24 63.07,-53.13 99.91,-71.95 40.47,-20.67 84.35,-33 129.25,-39.22 55.69,-7.72 111.86,-11.44 168.07,-11.44 57.39,0 115.03,4.58 171.34,15.87 49.68,9.96 99.85,26.88 141.48,56.43 0.92,0.66 1.7,1.24 2.6,1.95 31.62,25.13 57.77,59.72 51.2,102.59 -3.66,23.88 -15.61,44.58 -33,61.11 -11.14,10.58 -23.16,20.22 -35.71,29.07 -10.15,7.18 -20.17,14.56 -30.05,22.13 -2.8,2.15 -5.56,4.74 -7.39,7.81 -4.76,9.76 -9.57,19.5 -14.41,29.22 -5.32,10.65 -10.87,21.2 -16.7,31.59 -5.8,10.32 -12.2,20.47 -19.58,29.74 -14.67,18.42 -34.33,31.18 -58.7,31.18 -33.12,0 -58.35,-24.09 -64.08,-55.92 -1.92,-10.69 -1.74,-21.75 -0.76,-32.57 0.14,-20.12 3.5,-40.13 9.55,-59.32 3.61,-11.45 6.46,-23.17 8.28,-35.04 0.61,-4.04 0.8,-8.15 0.16,-12.16 -2.11,-1.93 -5.31,-4.06 -7.12,-5.23 -0.96,-0.6 -1.75,-1.14 -2.67,-1.8 -5.87,-4.23 -13.54,-6.5 -20.58,-7.77 -15.06,-2.75 -30.47,-3.85 -45.77,-3.85 -28.99,0 -57.97,2.3 -86.5,7.48 -20.47,3.72 -42.42,7.57 -62.45,13.2 -1.49,0.43 -2.76,0.73 -4.28,1.04 -12.34,2.52 -24.83,7.8 -36.02,13.46 -14.41,7.27 -27.36,17.36 -38.94,28.55 -15.01,14.53 -27.6,31.78 -38.27,49.68 -12.71,21.34 -20.86,45.45 -26.25,69.59 -6.72,30.18 -12.78,60.62 -17.45,91.18 -5.39,35.13 -9.29,71.08 -9.71,106.66 -0.34,30.21 1.34,60.38 5.02,90.36 3.44,28.24 9.43,59.99 21.61,85.89 7.43,15.83 17.6,33.36 30.76,45.17 12.64,11.33 26.83,19.67 43.11,24.53 19.18,5.74 38.93,8.34 58.93,8.34 24.33,0 48.49,-2.89 72.21,-8.2 24.98,-5.59 49.74,-12.43 73.89,-20.95 20.91,-7.39 41.74,-15.4 61.95,-24.58 13.61,-6.21 27.23,-12.41 40.81,-18.68 -4.13,-3.88 -7.97,-8.08 -11.42,-12.64 -19.37,-25.61 -19.96,-59.5 -1.08,-84.55 14.04,-19.86 37.51,-32.85 60.16,-42.69 33.83,-14.7 78.08,-17.06 114.57,-17.06 11.52,0 23.04,-0.24 34.54,-0.58 8.79,-0.26 17.96,-1.08 27.11,-2.15 32.41,-56.06 63.53,-113.14 91.61,-171.4 23.75,-49.26 46.84,-99.54 66.49,-150.59 12.19,-31.68 24.66,-65.12 33.24,-97.99 2.44,-9.36 6.03,-21.77 7.92,-32.33 -2.21,-6.62 -4.14,-13.34 -5.81,-20.12 -2.09,-8.45 -3.64,-17.03 -4.63,-25.69 -1.6,-13.99 -0.53,-28.05 3.77,-41.49 0.67,-2.11 1.35,-3.88 2.24,-5.91 12.3,-27.97 38.55,-41.37 66.79,-47.78 20.38,-4.63 41.49,-6.32 62.36,-6.32 20.37,0 40.68,2.07 60.67,5.9 23.02,4.4 45.02,12.41 65.07,24.59 0.36,0.22 0.66,0.41 1.01,0.63 19.86,12.61 38.73,28.29 48.33,50.37 9.4,21.64 10.26,45.79 0.3,67.39 -5.19,11.23 -12.37,21.22 -21.29,29.64 -2.18,5.18 -4.59,10.22 -6.85,14.99 -6.74,14.2 -13.73,28.28 -20.8,42.31 -8.25,16.4 -16.2,32.96 -23.93,49.6 -5.06,10.9 -10.13,21.78 -15.21,32.67 3.17,16.21 6.61,32.38 10.15,48.51 6.05,27.51 12.53,54.92 19.35,82.25 6.76,27.08 14.21,54 22.46,80.66 2.09,6.73 4.23,13.49 6.45,20.22 13.86,-1.83 27.71,-3.77 41.55,-5.86 14.67,-2.2 29.32,-4.53 43.94,-7.04 9.43,-1.63 19.15,-3.61 27.71,-6.31 20.2,-6.86 42.1,-9.09 63.73,-4.96 16.12,3.07 31.67,8.39 46.24,15.94 13.19,6.83 25.57,15.09 36.82,24.79 7.92,6.83 15.66,13.9 23.02,21.33 13.94,14.09 23.28,31.5 26.8,51.01 4.48,24.86 -2.18,49.32 -18.16,68.83 -14.5,17.68 -34.75,28 -56.37,34.21 -22.65,6.49 -47.88,7.35 -71.31,6.52 -0.58,-0.02 -1.08,-0.04 -1.66,-0.09 -10.92,-0.69 -21.87,-1.09 -32.81,-1.09 -11.07,0 -22.13,0 -33.2,0 -3.53,0 -7.05,0.01 -10.57,0.02 10.42,14.73 21.93,28.96 34.76,41.52 13.32,13.03 27.62,25.13 42.97,35.73 12.61,8.73 25.78,16.61 39.42,23.62 -1.63,-8.23 -2.03,-16.7 -0.71,-25.41 4.46,-29.03 26.49,-50.55 55.09,-56.08 10.21,-1.98 20.68,-2.24 31.04,-1.58 7.91,0.5 15.82,1.2 23.71,2.01 5.94,0.59 11.92,0.89 17.89,0.89 2.02,0 5.71,-0.09 8.71,-0.53 0.87,-1.64 1.67,-3.4 2.23,-4.64 6.71,-15.18 11.65,-31.99 15.8,-48.03 6.26,-24.24 11.35,-48.87 15.81,-73.51 1.97,-10.92 3.93,-21.83 5.89,-32.74 -14.82,-6.9 -28.75,-15.64 -40.86,-26.69 -12.49,-11.39 -22.9,-24.8 -29.68,-40.37 -11.12,-25.52 -9.87,-53.97 7.18,-76.61 2.71,-3.61 5.36,-6.45 8.79,-9.39 17.28,-14.9 41.08,-17.4 62.81,-20.17 6.73,-0.87 13.46,-1.68 20.2,-2.47l12.29 -80.23 6.82 -52.05c0.36,-4.72 0.72,-9.45 1.1,-14.17 -19.41,2.83 -39.07,4.6 -58.65,4.6 -26.94,0 -54.98,-4.15 -76.82,-21.21 -24.73,-19.3 -46.25,-44.07 -49.08,-76.7 -2.02,-23.2 0.54,-45.59 16.71,-63.1 13.08,-14.75 30.71,-20.24 49.82,-24.84 16.07,-3.86 32.49,-6.78 48.8,-9.38 19.69,-3.12 39.44,-5.93 59.2,-8.54 -1.85,-19.58 1.24,-38.89 13.9,-55.71 22.16,-29.44 57.01,-30.29 89.59,-24.2 22.2,4.16 44.04,10.59 65.23,18.37 21.68,7.97 42.85,17.51 62.94,28.91 7.14,4.07 14.13,8.53 20.63,13.49 12.68,-1.54 25.37,-3.09 38.05,-4.62 26.11,-3.16 52.21,-6.36 78.3,-9.62 23.7,-2.97 47.4,-5.94 71.09,-9.02 15.13,-1.97 30.37,-3.92 45.43,-6.37 1.3,-0.2 2.41,-0.35 3.72,-0.48 7.48,-0.74 14.95,-1.81 22.36,-3.06 1.68,-0.29 3.36,-0.58 5.04,-0.86 1.31,-1.72 2.66,-3.42 4.03,-5.11 14.62,-17.83 34.07,-30.23 57.53,-31.06 23.12,-1.24 46.09,4.17 67.56,12.43 18.57,7.15 36.26,16.39 52.55,27.79zm1.08 188c-5.74,1.62 -11.69,2.8 -17.78,3.54 -9.11,4.78 -18.11,9.79 -26.97,15.01 -12.5,7.34 -24.19,16.67 -34.77,26.53 -25.6,23.87 -56.02,50.4 -87.14,66.67 -12.2,6.37 -25.38,12.3 -39,14.78 -38.4,6.99 -74.83,-17.06 -78.71,-56.94 -0.5,-5.25 -0.37,-9.8 0.43,-15.02 1.58,-10.27 5.36,-20.62 9.14,-30.27 2.59,-6.62 5.28,-13.21 8.03,-19.77 -18.41,1.11 -36.79,2.6 -55.13,4.5 -23.47,2.44 -46.87,5.39 -70.23,8.76 -18.14,2.62 -36.27,5.28 -54.39,7.98 -0.89,1.96 -1.78,3.92 -2.67,5.87 -4.89,10.93 -7.63,24.67 -9.43,36.43 -1.26,8.24 -2.79,16.44 -4.44,24.59 -1.76,8.64 -3.19,17.39 -4.53,26.1 -2.88,18.77 -5.26,37.65 -7.49,56.5 -0.35,2.94 -0.69,5.87 -1.03,8.81 14.85,-1.82 29.68,-3.83 44.48,-6.06 20.49,-3.09 41.03,-6 61.59,-8.63 13.82,-1.77 27.62,-3.69 41.39,-5.82 22.44,-3.48 44.84,-7.13 67.18,-11.2 24.57,-4.48 49.39,-7.9 74.3,-9.85 20.49,-1.6 42.14,2.63 61.89,7.87 21.3,5.66 42.14,12.9 62.35,21.66 14.87,6.45 29.59,13.64 43.59,21.9 4.06,-36.03 7.82,-72.1 11.31,-108.19 2.77,-28.58 5.4,-57.16 8.03,-85.75zm-2437.51 509.82c-5.57,2.35 -11.32,4.33 -17.17,6.01 -22.65,6.49 -47.89,7.35 -71.31,6.52 -0.58,-0.02 -1.08,-0.04 -1.66,-0.09 -10.92,-0.69 -21.88,-1.09 -32.82,-1.09 -11.06,0 -22.13,0 -33.19,0 -3.53,0 -7.05,0.01 -10.58,0.02 10.43,14.73 21.93,28.96 34.76,41.52 13.32,13.03 27.63,25.13 42.97,35.73 14.91,10.3 30.56,19.44 46.87,27.34 18.87,9.13 38.03,17.7 56.72,25.53 13.87,5.42 28.93,12.24 41.57,21.62 -0.24,-0.43 -0.47,-0.86 -0.69,-1.29 -24.44,-45.6 -41.07,-95.45 -52.16,-145.88 -1.17,-5.29 -2.27,-10.61 -3.31,-15.94zm1903.77 58.57c11.79,-2.73 24.58,-2.52 37.22,0.22 10,2.17 19.98,4.56 29.93,6.96 12.18,2.95 24.48,5.48 36.79,7.81 12.55,2.38 25.27,3.81 37.5,4.43 13.48,0.43 27.82,-1.14 40.8,-6.69 12.33,-5.25 23.26,-12.46 32.69,-21.99 11.12,-11.21 20.45,-23.85 28.13,-37.63 8.64,-15.5 16.2,-31.62 22.2,-48.34 4.09,-11.41 7.49,-23.14 10.59,-34.87 3.14,-11.86 5.73,-23.88 7.58,-35.99 2.1,-13.66 3.09,-27.88 1.91,-41.73 -2.15,-0.37 -4.29,-0.61 -6.21,-0.8 -12.3,-1.14 -24.69,-1.56 -37.03,-1.56 -15.42,0 -30.84,0.61 -46.22,1.67 -16.18,1.12 -32.34,2.62 -48.43,4.55 -15.49,1.86 -30.98,3.81 -46.44,5.91 -11.84,1.61 -23.68,3.26 -35.48,5.02l-35.04 7.64 -12.22 79.8c-3.03,19.7 -6.29,39.37 -9.65,59 -2.68,15.57 -5.55,31.1 -8.62,46.59zm-2365.31 -216.5c0.89,-0.09 1.8,-0.19 2.69,-0.28 -0.19,-1.11 -0.37,-2.2 -0.55,-3.3 -0.72,1.2 -1.43,2.4 -2.14,3.58zm1573.96 0c0.9,-0.09 1.8,-0.19 2.7,-0.28 -0.19,-1.11 -0.38,-2.2 -0.56,-3.3 -0.72,1.2 -1.42,2.4 -2.14,3.58z"/>
    <g>
     <path class="fil4" d="M2315.46 4019.56c-26.01,-29.78 -55.3,-63.18 -87.85,-100.2 -32.55,-37.01 -62.81,-74.64 -90.75,-112.86 -27.94,-38.23 -50.57,-75.65 -67.9,-112.27 -17.33,-36.61 -23.76,-69.4 -19.33,-98.38 2.22,-14.48 6.19,-28.57 11.91,-42.24 5.71,-13.69 12.6,-25.76 20.64,-36.22 8.03,-10.47 16.37,-18.91 25.01,-25.35 8.63,-6.44 17.37,-9.65 26.23,-9.65 12.07,0 22.28,6.83 30.64,20.51 2.6,4.02 5.35,13.69 8.24,28.97 2.89,15.29 7.72,35.02 14.48,59.16 6.77,24.14 15.75,52.1 26.98,83.89 11.23,31.79 26.07,66.19 44.54,103.21 4.96,9.65 12.34,21.93 22.12,36.82 9.8,14.89 20.53,30.18 32.21,45.86 11.67,15.7 23.22,30.99 34.61,45.88 11.41,14.88 21.6,27.16 30.58,36.81 33.4,-39.43 62.65,-80.68 87.76,-123.72 25.11,-43.06 45.96,-83.3 62.56,-120.72 16.59,-37.42 29,-69.82 37.22,-97.17 8.22,-27.36 12.54,-45.07 12.96,-53.12 -0.06,-4.82 -0.41,-10.45 -1.02,-16.9 -0.63,-6.43 -1.42,-13.08 -2.39,-19.91 -0.97,-6.84 -1.56,-13.48 -1.78,-19.92 -0.21,-6.44 0.45,-12.07 1.99,-16.9 2.47,-5.63 7.94,-9.86 16.43,-12.67 8.48,-2.82 19.16,-4.23 32.04,-4.23 13.67,0 28.83,2.22 45.46,6.64 16.62,4.43 32.97,11.87 49.07,22.33 14.74,8.85 21.07,20.12 18.97,33.8 -1.1,7.24 -3.57,14.09 -7.36,20.52 -3.81,6.44 -6.83,11.67 -9.06,15.7 -38.62,89.32 -81.68,174.62 -129.13,255.91 -47.46,81.28 -100.93,157.13 -160.4,227.53 -59.48,70.42 -126.19,134.2 -200.13,191.34 -73.93,57.13 -156.65,105.82 -248.12,146.06 -11.99,4.83 -22.92,7.84 -32.76,9.06 -9.85,1.2 -17.2,0.6 -22.06,-1.82 -4.85,-2.41 -6.48,-6.24 -4.88,-11.46 1.6,-5.24 7.73,-11.07 18.38,-17.51 42.45,-24.95 83.16,-51.7 122.14,-80.28 38.99,-28.56 74.81,-57.53 107.48,-86.9 32.66,-29.38 61.27,-58.55 85.84,-87.52 24.55,-28.97 44.04,-56.34 58.43,-82.08zm1107.78 321.09c14.42,5.64 24.49,10.86 30.18,15.69 5.71,4.83 8.92,8.85 9.62,12.08 0.72,3.21 -0.49,5.83 -3.61,7.84 -3.13,2.01 -6.3,3.02 -9.53,3.02 -14.72,1.61 -30.39,2.81 -47.01,3.62 -16.63,0.81 -33.8,1.2 -51.49,1.2 -20.93,0 -41.96,-0.59 -63.1,-1.8 -21.14,-1.21 -40.55,-3.23 -58.23,-6.04 -17.67,-2.82 -32.84,-6.24 -45.5,-10.26 -12.66,-4.03 -21.38,-8.85 -26.15,-14.49 -7.37,-9.65 -15.28,-19.71 -23.74,-30.17 -8.46,-10.47 -17.16,-24.55 -26.12,-42.25 -8.96,-17.71 -18.45,-39.84 -28.45,-66.4 -10.02,-26.55 -20.28,-60.75 -30.76,-102.6 -16.1,0 -33.66,0.4 -52.7,1.21 -19.03,0.8 -38.9,1.8 -59.61,3.01 -20.7,1.21 -41.07,2.81 -61.09,4.83 -20.03,2.01 -38.74,4.63 -56.13,7.85 -35.07,45.07 -76.4,88.92 -123.97,131.58 -47.58,42.65 -107.72,83.29 -180.44,121.91 -10.52,5.63 -19.89,9.06 -28.13,10.26 -8.22,1.21 -14.21,0.81 -17.92,-1.2 -3.71,-2.01 -4.6,-5.44 -2.66,-10.26 1.96,-4.83 7.9,-10.86 17.88,-18.11 54.2,-38.63 99.4,-77.66 135.62,-117.09 36.23,-39.43 65.77,-76.05 88.66,-109.85 -13.12,1.6 -21.19,3.02 -24.19,4.23 -3.01,1.2 -8.64,2.61 -16.94,4.22 -21.54,4.03 -38.04,6.64 -49.49,7.85 -11.44,1.2 -21.47,1.01 -30.08,-0.6 -8.61,-1.62 -17.49,-4.03 -26.65,-7.25 -9.17,-3.22 -17.24,-7.04 -24.2,-11.47 -6.97,-4.43 -12.12,-8.85 -15.47,-13.27 -3.35,-4.43 -3.5,-8.65 -0.47,-12.67 5.13,-7.25 16.97,-14.9 35.5,-22.94 18.54,-8.06 48.73,-12.08 90.57,-12.08 10.47,0 22.57,-0.19 36.31,-0.6 13.74,-0.4 34.6,-2.62 62.58,-6.64 43.53,-74.03 79.75,-141.03 108.65,-200.98 28.91,-59.96 51.72,-111.67 68.44,-155.12 16.72,-43.46 28.49,-78.27 35.31,-104.42 6.82,-26.15 10.38,-42.85 10.68,-50.09 -0.18,-4.02 -1.25,-8.86 -3.21,-14.49 -1.94,-5.63 -3.67,-11.47 -5.16,-17.5 -1.49,-6.03 -2.57,-12.07 -3.26,-18.11 -0.69,-6.04 -0.25,-11.47 1.29,-16.29 2.48,-5.64 10.8,-10.07 24.97,-13.28 14.18,-3.22 30.52,-4.83 49.02,-4.83 16.1,0 32.55,1.61 49.36,4.83 16.81,3.21 31.84,8.84 45.09,16.9 13.94,8.85 22.39,16.69 25.37,23.53 2.98,6.85 3.26,12.88 0.84,18.11 -2.4,5.24 -5.89,9.66 -10.48,13.28 -4.58,3.62 -7.51,7.05 -8.82,10.26 -0.36,2.42 -3.23,9.25 -8.57,20.52 -5.35,11.27 -12.06,24.95 -20.17,41.04 -8.1,16.1 -16.36,33.2 -24.76,51.31 -8.42,18.1 -16.2,34.8 -23.36,50.09 3.47,19.31 8.18,42.45 14.1,69.42 5.93,26.95 12.51,54.91 19.74,83.89 7.23,28.97 15.02,56.93 23.36,83.89 8.35,26.96 16.33,49.69 23.96,68.2 13.11,-1.6 27.48,-3.42 43.08,-5.43 15.6,-2.01 31.42,-4.22 47.48,-6.64 16.07,-2.42 31.12,-4.82 45.19,-7.24 14.04,-2.41 26.14,-5.23 36.29,-8.45 11.89,-4.03 23.1,-5.03 33.66,-3.02 10.55,2.02 20.49,5.43 29.8,10.26 9.33,4.84 17.72,10.47 25.18,16.91 7.47,6.43 13.99,12.47 19.56,18.1 5.58,5.63 9.01,12.07 10.32,19.31 1.3,7.25 -0.51,13.89 -5.47,19.93 -4.95,6.03 -13.73,10.86 -26.36,14.48 -12.62,3.62 -30.14,5.02 -52.55,4.23 -12.75,-0.81 -24.96,-1.22 -36.63,-1.22 -11.67,0 -22.74,0 -33.19,0 -25.76,0 -47.95,0.41 -66.58,1.22 -18.64,0.79 -34.11,2.01 -46.43,3.61 4.15,9.66 7.92,17.9 11.3,24.75 3.37,6.84 6.8,13.28 10.32,19.32 3.5,6.03 7.23,11.86 11.2,17.5 3.96,5.63 8.61,12.07 13.94,19.31 15.74,23.34 31.83,43.06 48.28,59.15 16.44,16.09 33.4,30.18 50.86,42.24 17.47,12.08 35.75,22.74 54.85,31.99 19.09,9.26 39.24,18.32 60.42,27.17zm-565.77 -286.09c10.46,0 23.23,-0.6 38.3,-1.8 15.08,-1.22 31.18,-2.63 48.33,-4.23 17.15,-1.61 34.33,-3.42 51.53,-5.43 17.22,-2.02 33.24,-4.23 48.1,-6.65 -2.54,-9.65 -5.63,-24.94 -9.26,-45.87 -3.64,-20.92 -7.29,-43.05 -10.97,-66.39 -3.65,-23.34 -7.04,-45.87 -10.16,-67.6 -3.11,-21.73 -5.74,-38.63 -7.92,-50.69 -3.53,7.24 -10.99,20.51 -22.4,39.83 -11.41,19.31 -24.39,41.04 -38.96,65.18 -14.56,24.15 -29.45,49.09 -44.66,74.85 -15.21,25.75 -29.19,48.68 -41.93,68.8zm1231.7 -322.31c-0.19,-14.48 2.06,-29.16 6.75,-44.05 4.7,-14.89 8.16,-29.58 10.37,-44.06 2.23,-14.49 1.5,-28.17 -2.16,-41.05 -3.66,-12.87 -14.28,-24.95 -31.87,-36.2 -12.33,-8.86 -27.29,-14.9 -44.91,-18.12 -17.61,-3.21 -36.48,-4.82 -56.6,-4.82 -33.8,0 -66.21,2.81 -97.26,8.45 -31.04,5.63 -53.7,10.46 -68.01,14.49 -15.78,3.21 -32.82,9.45 -51.15,18.71 -18.32,9.25 -36.18,22.13 -53.66,39.02 -17.47,16.91 -33.53,37.63 -48.15,62.17 -14.62,24.55 -25.7,53.52 -33.3,87.32 -7.83,35.41 -13.92,67.2 -18.2,95.16 -6.53,42.65 -10,81.08 -10.39,115.08 -0.4,34.2 1.41,66.99 5.45,98.38 4.88,41.64 13.83,76.45 26.89,104.21 13.04,27.76 28.08,49.09 45.06,64.38 19.82,17.71 41.84,30.17 66.09,37.42 24.24,7.25 49.63,10.86 76.19,10.86 28.17,0 56.63,-3.21 85.38,-9.65 28.74,-6.44 55.67,-14.08 80.77,-22.94 25.09,-8.85 47.37,-17.7 66.83,-26.55 19.47,-8.85 34.4,-15.69 44.79,-20.52 5.21,-2.42 9.93,-3.02 14.17,-1.82 4.23,1.21 8.36,1.82 12.39,1.82 12.07,0 17.73,6.43 16.96,19.31 -0.76,12.88 -13.13,26.56 -37.07,41.04 -11.45,6.44 -30.57,15.7 -57.36,27.76 -26.81,12.08 -57.79,23.94 -92.98,35.62 -35.19,11.67 -72.13,21.72 -110.85,30.18 -38.72,8.45 -75.78,12.67 -111.19,12.67 -23.33,0 -44.92,-2.21 -64.78,-6.64 -19.83,-4.42 -37.34,-12.27 -52.51,-23.54 -23.97,-16.9 -45.65,-43.46 -65.05,-79.67 -19.4,-36.21 -34.87,-79.67 -46.42,-130.37 -10.75,-50.69 -16.87,-107.84 -18.4,-171.41 -1.52,-63.58 5.42,-140.43 20.84,-230.56 5.98,-33.8 16.78,-66.19 32.39,-97.17 15.61,-30.99 35.52,-58.55 59.75,-82.69 24.22,-24.14 52.48,-44.46 84.79,-60.97 32.3,-16.5 69.01,-27.56 110.11,-33.2 51.8,-7.23 105.07,-10.85 159.79,-10.85 57.14,0 110.31,4.82 159.5,14.68 49.19,9.86 88.67,25.35 118.42,46.48 21.52,17.1 31.23,32.59 29.14,46.28 -1.49,9.65 -6.47,18.5 -14.94,26.54 -8.48,8.06 -18.13,15.9 -28.96,23.55 -10.83,7.64 -21.49,15.49 -31.98,23.53 -10.49,8.06 -18.54,17.31 -24.17,27.77 -4.7,9.65 -9.67,19.71 -14.87,30.17 -5.23,10.47 -10.34,20.12 -15.32,28.98 -4.97,8.85 -9.7,16.09 -14.19,21.73 -4.48,5.63 -8.34,8.45 -11.55,8.45 -4.83,0 -6.35,-8.45 -4.57,-25.36zm908.03 608.4c14.43,5.64 24.5,10.86 30.19,15.69 5.7,4.83 8.91,8.85 9.62,12.08 0.71,3.21 -0.49,5.83 -3.62,7.84 -3.13,2.01 -6.29,3.02 -9.52,3.02 -14.73,1.61 -30.4,2.81 -47.02,3.62 -16.62,0.81 -33.79,1.2 -51.49,1.2 -20.92,0 -41.95,-0.59 -63.09,-1.8 -21.14,-1.21 -40.55,-3.23 -58.23,-6.04 -17.68,-2.82 -32.85,-6.24 -45.51,-10.26 -12.66,-4.03 -21.37,-8.85 -26.15,-14.49 -7.37,-9.65 -15.28,-19.71 -23.74,-30.17 -8.45,-10.47 -17.16,-24.55 -26.12,-42.25 -8.96,-17.71 -18.44,-39.84 -28.45,-66.4 -10.02,-26.55 -20.27,-60.75 -30.75,-102.6 -16.1,0 -33.67,0.4 -52.7,1.21 -19.03,0.8 -38.91,1.8 -59.62,3.01 -20.7,1.21 -41.06,2.81 -61.08,4.83 -20.03,2.01 -38.74,4.63 -56.14,7.85 -35.07,45.07 -76.39,88.92 -123.96,131.58 -47.58,42.65 -107.73,83.29 -180.44,121.91 -10.52,5.63 -19.9,9.06 -28.13,10.26 -8.23,1.21 -14.21,0.81 -17.92,-1.2 -3.71,-2.01 -4.61,-5.44 -2.67,-10.26 1.97,-4.83 7.91,-10.86 17.88,-18.11 54.2,-38.63 99.41,-77.66 135.63,-117.09 36.22,-39.43 65.77,-76.05 88.66,-109.85 -13.13,1.6 -21.19,3.02 -24.19,4.23 -3.01,1.2 -8.65,2.61 -16.94,4.22 -21.55,4.03 -38.05,6.64 -49.49,7.85 -11.45,1.2 -21.48,1.01 -30.08,-0.6 -8.62,-1.62 -17.5,-4.03 -26.66,-7.25 -9.16,-3.22 -17.23,-7.04 -24.2,-11.47 -6.97,-4.43 -12.12,-8.85 -15.47,-13.27 -3.34,-4.43 -3.49,-8.65 -0.47,-12.67 5.13,-7.25 16.97,-14.9 35.5,-22.94 18.54,-8.06 48.73,-12.08 90.57,-12.08 10.47,0 22.57,-0.19 36.31,-0.6 13.74,-0.4 34.6,-2.62 62.58,-6.64 43.53,-74.03 79.76,-141.03 108.66,-200.98 28.9,-59.96 51.72,-111.67 68.44,-155.12 16.71,-43.46 28.48,-78.27 35.31,-104.42 6.82,-26.15 10.38,-42.85 10.68,-50.09 -0.19,-4.02 -1.25,-8.86 -3.21,-14.49 -1.95,-5.63 -3.67,-11.47 -5.17,-17.5 -1.48,-6.03 -2.56,-12.07 -3.26,-18.11 -0.68,-6.04 -0.24,-11.47 1.3,-16.29 2.48,-5.64 10.79,-10.07 24.97,-13.28 14.17,-3.22 30.51,-4.83 49.02,-4.83 16.1,0 32.54,1.61 49.35,4.83 16.82,3.21 31.84,8.84 45.1,16.9 13.93,8.85 22.39,16.69 25.36,23.53 2.98,6.85 3.26,12.88 0.85,18.11 -2.41,5.24 -5.9,9.66 -10.49,13.28 -4.58,3.62 -7.51,7.05 -8.81,10.26 -0.37,2.42 -3.23,9.25 -8.57,20.52 -5.35,11.27 -12.07,24.95 -20.17,41.04 -8.1,16.1 -16.36,33.2 -24.77,51.31 -8.41,18.1 -16.19,34.8 -23.36,50.09 3.48,19.31 8.18,42.45 14.1,69.42 5.94,26.95 12.52,54.91 19.74,83.89 7.23,28.97 15.02,56.93 23.37,83.89 8.34,26.96 16.32,49.69 23.95,68.2 13.11,-1.6 27.48,-3.42 43.08,-5.43 15.6,-2.01 31.43,-4.22 47.49,-6.64 16.07,-2.42 31.11,-4.82 45.18,-7.24 14.05,-2.41 26.14,-5.23 36.29,-8.45 11.89,-4.03 23.11,-5.03 33.66,-3.02 10.56,2.02 20.5,5.43 29.81,10.26 9.32,4.84 17.72,10.47 25.18,16.91 7.46,6.43 13.98,12.47 19.55,18.1 5.58,5.63 9.02,12.07 10.32,19.31 1.31,7.25 -0.51,13.89 -5.46,19.93 -4.95,6.03 -13.73,10.86 -26.37,14.48 -12.61,3.62 -30.14,5.02 -52.55,4.23 -12.74,-0.81 -24.96,-1.22 -36.62,-1.22 -11.68,0 -22.74,0 -33.2,0 -25.76,0 -47.94,0.41 -66.58,1.22 -18.63,0.79 -34.11,2.01 -46.42,3.61 4.14,9.66 7.92,17.9 11.29,24.75 3.38,6.84 6.81,13.28 10.33,19.32 3.49,6.03 7.22,11.86 11.19,17.5 3.97,5.63 8.62,12.07 13.94,19.31 15.74,23.34 31.83,43.06 48.28,59.15 16.44,16.09 33.4,30.18 50.86,42.24 17.47,12.08 35.75,22.74 54.86,31.99 19.09,9.26 39.23,18.32 60.41,27.17zm-565.76 -286.09c10.46,0 23.23,-0.6 38.3,-1.8 15.07,-1.22 31.18,-2.63 48.33,-4.23 17.15,-1.61 34.33,-3.42 51.52,-5.43 17.23,-2.02 33.24,-4.23 48.11,-6.65 -2.55,-9.65 -5.64,-24.94 -9.27,-45.87 -3.64,-20.92 -7.29,-43.05 -10.96,-66.39 -3.66,-23.34 -7.05,-45.87 -10.16,-67.6 -3.11,-21.73 -5.75,-38.63 -7.92,-50.69 -3.53,7.24 -11,20.51 -22.4,39.83 -11.41,19.31 -24.39,41.04 -38.97,65.18 -14.56,24.15 -29.44,49.09 -44.66,74.85 -15.2,25.75 -29.19,48.68 -41.92,68.8zm1254.82 -218.49c9.79,-0.8 23.55,1.21 41.73,6.03 18.17,4.83 36.12,11.07 53.86,18.71 17.55,7.65 32.64,15.5 45.08,23.55 12.46,8.05 17.91,14.48 16.36,19.31 -4.14,11.27 -9.49,22.53 -16.04,33.79 -6.55,11.27 -13.35,29.39 -20.39,54.33 -4.51,13.68 -8.87,34.2 -13.05,61.57 -2.97,19.31 -7.04,40.64 -12.22,63.97 -5.19,23.34 -12.62,46.88 -22.09,70.62 -9.68,23.74 -21.87,46.87 -36.39,69.4 -14.72,22.54 -32.82,42.25 -54.53,59.16 -10.21,8.85 -23.37,17.3 -39.89,25.35 -16.33,8.04 -33.97,15.49 -52.72,22.33 -18.75,6.84 -37.89,12.27 -57.42,16.29 -19.53,4.02 -36.94,6.04 -52.23,6.04 -27.35,0 -44.48,-6.44 -51.36,-19.32 -6.2,-12.06 -13.44,-23.94 -21.7,-35.6 -8.28,-11.67 -16.13,-22.14 -23.56,-31.4 -7.44,-9.24 -13.45,-17.3 -18.03,-24.14 -4.59,-6.83 -6.29,-11.46 -5.11,-13.88 1.17,-2.41 5.46,-2.81 12.85,-1.21 7.4,1.62 16.92,3.83 28.57,6.65 11.63,2.82 24.88,5.63 39.74,8.44 14.85,2.82 30.27,4.64 46.24,5.43 24.83,0.81 47.14,-3.01 66.95,-11.46 19.8,-8.45 37.09,-20.12 51.83,-35.01 14.76,-14.89 27.41,-31.78 37.95,-50.7 10.55,-18.91 19.3,-38.02 26.29,-57.33 4.27,-12.07 8.31,-25.35 12.14,-39.84 3.82,-14.48 6.78,-28.57 8.88,-42.24 3.57,-23.34 4.05,-44.87 1.45,-64.59 -2.62,-19.71 -11.48,-32.79 -26.58,-39.23 -9.04,-4.02 -20.12,-6.64 -33.2,-7.84 -13.1,-1.22 -27.29,-1.82 -42.57,-1.82 -16.1,0 -32.9,0.6 -50.38,1.82 -17.49,1.2 -34.63,2.81 -51.44,4.82 -16.81,2.02 -32.6,4.03 -47.4,6.04 -14.79,2.01 -27.54,3.82 -38.26,5.43l-77.42 16.9 -18.51 120.71c-2.57,16.9 -5.74,36.22 -9.47,57.94 -3.73,21.73 -7.84,43.26 -12.32,64.58 -4.47,21.33 -8.59,40.44 -12.39,57.34 -3.81,16.9 -7.34,28.17 -10.62,33.8 -7.84,14.49 -17.2,26.97 -28.06,37.43 -10.87,10.45 -22.04,19.11 -33.55,25.95 -11.51,6.84 -22.75,11.87 -33.71,15.09 -10.95,3.21 -20.86,4.82 -29.7,4.82 -4.83,0 -13.3,-6.43 -25.41,-19.31 -12.11,-12.87 -24.51,-27.76 -37.22,-44.66 -12.7,-16.9 -23.88,-33.2 -33.55,-48.89 -9.66,-15.7 -14.07,-26.36 -13.21,-31.99 0.49,-3.22 2.82,-5.23 6.96,-6.04 4.16,-0.79 9.41,-1 15.79,-0.6 6.38,0.4 13.53,1.01 21.46,1.82 7.92,0.8 15.9,1.2 23.95,1.2 17.7,0 31.88,-3.21 42.52,-9.66 8.91,-5.63 16.76,-16.09 23.52,-31.38 6.77,-15.29 13.12,-34.41 19.04,-57.34 5.93,-22.94 11.53,-48.89 16.76,-77.86 5.24,-28.97 10.79,-59.96 16.66,-92.95 -1.61,0 -3.48,0.41 -5.62,1.21 -2.13,0.81 -4,1.21 -5.6,1.21 -11.27,0 -22.18,-2.42 -32.71,-7.25 -10.52,-4.83 -19.31,-10.46 -26.38,-16.9 -7.06,-6.43 -12.07,-13.07 -15.04,-19.92 -2.99,-6.83 -2.96,-12.27 0.07,-16.29 1.86,-1.61 12.22,-3.62 31.1,-6.04 18.89,-2.41 40.58,-4.82 65.09,-7.24l7.03 -45.87 12.39 -80.88 7.12 -54.31c1.6,-20.93 3.01,-38.03 4.24,-51.31 1.23,-13.28 0.94,-27.16 -0.86,-41.65 -19.13,4.02 -39.64,7.85 -61.51,11.47 -21.88,3.62 -41.68,5.44 -59.38,5.44 -19.32,0 -32.57,-2.82 -39.75,-8.46 -16.53,-12.87 -25.24,-24.34 -26.11,-34.4 -0.88,-10.06 -0.39,-15.89 1.47,-17.5 1.05,-1.62 7.43,-3.82 19.13,-6.64 11.7,-2.82 26.41,-5.64 44.15,-8.45 17.73,-2.82 37.27,-5.63 58.63,-8.46 21.36,-2.81 42.55,-4.62 63.6,-5.43 -4.16,-20.12 -7.7,-36.4 -10.62,-48.88 -2.92,-12.48 -2.86,-20.72 0.17,-24.75 3.03,-4.02 13.15,-4.43 30.37,-1.21 17.2,3.23 35.72,8.46 55.53,15.7 19.61,7.24 37.66,15.49 53.95,24.75 16.29,9.25 25.08,17.49 26.4,24.74 19.68,-2.42 42.64,-5.24 69.28,-8.45 26.65,-3.22 52.89,-6.45 78.54,-9.66 25.84,-3.21 49.64,-6.24 71.4,-9.05 21.55,-2.82 37.38,-5.04 47.29,-6.64 8.17,-0.81 17.01,-2.01 26.51,-3.62 9.51,-1.62 19.6,-3.22 30.32,-4.83 5.37,-8.85 10.33,-16.29 15.28,-22.33 4.96,-6.04 9.44,-9.06 13.46,-9.06 12.2,-0.8 26.65,2.02 43.37,8.45 16.72,6.44 31.76,14.69 44.89,24.75 13.35,10.06 23.82,20.52 31.41,31.38 7.59,10.87 9.22,19.92 4.89,27.17 -6.12,13.68 -19.44,20.52 -40.16,20.52 -12.85,6.44 -26.68,13.88 -41.04,22.33 -14.37,8.44 -29.61,19.91 -45.31,34.4 -30.07,28.16 -54.72,47.28 -73.97,57.34 -19.24,10.05 -29.18,11.87 -29.81,5.43 0.5,-3.21 2.4,-9.05 5.71,-17.51 3.31,-8.44 7.46,-18.5 12.47,-30.17 5,-11.67 10.13,-24.15 15.38,-37.42 5.26,-13.28 10.02,-25.95 14.29,-38.03 -29.91,0.81 -56.82,1.82 -80.75,3.02 -23.92,1.21 -47.53,3.01 -70.83,5.43 -23.32,2.42 -47.52,5.43 -72.62,9.06 -25.1,3.62 -53.71,7.85 -85.83,12.68 -5.63,10.45 -11.5,22.53 -17.62,36.2 -6.13,13.69 -10.79,30.99 -14,51.91 -0.98,6.44 -2.28,13.68 -3.93,21.74 -1.63,8.04 -3.31,17.69 -5.04,28.96 -2.46,16.1 -5.04,35.61 -7.76,58.55 -2.71,22.94 -5.79,50.9 -9.23,83.89 16.34,-1.61 35.35,-3.62 56.85,-6.04 21.7,-2.4 43.25,-5.23 64.67,-8.44 21.21,-3.22 41.37,-6.04 60.24,-8.45 18.88,-2.42 33.27,-4.43 42.97,-6.04 21.43,-3.22 44.34,-7.04 68.75,-11.46 24.22,-4.44 47.02,-7.45 68.19,-9.06z"/>
     <path class="fil4" d="M6610 4087.15c-1.1,7.24 -2.35,14.08 -3.74,20.52 -1.39,6.45 -2.58,12.87 -3.56,19.32 -3.21,20.93 -5.02,38.02 -5.45,51.3 -0.43,13.28 -0.64,25.15 -0.64,35.61 0.01,10.46 0.18,21.12 0.55,31.99 0.34,10.86 -0.32,24.34 -1.98,40.45 -2.1,13.67 -6.58,27.14 -13.44,40.42 -6.86,13.29 -14.92,25.16 -24.16,35.62 -9.25,10.46 -19.16,18.71 -29.75,24.75 -10.58,6.03 -20.29,9.05 -29.15,9.05 -8.05,0 -16.21,-3.22 -24.48,-9.66 -8.26,-6.44 -15.18,-15.09 -20.77,-25.95 -5.57,-10.86 -9.01,-23.94 -10.28,-39.23 -1.27,-15.3 0.65,-31.79 5.77,-49.5 6.19,-19.31 14.48,-49.89 24.93,-91.74 10.43,-41.84 20.33,-88.11 29.71,-138.82 3.4,-16.89 7.05,-36.82 10.97,-59.75 3.91,-22.94 7.85,-47.28 11.79,-73.03l12.39 -80.88 12.02 -78.46c-43.86,49.89 -87.65,96.77 -131.39,140.63 -43.74,43.86 -85.78,84.5 -126.12,121.92 -40.34,37.42 -77.67,71.02 -112.01,100.79 -34.34,29.78 -64.04,55.53 -89.09,77.25 -9.04,6.45 -20.28,15.5 -33.74,27.17 -13.46,11.67 -27.7,24.54 -42.73,38.62 -15.03,14.09 -30.13,28.58 -45.29,43.46 -15.16,14.89 -28.55,28.78 -40.18,41.65 -35.26,41.04 -62.54,61.57 -81.85,61.57 -19.32,0 -34.01,-19.73 -44.06,-59.16 -5.34,-17.7 -9.35,-32.19 -12.05,-43.46 -2.7,-11.25 -3.37,-21.32 -2.02,-30.17 1.36,-8.85 5.7,-17.51 13.04,-25.95 7.32,-8.46 18.81,-19.12 34.46,-31.99 4.64,-4.02 9.18,-11.27 13.59,-21.74 4.42,-10.45 9.02,-23.33 13.77,-38.62 2.29,-9.66 4.29,-20.12 6.01,-31.38 1.74,-11.27 3.64,-23.74 5.74,-37.42 4.81,-31.39 9.86,-67 15.17,-106.84 5.29,-39.83 10.37,-80.88 15.24,-123.12 4.86,-42.25 9.35,-84.71 13.47,-127.36 4.13,-42.64 7.87,-82.88 11.26,-120.7 1.54,-15.29 1.51,-29.59 -0.08,-42.86 -1.59,-13.28 -3.56,-25.35 -5.91,-36.21 -2.36,-10.86 -4.31,-20.52 -5.83,-28.98 -1.52,-8.44 -1.45,-15.49 0.22,-21.12 1.55,-4.84 7.24,-7.84 17.08,-9.05 9.84,-1.21 21.69,-1.01 35.52,0.6 13.83,1.6 28.66,4.63 44.48,9.06 15.82,4.42 30.14,9.45 42.96,15.08 12.81,5.64 23.29,12.07 31.44,19.32 8.16,7.24 11.66,14.48 10.55,21.72 -1.67,5.63 -4.87,10.87 -9.64,15.7 -4.77,4.83 -9.68,10.66 -14.75,17.5 -5.08,6.84 -10.13,14.89 -15.17,24.14 -5.05,9.26 -8.67,21.13 -10.9,35.62 -1.29,13.67 -3,27.56 -5.16,41.64 -2.16,14.08 -4.41,28.77 -6.76,44.06 -2.21,14.48 -4.46,29.17 -6.74,44.06 -2.28,14.89 -4.2,29.98 -5.73,45.27l-1.3 8.44c-3.94,25.76 -7.56,50.7 -10.86,74.85 -3.3,24.14 -6.74,47.89 -10.31,71.22 -4.69,30.58 -9.44,58.95 -14.25,85.11 -4.81,26.15 -10.55,50.5 -17.22,73.02 -2.47,16.1 -2.56,27.16 -0.26,33.2 2.3,6.03 6.26,9.05 11.89,9.05 6.43,0 14.21,-3.42 23.3,-10.26 9.09,-6.84 17.23,-12.68 24.4,-17.5 16.35,-12.07 44.55,-34.61 84.6,-67.6 40.06,-32.99 85.67,-73.23 136.8,-120.71 51.13,-47.49 104.24,-100 159.34,-157.53 55.08,-57.54 105.88,-117.3 152.39,-179.26 -0.82,-20.93 -2.91,-37.42 -6.3,-49.49 -3.37,-12.07 -6.48,-21.94 -9.34,-29.58 -2.86,-7.64 -4.92,-13.88 -6.19,-18.71 -1.27,-4.82 -0.21,-10.46 3.19,-16.9 7.74,-13.68 20.45,-20.52 38.16,-20.52 11.27,0 22.16,2.42 32.68,7.24 10.53,4.83 18.93,10.47 25.18,16.9 27.43,15.29 45.34,35.01 53.71,59.15 8.37,24.14 10.77,47.88 7.2,71.22 -3.09,20.12 -9.02,37.82 -17.8,53.11l-4.08 10.87c-6.86,18.51 -10.85,31.38 -11.95,38.63l-3.9 25.35c-2.7,17.7 -6.55,41.44 -11.5,71.22 -4.97,29.77 -9.86,60.35 -14.66,91.74 -4.64,24.95 -9.32,52.91 -14.07,83.89 -4.74,30.99 -10.2,61.37 -16.38,91.14z"/>
    </g>
   </g>
  </g>
 </g>
</svg>
