<?xml version="1.0" encoding="UTF-8"?>
<!DOCTYPE svg PUBLIC "-//W3C//DTD SVG 1.1//EN" "http://www.w3.org/Graphics/SVG/1.1/DTD/svg11.dtd">
<!-- Creator: CorelDRAW 2021 (64-Bit) -->
<svg xmlns="http://www.w3.org/2000/svg" xml:space="preserve" width="67.7332mm" height="67.7332mm" version="1.1" style="shape-rendering:geometricPrecision; text-rendering:geometricPrecision; image-rendering:optimizeQuality; fill-rule:evenodd; clip-rule:evenodd"
viewBox="0 0 6773.32 6773.32"
 xmlns:xlink="http://www.w3.org/1999/xlink"
 xmlns:xodm="http://www.corel.com/coreldraw/odm/2003">
 <defs>
  <style type="text/css">
   <![CDATA[
    .fil3 {fill:#2B2A29}
    .fil1 {fill:#A3C626}
    .fil2 {fill:#E95623}
    .fil0 {fill:#2B2A29;fill-rule:nonzero}
    .fil4 {fill:#A3C626;fill-rule:nonzero}
   ]]>
  </style>
 </defs>
 <g id="Layer_x0020_1">
  <metadata id="CorelCorpID_0Corel-Layer"/>
  <g id="_2847854777232">
   <path class="fil0" d="M965.66 6338.89c0,8.42 -1.2,18.23 -3.68,29.42l-22.16 105.26 -72.03 0 20.43 -95.9c1.79,-7.21 2.71,-12.98 2.71,-17.43 0,-7.57 -3.81,-11.32 -11.48,-11.32 -3.75,0 -8.02,1.92 -12.93,5.66 -4.91,3.81 -9.23,8.77 -12.93,14.9 -3.75,6.16 -6.28,12.4 -7.61,18.87l-17.43 85.22 -72.36 0 20.48 -95.9c1.91,-7.68 2.83,-13.45 2.83,-17.43 0,-7.57 -3.81,-11.32 -11.49,-11.32 -6.05,0 -12.69,4.05 -19.79,12.13 -7.1,8.02 -11.71,17.14 -13.85,27.3l-17.89 85.22 -72.36 0 24.53 -114.95c3.92,-18.7 7.32,-38.09 10.09,-58.17l70.86 0c-0.8,13.57 -1.89,23.5 -3.39,29.84l0.69 0c9.23,-10.51 19.84,-18.75 31.85,-24.88 12,-6.05 23.31,-9.11 33.94,-9.11 25.79,0 39.52,12.75 41.19,38.19 8.84,-11.59 19.57,-20.88 32.26,-27.81 12.64,-6.92 25.39,-10.38 38.08,-10.38 27.65,0 41.44,14.2 41.44,42.59zm221.97 0.63c0,11.37 -3.93,20.78 -11.83,28.28 -7.91,7.5 -19.16,12.75 -33.82,15.81 11.95,0.63 21.47,4.05 28.51,10.1 7.04,6.12 10.56,14.03 10.56,23.66 0,10.85 -4.45,21.17 -13.33,31.05 -8.95,9.87 -20.84,17.19 -35.78,22.04 -14.95,4.85 -32.15,7.27 -51.64,7.27 -27.3,0 -47.21,-5.54 -59.8,-16.62 -12.57,-11.14 -18.81,-28.44 -18.81,-51.94 0,-23.89 4.62,-44.48 13.85,-61.86 9.24,-17.37 22.62,-30.18 40.22,-38.49 17.61,-8.37 38.67,-12.52 63.25,-12.52 14.89,0 27.3,1.79 37.34,5.31 10.04,3.57 17.77,8.6 23.2,15.12 5.36,6.52 8.08,14.14 8.08,22.79zm-66.77 9.76c0,-3.13 -1.1,-5.89 -3.29,-8.26 -2.2,-2.36 -5.37,-3.52 -9.58,-3.52 -14.66,0 -25.51,10.73 -32.6,32.2 16.1,-0.45 27.69,-2.31 34.8,-5.54 7.15,-3.29 10.67,-8.25 10.67,-14.88zm-6.58 65.83c0,-3.98 -1.68,-7.26 -4.9,-9.92 -3.3,-2.65 -7.8,-3.98 -13.57,-3.98 -5.37,0 -10.44,0.29 -15.12,0.92 -4.67,0.64 -8.77,1.1 -12.23,1.45 -0.92,2.94 -1.39,6.34 -1.39,10.15 0,6.7 1.79,11.72 5.37,15.01 3.52,3.34 8.48,5.02 14.78,5.02 7.67,0 14.07,-1.79 19.27,-5.43 5.2,-3.63 7.79,-8.02 7.79,-13.22zm297.04 -42.64c0,20.2 -4.51,38.61 -13.56,55.34 -9.12,16.74 -21.76,29.21 -37.98,37.52 -16.21,8.24 -35.26,12.4 -57.13,12.4 -26.72,0 -47.38,-6.69 -61.97,-20.09 -14.61,-13.44 -21.87,-32.25 -21.87,-56.43 0,-14.2 2.53,-28.1 7.73,-41.72 5.19,-13.62 12.4,-25.1 21.64,-34.4 9.23,-9.29 20.6,-16.38 34.1,-21.35 13.45,-4.96 28.86,-7.44 46.23,-7.44 26.36,0 46.73,6.63 61.16,19.85 14.43,13.22 21.65,32.03 21.65,56.32zm-71.68 0c0,-7.67 -1.61,-13.5 -4.9,-17.54 -3.23,-3.98 -7.68,-6.01 -13.16,-6.01 -6.23,0 -11.6,2.43 -16.28,7.22 -4.61,4.79 -8.25,11.37 -10.84,19.79 -2.65,8.43 -3.99,17.09 -3.99,25.97 0,7.68 1.68,13.45 4.97,17.37 3.35,3.87 7.79,5.83 13.44,5.83 9.24,0 16.68,-4.96 22.34,-14.88 5.6,-9.93 8.42,-22.51 8.42,-37.75zm279.84 101.1l-72.01 0 12.52 -59.2 -4.91 0c-5.42,0 -10.38,1.72 -14.82,5.25 -4.45,3.46 -9.07,9.59 -13.91,18.23l-20.14 35.72 -79.3 0 28.39 -43.97c11.72,-18.18 27.82,-29.02 48.19,-32.66 -10.68,-1.91 -19.44,-6.7 -26.2,-14.25 -6.75,-7.62 -10.15,-16.34 -10.15,-26.14 0,-37.4 28.62,-56.1 85.87,-56.1l103.18 0 -36.71 173.12zm-55.46 -132.26c-17.71,0 -26.54,6.4 -26.54,19.27 0,5.08 1.85,9.07 5.6,12 3.7,2.95 9.23,4.4 16.57,4.4l8.24 0 7.62 -35.67 -11.49 0zm620.6 -2.42c0,8.42 -1.2,18.23 -3.69,29.42l-22.16 105.26 -72.03 0 20.44 -95.9c1.79,-7.21 2.7,-12.98 2.7,-17.43 0,-7.57 -3.79,-11.32 -11.47,-11.32 -3.75,0 -8.02,1.92 -12.93,5.66 -4.91,3.81 -9.23,8.77 -12.93,14.9 -3.75,6.16 -6.29,12.4 -7.61,18.87l-17.43 85.22 -72.37 0 20.49 -95.9c1.91,-7.68 2.83,-13.45 2.83,-17.43 0,-7.57 -3.81,-11.32 -11.49,-11.32 -6.05,0 -12.7,4.05 -19.79,12.13 -7.1,8.02 -11.72,17.14 -13.85,27.3l-17.89 85.22 -72.37 0 24.53 -114.95c3.93,-18.7 7.32,-38.09 10.09,-58.17l70.87 0c-0.8,13.57 -1.9,23.5 -3.4,29.84l0.69 0c9.24,-10.51 19.85,-18.75 31.85,-24.88 12.01,-6.05 23.32,-9.11 33.94,-9.11 25.79,0 39.53,12.75 41.2,38.19 8.83,-11.59 19.57,-20.88 32.27,-27.81 12.63,-6.92 25.38,-10.38 38.08,-10.38 27.64,0 41.43,14.2 41.43,42.59zm214.05 9.12c0,19.79 -9.11,34.56 -27.35,44.25 -18.18,9.7 -46.21,15.07 -84.08,16.22l0 1.34c0,6.56 2.78,11.65 8.25,15.34 5.55,3.64 12.93,5.48 22.16,5.48 8.26,0 18.13,-1.43 29.67,-4.27 11.59,-2.83 21.06,-6.17 28.5,-9.99l-9.98 47.16c-8.76,4.15 -19.44,7.55 -32.02,10.21 -12.58,2.66 -25.11,3.98 -37.64,3.98 -24.23,0 -43.27,-6.4 -57.12,-19.27 -13.85,-12.81 -20.78,-30.42 -20.78,-52.69 0,-20.26 4.74,-38.96 14.26,-56.09 9.52,-17.14 22.68,-30.29 39.41,-39.54 16.74,-9.23 36.01,-13.84 57.88,-13.84 21.88,0 38.84,4.44 50.84,13.33 12.01,8.89 18,21.69 18,38.38zm-66.47 -0.4c0,-2.44 -0.75,-4.68 -2.25,-6.7 -1.56,-2.02 -4.21,-3.06 -8.02,-3.06 -7.56,0 -14.09,2.88 -19.57,8.59 -5.48,5.72 -9.17,13.86 -11.07,24.31 12.76,0 22.74,-1.91 30,-5.72 7.28,-3.87 10.91,-9.64 10.91,-17.42zm294.9 11.36c0,23.31 -4.89,44.15 -14.71,62.44 -9.81,18.29 -23.55,32.25 -41.2,41.9 -17.6,9.63 -38.09,14.42 -61.46,14.42 -1.56,0 -5.38,-0.17 -11.48,-0.52 -6.07,-0.34 -9.41,-0.63 -9.99,-0.98l-16.91 76.98 -72.36 0 40.8 -191.88c2.54,-11.53 4.9,-23.31 6.92,-35.37 2.02,-12.06 3.17,-20.55 3.52,-25.51l69.13 0c-0.51,9.47 -1.79,19.74 -3.69,30.82l0.7 0c15.86,-23.31 35.83,-34.97 59.84,-34.97 15.28,0 27.64,5.77 36.93,17.37 9.29,11.59 13.96,26.72 13.96,45.3zm-71.73 11.13c0,-14.14 -5.36,-21.18 -16.21,-21.18 -7.33,0 -14.15,4.56 -20.43,13.63 -6.35,9.11 -11.48,22.33 -15.59,39.7l-6.56 28.74c4.03,0.7 7.66,1.03 10.78,1.03 13.45,0 24.82,-6.05 34.11,-18.12 9.28,-12.05 13.9,-26.65 13.9,-43.8zm309.45 -11.13c0,23.31 -4.91,44.15 -14.72,62.44 -9.81,18.29 -23.55,32.25 -41.2,41.9 -17.6,9.63 -38.09,14.42 -61.47,14.42 -1.55,0 -5.36,-0.17 -11.48,-0.52 -6.05,-0.34 -9.41,-0.63 -9.98,-0.98l-16.91 76.98 -72.36 0 40.79 -191.88c2.55,-11.53 4.92,-23.31 6.93,-35.37 2.02,-12.06 3.18,-20.55 3.52,-25.51l69.13 0c-0.51,9.47 -1.78,19.74 -3.69,30.82l0.7 0c15.87,-23.31 35.83,-34.97 59.84,-34.97 15.29,0 27.64,5.77 36.94,17.37 9.28,11.59 13.96,26.72 13.96,45.3zm-71.73 11.13c0,-14.14 -5.37,-21.18 -16.22,-21.18 -7.33,0 -14.14,4.56 -20.43,13.63 -6.34,9.11 -11.49,22.33 -15.58,39.7l-6.58 28.74c4.04,0.7 7.67,1.03 10.8,1.03 13.44,0 24.8,-6.05 34.1,-18.12 9.28,-12.05 13.91,-26.65 13.91,-43.8zm285.26 103.47l-73.05 0c0.8,-13.09 1.67,-22.56 2.7,-28.44l-0.69 0c-10.15,10.91 -20.83,19.1 -32.08,24.46 -11.31,5.43 -22.51,8.14 -33.64,8.14 -28.22,0 -42.31,-14.19 -42.31,-42.58 0,-8.42 1.28,-18.25 3.76,-29.44l22.26 -105.26 72.03 0 -20.09 93.84c-1.9,7.61 -2.88,14.03 -2.88,19.1 0,2.25 0.81,4.21 2.42,6 1.68,1.73 4.21,2.6 7.74,2.6 8.19,0 15.63,-4.21 22.28,-12.58 6.69,-8.43 11.24,-18.76 13.72,-31.05l16.22 -77.91 72.02 0 -23.14 108.72c-2.14,10.16 -3.92,21.35 -5.25,33.64 -1.39,12.3 -2.02,22.52 -2.02,30.76zm369.92 -134.68c0,8.42 -1.21,18.23 -3.69,29.42l-22.16 105.26 -72.02 0 20.43 -95.9c1.79,-7.21 2.71,-12.98 2.71,-17.43 0,-7.57 -3.8,-11.32 -11.48,-11.32 -3.75,0 -8.02,1.92 -12.93,5.66 -4.91,3.81 -9.23,8.77 -12.93,14.9 -3.75,6.16 -6.29,12.4 -7.61,18.87l-17.43 85.22 -72.37 0 20.49 -95.9c1.9,-7.68 2.83,-13.45 2.83,-17.43 0,-7.57 -3.81,-11.32 -11.49,-11.32 -6.06,0 -12.7,4.05 -19.79,12.13 -7.1,8.02 -11.72,17.14 -13.84,27.3l-17.9 85.22 -72.37 0 24.53 -114.95c3.93,-18.7 7.32,-38.09 10.09,-58.17l70.87 0c-0.8,13.57 -1.9,23.5 -3.4,29.84l0.69 0c9.23,-10.51 19.85,-18.75 31.85,-24.88 12.01,-6.05 23.32,-9.11 33.94,-9.11 25.79,0 39.53,12.75 41.2,38.19 8.83,-11.59 19.57,-20.88 32.27,-27.81 12.63,-6.92 25.39,-10.38 38.08,-10.38 27.64,0 41.43,14.2 41.43,42.59zm226.36 33.58c0,20.2 -4.51,38.61 -13.57,55.34 -9.12,16.74 -21.75,29.21 -37.97,37.52 -16.22,8.24 -35.26,12.4 -57.13,12.4 -26.72,0 -47.38,-6.69 -61.97,-20.09 -14.61,-13.44 -21.88,-32.25 -21.88,-56.43 0,-14.2 2.54,-28.1 7.74,-41.72 5.19,-13.62 12.4,-25.1 21.63,-34.4 9.24,-9.29 20.61,-16.38 34.11,-21.35 13.45,-4.96 28.86,-7.44 46.22,-7.44 26.37,0 46.74,6.63 61.17,19.85 14.43,13.22 21.65,32.03 21.65,56.32zm-71.68 0c0,-7.67 -1.61,-13.5 -4.91,-17.54 -3.22,-3.98 -7.67,-6.01 -13.16,-6.01 -6.23,0 -11.6,2.43 -16.27,7.22 -4.61,4.79 -8.26,11.37 -10.85,19.79 -2.66,8.43 -3.98,17.09 -3.98,25.97 0,7.68 1.68,13.45 4.97,17.37 3.34,3.87 7.78,5.83 13.44,5.83 9.23,0 16.68,-4.96 22.34,-14.88 5.59,-9.93 8.42,-22.51 8.42,-37.75zm309.27 -13.5c0,23.31 -4.9,44.15 -14.72,62.44 -9.81,18.29 -23.54,32.25 -41.19,41.9 -17.61,9.63 -38.09,14.42 -61.46,14.42 -1.56,0 -5.38,-0.17 -11.49,-0.52 -6.06,-0.34 -9.41,-0.63 -9.98,-0.98l-16.91 76.98 -72.36 0 40.8 -191.88c2.53,-11.53 4.9,-23.31 6.92,-35.37 2.02,-12.06 3.17,-20.55 3.52,-25.51l69.13 0c-0.51,9.47 -1.79,19.74 -3.69,30.82l0.7 0c15.86,-23.31 35.83,-34.97 59.83,-34.97 15.29,0 27.64,5.77 36.94,17.37 9.29,11.59 13.96,26.72 13.96,45.3zm-71.73 11.13c0,-14.14 -5.36,-21.18 -16.22,-21.18 -7.32,0 -14.14,4.56 -20.42,13.63 -6.35,9.11 -11.48,22.33 -15.59,39.7l-6.57 28.74c4.03,0.7 7.67,1.03 10.79,1.03 13.45,0 24.81,-6.05 34.1,-18.12 9.29,-12.05 13.91,-26.65 13.91,-43.8zm285.26 103.47l-73.05 0c0.81,-13.09 1.67,-22.56 2.7,-28.44l-0.69 0c-10.14,10.91 -20.82,19.1 -32.08,24.46 -11.31,5.43 -22.5,8.14 -33.64,8.14 -28.22,0 -42.31,-14.19 -42.31,-42.58 0,-8.42 1.28,-18.25 3.76,-29.44l22.27 -105.26 72.02 0 -20.08 93.84c-1.91,7.61 -2.89,14.03 -2.89,19.1 0,2.25 0.81,4.21 2.43,6 1.68,1.73 4.21,2.6 7.73,2.6 8.2,0 15.64,-4.21 22.28,-12.58 6.69,-8.43 11.25,-18.76 13.73,-31.05l16.22 -77.91 72.01 0 -23.14 108.72c-2.13,10.16 -3.92,21.35 -5.25,33.64 -1.38,12.3 -2.02,22.52 -2.02,30.76zm230.79 0l-72.02 0 12.53 -59.2 -4.91 0c-5.43,0 -10.39,1.72 -14.83,5.25 -4.45,3.46 -9.06,9.59 -13.9,18.23l-20.15 35.72 -79.28 0 28.38 -43.97c11.71,-18.18 27.82,-29.02 48.19,-32.66 -10.67,-1.91 -19.45,-6.7 -26.2,-14.25 -6.75,-7.62 -10.16,-16.34 -10.16,-26.14 0,-37.4 28.63,-56.1 85.87,-56.1l103.18 0 -36.7 173.12zm-55.45 -132.26c-17.71,0 -26.56,6.4 -26.56,19.27 0,5.08 1.86,9.07 5.61,12 3.69,2.95 9.23,4.4 16.56,4.4l8.25 0 7.62 -35.67 -11.48 0zm494.95 -1.79c0,11.37 -3.91,20.78 -11.81,28.28 -7.91,7.5 -19.17,12.75 -33.82,15.81 11.95,0.63 21.46,4.05 28.5,10.1 7.04,6.12 10.57,14.03 10.57,23.66 0,10.85 -4.45,21.17 -13.34,31.05 -8.94,9.87 -20.84,17.19 -35.78,22.04 -14.95,4.85 -32.15,7.27 -51.64,7.27 -27.31,0 -47.21,-5.54 -59.79,-16.62 -12.58,-11.14 -18.82,-28.44 -18.82,-51.94 0,-23.89 4.62,-44.48 13.86,-61.86 9.23,-17.37 22.61,-30.18 40.21,-38.49 17.61,-8.37 38.67,-12.52 63.26,-12.52 14.88,0 27.29,1.79 37.33,5.31 10.05,3.57 17.78,8.6 23.21,15.12 5.36,6.52 8.06,14.14 8.06,22.79zm-66.76 9.76c0,-3.13 -1.1,-5.89 -3.29,-8.26 -2.19,-2.36 -5.37,-3.52 -9.58,-3.52 -14.66,0 -25.51,10.73 -32.6,32.2 16.1,-0.45 27.7,-2.31 34.79,-5.54 7.17,-3.29 10.68,-8.25 10.68,-14.88zm-6.57 65.83c0,-3.98 -1.68,-7.26 -4.91,-9.92 -3.29,-2.65 -7.8,-3.98 -13.57,-3.98 -5.36,0 -10.44,0.29 -15.12,0.92 -4.67,0.64 -8.76,1.1 -12.22,1.45 -0.93,2.94 -1.39,6.34 -1.39,10.15 0,6.7 1.79,11.72 5.36,15.01 3.52,3.34 8.49,5.02 14.78,5.02 7.68,0 14.08,-1.79 19.27,-5.43 5.19,-3.63 7.8,-8.02 7.8,-13.22zm256 -27.74l32.95 86.2 -78.66 0 -25.33 -85.51 -0.7 0 -18.23 85.51 -72.02 0 36.99 -173.12 72.02 0 -17.37 81.31 0.81 0 57.36 -81.31 83.16 0 -70.98 86.92zm80.28 167.57c-15.11,0 -28.39,-2.3 -39.87,-6.92l11.83 -52.98c5.82,4.85 13.55,7.28 23.14,7.28 13.5,0 23.54,-5.43 30.06,-16.22l8.66 -14.2 -35.31 -171.45 75.53 0 6.93 83.51c0.69,7.78 1.03,16.1 1.03,24.87l-0.34 6.57 0.69 0c1.67,-4.96 3.75,-10.5 6.18,-16.61 2.42,-6.17 16.27,-38.96 41.66,-98.34l74.03 0 -100.4 178.04c-11.94,21.11 -22.74,36.63 -32.31,46.61 -9.59,9.99 -20.14,17.43 -31.69,22.4 -11.54,4.96 -24.8,7.44 -39.82,7.44zm361.8 -198.74c-7.45,-4.85 -17.38,-7.28 -29.79,-7.28 -13.03,0 -24.12,4.68 -33.18,14.03 -9.12,9.4 -13.62,20.95 -13.62,34.74 0,18.3 9.59,27.41 28.74,27.41 5.42,0 11.43,-0.81 18.06,-2.42 6.64,-1.67 12.65,-3.92 17.95,-6.87l-9.99 49.11c-8.13,4.27 -16.96,7.44 -26.6,9.59 -9.63,2.12 -18.93,3.22 -27.81,3.22 -22.45,0 -40.05,-6.35 -52.86,-18.99 -12.81,-12.69 -19.16,-30.12 -19.16,-52.28 0,-20.19 4.85,-38.77 14.6,-55.75 9.75,-17.02 23.31,-30.35 40.68,-39.98 17.32,-9.64 36.88,-14.43 58.64,-14.43 18.52,0 33.82,3.06 45.99,9.11l-11.65 50.79zm215.89 117.37l-71.33 0c0,-3.62 0.87,-13.9 2.54,-30.81l-0.69 0c-17.13,23.32 -36.41,34.97 -57.83,34.97 -17.01,0 -30.17,-5.89 -39.47,-17.72 -9.29,-11.83 -13.9,-28.44 -13.9,-49.86 0,-15.28 2.94,-30.41 8.83,-45.24 5.94,-14.89 14.14,-27.29 24.53,-37.21 10.44,-9.88 23.25,-17.61 38.37,-23.14 15.18,-5.49 32.66,-8.26 52.52,-8.26 27.17,0 55.69,3.52 85.52,10.5l-22.45 105.95c-1.85,7.97 -3.35,18.13 -4.67,30.42 -1.28,12.28 -1.97,22.39 -1.97,30.4zm-50.2 -130.53c-2.72,-0.69 -6.12,-1.04 -10.27,-1.04 -9.07,0 -17.14,2.61 -24.35,7.8 -7.22,5.19 -13.05,12.98 -17.56,23.36 -4.44,10.33 -6.63,20.73 -6.63,31.11 0,6.81 1.45,11.94 4.39,15.52 2.94,3.52 6.51,5.31 10.79,5.31 8.14,0 15.4,-4.61 21.81,-13.79 6.46,-9.18 11.55,-22.39 15.24,-39.53l6.58 -28.74z"/>
   <g>
    <path class="fil1" d="M3919.32 2221.6c73.18,80.66 136.53,170.34 188.43,267.16l-1720.33 0 0 1850.73c-131.5,-58.47 -251.82,-137.56 -356.82,-233.22l0 -1861.96c-48.31,-67.4 -80.95,-140.17 -107.14,-221.68 -29.1,-90.62 -52.67,-325.16 -15.98,-372.14 121.69,84.39 255.07,151.53 380.08,229.37 0.81,-13.51 -22.67,-65 -30.75,-87.61 -82.7,-231.29 -36.11,-513.73 89,-718.09 36.73,31.1 124.47,177.26 162.79,227.04 32.06,41.65 63.91,113.26 92.35,130.42 4.23,-5.74 9.18,-168.1 16.55,-204.01 37.81,-184.14 130.38,-314.58 245.24,-446.37 48.1,-55.21 65.79,-83.34 91.28,-6.02l33.75 136.59c7.13,33.9 19.25,185.84 24.16,195.25 10.39,-4.99 26.24,-29.34 27.74,-30.56 62.3,-102.8 204.47,-225.87 281.5,-296.44 31.86,-29.18 94.9,-84.52 150.99,-146.46 80.69,-89.14 128.52,-181.44 141.26,-300.81 4.61,-43.07 3.89,-71.42 6.83,-114.42 282.43,255.36 351.64,536.11 276.11,796.32 14.85,-1.29 15.64,-4.05 27.78,-10.2 15.71,-7.96 16.19,-7.25 30.29,-13.79 60.02,-27.84 104.4,-38.26 179.03,-74.99 36.29,-17.86 83.43,-35.39 115.87,-61.6l52.58 -39.92c16.54,-13.78 28.21,-31.07 53,-32.42 45.1,57.85 21.53,225.16 -0.59,303.71 -37.28,132.47 -153.47,219.08 -166.5,243.73 39.15,-2.6 90.79,-11.98 138.58,-14.74 67.25,-3.89 353.92,-11.57 397.03,-65.37 1.86,3.06 14.42,6.64 7.85,41.68 -2.58,13.72 -8.98,35.45 -13.19,49.32 -82.06,216.68 -202.12,278.01 -383.95,337.08 92.63,7.73 157.42,45.2 235.05,72.47 89.07,31.31 169.94,62.37 315.41,63.88 -191.76,257.91 -543.43,206.13 -725.32,171.38 11.18,47.27 284.52,201.95 295.08,226.53 -13.99,20.26 -77.74,43.26 -110.84,51.69 -149.48,38.09 -281.11,5.64 -424.2,-41.53zm-1517.05 -12.6l217.18 0c332.93,-798.81 884.76,-915.2 1123.01,-1052.35 -644.5,77.1 -1117.2,572.85 -1336.62,1044.6l-3.57 7.75zm772.58 0l142.82 0c120.52,-379.02 330.36,-531.02 482.47,-647.19 -230.78,60.48 -497.81,386.2 -625.29,647.19zm184.29 0l112.53 0c177.45,-235.52 336.8,-325.36 588.56,-435.68 -208.98,1.28 -551.49,266.65 -701.09,435.68z"/>
    <polygon class="fil1" points="3785.81,3872.89 3114.64,3872.89 3785.81,3207.76 "/>
    <polygon class="fil2" points="3101.18,3852.05 3101.18,3186.91 3772.35,3186.91 "/>
    <path class="fil3" d="M2637.39 2715.66l1560.22 0c40.25,127.23 62.02,262.68 62.02,403.22 0,261.5 -75.22,505.41 -205.12,711.38l0 -783.61 -1086.13 0 0 1086.13 824.96 0c-233.6,200.49 -537.28,321.66 -869.27,321.66 -98.42,0 -194.31,-10.75 -286.68,-30.95l0 -1707.83z"/>
   </g>
   <g>
    <path class="fil3" d="M5532.23 4700.11c16.86,-32.19 49.73,-49.66 86.23,-54.15 22.74,-2.79 46.1,-1.87 68.82,0.78 25.1,2.91 49.94,8.21 74.25,15.02 23.96,6.7 47.63,14.79 70.41,24.79 23.53,10.36 45.95,23.54 65.22,40.66 30.27,26.9 47.83,63.87 41.57,104.81 -0.6,3.95 -1.35,7.28 -2.49,11.1 -6.38,21.51 -18.16,40.55 -33.9,56.48 -4.59,4.66 -8.82,9.99 -12.72,15.25 -5.49,7.4 -10.32,15.5 -14.73,23.59 -2.7,4.97 -4.49,13.69 -5.53,19.88 -1.93,19.95 -4.45,39.83 -7.47,59.64 -3.11,20.29 -6.21,40.57 -9.32,60.86 -3.11,20.29 -6.21,40.58 -9.32,60.85 -2.97,19.36 -5.42,38.76 -7.38,58.25 -0.16,1.5 -0.31,2.8 -0.55,4.29l-1.79 11.67c-5.2,33.97 -10.15,67.98 -14.8,102.02 -4.55,33.28 -9.35,66.51 -14.43,99.71 -5.03,32.77 -10.36,65.49 -16.15,98.13 12.19,-10.01 24.28,-20.03 36.29,-29.93 63.5,-52.3 124.96,-107.51 185.22,-163.47 74.4,-69.08 146.4,-140.83 216.61,-214.16 65.6,-68.51 127.62,-140.41 185.48,-215.58 -0.83,-7.21 -2.01,-14.24 -3.72,-20.35 -3.19,-11.39 -6.57,-23.08 -10.71,-34.15 -4.15,-11.09 -8.08,-22.4 -11.08,-33.84 -7.51,-28.56 -2.32,-57.62 11.31,-83.41 0.4,-0.73 0.73,-1.36 1.13,-2.07 26.24,-46.4 72.29,-70.61 125.15,-70.61 27.73,0 54.67,6.02 79.87,17.59 18.09,8.3 35.17,18.71 50.1,31.81 47.2,28.54 84.38,68.55 102.78,121.61 15.52,44.75 20.75,91.37 13.58,138.25 -5.14,33.47 -15.07,65.9 -31.08,95.73l-3.5 9.3c-3.99,10.65 -10.11,26.03 -12.19,36.94l-5.33 34.78c-5.09,33.18 -10.56,66.32 -16.07,99.43 -6.97,41.83 -13.66,83.72 -20.08,125.63 -0.14,0.92 -0.27,1.69 -0.43,2.61 -6.99,37.63 -13.2,75.44 -18.99,113.28 -6.57,42.89 -14.2,85.61 -22.97,128.1 -1.64,10.39 -3.51,20.74 -5.73,31.03 -1.55,7.22 -2.9,14.49 -4.02,21.78 -3.04,19.87 -5.96,40.84 -6.6,60.95 -0.51,15.47 -0.85,30.97 -0.84,46.46 0,13.83 0.25,27.67 0.71,41.5 0.73,22.28 -0.85,44.97 -3.13,67.13 -0.16,1.42 -0.3,2.62 -0.53,4.04 -4.36,28.54 -13.64,55.85 -26.9,81.48 -12.29,23.77 -27.23,46.04 -44.96,66.1 -17.94,20.29 -38.61,37.9 -62.18,51.35 -25.03,14.27 -52.47,23.43 -81.51,23.43 -31.47,0 -60.35,-11.73 -84.95,-30.9 -21.9,-17.05 -38.94,-38.88 -51.59,-63.5 -13.62,-26.54 -20.64,-55.67 -23.1,-85.28 -2.78,-33.28 1.7,-66.45 10.95,-98.43 0.23,-0.79 0.44,-1.46 0.69,-2.25 12.67,-39.56 22.89,-81.18 32.94,-121.48 15.42,-61.82 28.19,-124.45 40,-187.04 5.1,-27.01 10.27,-53.99 14.9,-81.09 3.03,-17.73 5.97,-35.48 8.82,-53.24 -57.57,57.71 -116.07,114.51 -175.83,169.95 -51.54,47.81 -103.69,95.03 -156.8,141.08 -41.02,35.58 -82.04,71.14 -123.06,106.71 -2.09,1.83 -3.96,3.28 -6.21,4.89 -13.95,9.94 -27.45,21.42 -40.38,32.63 -19.23,16.68 -38.09,33.81 -56.65,51.2 -20.61,19.32 -40.98,38.88 -61.14,58.67 -17.81,17.5 -35.31,35.42 -51.37,53.17 -42.44,49.4 -104.29,113.25 -175.52,113.25 -82.38,0 -122.79,-72.46 -141.02,-142.54 -3.49,-11.56 -6.9,-23.2 -10.12,-34.86 -13.75,14.36 -28.56,27.76 -44.34,40.16 -21.45,18.27 -46.01,33.01 -71.26,45.37 -26.32,12.9 -53.39,24.27 -80.93,34.31 -29.67,10.82 -60.1,19.46 -91.02,25.84 -29.14,5.99 -59.14,10.04 -88.94,10.04 -57.45,0 -116.02,-16.67 -144.65,-71.26 -7.2,-13.74 -15.2,-27.04 -24.18,-39.71 -9.48,-13.37 -19.26,-26.58 -29.53,-39.37 -7.24,-9.02 -14.37,-18.21 -21.15,-27.62 -2.45,6.07 -5.18,11.84 -8.24,17.1 -13.81,25.51 -31.78,49.88 -53.61,70.89 -18.7,18 -39.2,34.17 -61.55,47.44 -20.63,12.27 -42.56,22.38 -65.63,29.16 -20.92,6.14 -42.61,10.03 -64.47,10.03 -28.44,0 -51.6,-12.69 -71.86,-29.85 -2.56,2.04 -5.26,3.97 -8.07,5.78 -15.72,10.11 -33.46,16.13 -52.03,17.23 -22.29,2.37 -44.67,3.99 -67.07,5.09 -25.03,1.2 -50.09,1.75 -75.16,1.75 -30.65,0 -61.3,-0.88 -91.9,-2.62 -29.68,-1.7 -59.4,-4.58 -88.77,-9.26 -25.22,-4.01 -50.59,-9.29 -74.95,-17.02 -28.2,-8.96 -54.99,-22.61 -74.42,-45.53 -0.97,-1.14 -1.77,-2.14 -2.67,-3.33 -10.26,-13.44 -20.73,-26.7 -31.35,-39.86 -17.95,-22.19 -32.76,-47.67 -45.61,-73.08 -16.31,-32.24 -30.18,-66.14 -42.91,-99.92 -10.63,-28.19 -19.88,-57.24 -28.23,-86.49 -1.89,0.07 -3.76,0.15 -5.65,0.23 -27.01,1.15 -54.01,2.52 -81.01,4.09 -26.99,1.58 -53.98,3.69 -80.89,6.4 -13.63,1.37 -27.24,2.99 -40.81,4.96 -48.99,59.76 -103.21,115.22 -160.73,166.78 -79.39,71.17 -171.75,129.95 -265.7,179.9 -20.6,10.96 -42.66,19.63 -65.84,23.04 -26.33,3.87 -52.63,2.09 -76.49,-10.82 -26.43,-14.32 -42.75,-38.6 -47.28,-65.61 -7.93,2.75 -15.86,5.43 -23.81,8.06 -52.99,17.59 -107.01,32.09 -161.56,44 -56.26,12.28 -113.7,19.42 -171.33,19.42 -36.11,0 -72.31,-3.3 -107.58,-11.17 -37.74,-8.42 -72.98,-23.84 -103.22,-46.33 -24.29,-17.1 -45.68,-38.23 -64.54,-61.67 5.25,36.38 -11.22,71.63 -42.5,91.76 -15.72,10.11 -33.47,16.13 -52.03,17.23 -22.3,2.37 -44.68,3.99 -67.08,5.09 -25.02,1.2 -50.08,1.75 -75.15,1.75 -30.65,0 -61.3,-0.88 -91.9,-2.62 -29.68,-1.7 -59.4,-4.58 -88.77,-9.26 -25.22,-4.01 -50.6,-9.29 -74.95,-17.02 -28.2,-8.96 -54.99,-22.61 -74.42,-45.53 -0.98,-1.14 -1.77,-2.14 -2.68,-3.33 -10.25,-13.44 -20.73,-26.7 -31.35,-39.86 -17.95,-22.19 -32.75,-47.67 -45.61,-73.08 -16.3,-32.24 -30.17,-66.14 -42.9,-99.92 -10.64,-28.19 -19.88,-57.24 -28.24,-86.49 -1.88,0.07 -3.76,0.15 -5.64,0.23 -27.01,1.15 -54.01,2.52 -81.01,4.09 -27,1.58 -53.98,3.69 -80.9,6.4 -13.62,1.37 -27.23,2.99 -40.8,4.96 -48.99,59.76 -103.21,115.22 -160.73,166.78 -79.39,71.17 -171.75,129.95 -265.7,179.9 -20.6,10.96 -42.66,19.63 -65.84,23.04 -26.33,3.87 -52.63,2.09 -76.49,-10.82 -43.23,-23.42 -59.41,-73.5 -41.21,-118.55 10.54,-26.1 31.02,-45.5 53.46,-61.54 59.67,-42.66 118.03,-90.2 168.4,-143.82 -14.01,-3 -27.81,-6.98 -41.32,-11.73 -17.64,-6.2 -34.71,-14.09 -50.5,-24.12 -16.34,-10.39 -31.35,-22.85 -43.09,-38.36 -17.04,-22.53 -23.55,-49.69 -19.3,-75.38 -80.17,91.2 -168.97,174.28 -265.12,248.58 -110.74,85.57 -232.07,155.76 -360.09,212.08 -0.84,0.38 -1.58,0.67 -2.45,1.03 -21.2,8.53 -43.43,15.1 -66.18,17.9 -26.57,3.26 -53.32,1.51 -77.67,-10.6 -43.06,-21.41 -63.34,-68.75 -49.27,-114.71 9.9,-32.36 34.37,-54.77 62.61,-71.48 55.58,-32.87 109.77,-68.18 161.87,-106.37 49.1,-35.98 96.73,-74.1 142.01,-114.8 39.14,-35.2 76.65,-72.63 110.71,-112.8 14.01,-16.52 27.74,-33.76 40.54,-51.65 -26.7,-30.47 -53.44,-60.9 -80.19,-91.33 -45.69,-51.96 -89.19,-105.88 -130.03,-161.76 -38.72,-52.99 -73.71,-109.19 -101.81,-168.56 -27.15,-57.35 -43.5,-120.46 -33.75,-184.1 4.11,-26.77 11.48,-52.85 21.92,-77.84 10.21,-24.42 23.17,-47.63 39.3,-68.63 14.66,-19.09 31.46,-36.62 50.77,-51.02 25.15,-18.78 54.43,-29.87 86,-29.87 48.9,0 88.32,27.23 112.8,67.28 12.51,19.33 18.29,45.46 22.72,68.87 4.72,25 11.49,50.19 18.35,74.7 10.43,37.23 22.71,74.14 35.59,110.61 16.06,45.46 35.82,89.86 57.44,132.93 7.24,14.42 16.84,29 25.71,42.48 13.28,20.21 27.27,39.98 41.71,59.38 7.35,9.88 14.72,19.73 22.13,29.55 17.92,-25.41 34.77,-51.59 50.45,-78.47 29.96,-51.36 58.12,-104.2 82.23,-158.56 17.86,-40.26 35.09,-82.19 47.77,-124.4 4.5,-14.96 11.73,-36.85 14.26,-52.93 -0.18,-3.94 -0.52,-7.93 -0.9,-11.85 -0.77,-7.96 -1.73,-15.91 -2.86,-23.84 -1.71,-12.04 -2.81,-24.16 -3.22,-36.3 -0.6,-17.42 1.32,-34.82 6.61,-51.46 0.94,-2.93 1.87,-5.4 3.1,-8.22 13.82,-31.46 40.6,-52.38 72.67,-63.03 22.63,-7.51 46.73,-10.08 70.48,-10.08 28.42,0 56.79,4.67 84.21,11.97 32.29,8.59 62.59,22.7 90.63,40.77 46.02,28.26 72.57,75.22 64.23,129.79 -3.16,20.57 -10.2,40.13 -20.78,58.06 -3.19,5.41 -6.39,10.84 -9.48,16.33 -53.34,122.9 -113.63,242.76 -181.18,358.48 -54.53,93.37 -115.33,182.89 -182.25,267.72 9.59,-5.28 19.52,-9.97 29.31,-14.23 46.75,-20.29 107.86,-23.56 158.27,-23.56 15.89,0 31.82,-0.33 47.7,-0.8 12.14,-0.36 24.8,-1.49 37.44,-2.98 44.77,-77.41 87.74,-156.27 126.54,-236.73 32.8,-68.04 64.7,-137.49 91.83,-208.01 16.83,-43.76 34.07,-89.94 45.91,-135.34 3.37,-12.94 8.34,-30.08 10.95,-44.65 -3.06,-9.15 -5.72,-18.43 -8.03,-27.79 -2.88,-11.68 -5.03,-23.54 -6.39,-35.5 -2.2,-19.31 -0.73,-38.74 5.2,-57.3 0.94,-2.91 1.87,-5.36 3.09,-8.16 17.01,-38.64 53.25,-57.15 92.26,-66 28.15,-6.39 57.32,-8.74 86.13,-8.74 28.14,0 56.19,2.88 83.81,8.15 31.79,6.09 62.18,17.15 89.88,33.97 0.48,0.31 0.9,0.56 1.39,0.88 27.42,17.42 53.49,39.07 66.75,69.57 12.99,29.89 14.17,63.24 0.41,93.08 -7.16,15.51 -17.08,29.31 -29.4,40.95 -3.01,7.14 -6.34,14.11 -9.47,20.7 -9.3,19.61 -18.96,39.06 -28.72,58.44 -11.41,22.64 -22.38,45.51 -33.05,68.51 -6.99,15.04 -14,30.09 -21.02,45.11 4.38,22.4 9.13,44.74 14.03,67.02 8.35,37.99 17.31,75.85 26.72,113.6 9.34,37.4 19.62,74.57 31.03,111.41 2.88,9.31 5.83,18.63 8.9,27.93 19.15,-2.52 38.29,-5.22 57.4,-8.08 20.25,-3.05 40.49,-6.28 60.68,-9.75 13.03,-2.24 26.45,-4.97 38.28,-8.71 27.9,-9.46 58.16,-12.55 88.02,-6.85 22.27,4.24 43.74,11.6 63.87,22.03 5.91,3.05 11.7,6.32 17.36,9.79 0,-102.17 13.01,-206.82 30.29,-306.85 9.5,-54.97 27.35,-107.69 52.43,-157.5 25.37,-50.36 58.18,-95.93 98.11,-135.72 40.51,-40.38 87.11,-73.39 138.01,-99.38 55.89,-28.55 116.5,-45.58 178.52,-54.18 76.91,-10.66 154.5,-15.78 232.14,-15.78 79.27,0 158.88,6.31 236.67,21.91 68.61,13.75 137.91,37.12 195.39,77.93 1.29,0.92 2.36,1.72 3.6,2.7 43.68,34.72 79.8,82.49 70.73,141.7 -5.06,32.99 -21.56,61.59 -45.6,84.41 -15.38,14.62 -31.98,27.93 -49.3,40.15 -14.04,9.93 -27.87,20.11 -41.51,30.58 -3.88,2.96 -7.68,6.54 -10.21,10.78 -6.58,13.49 -13.21,26.94 -19.9,40.36 -7.35,14.72 -15.02,29.28 -23.08,43.63 -8,14.25 -16.84,28.28 -27.04,41.08 -20.26,25.44 -47.42,43.07 -81.09,43.07 -45.73,0 -80.57,-33.28 -88.49,-77.25 -2.66,-14.76 -2.41,-30.03 -1.05,-44.97 0.18,-27.79 4.82,-55.45 13.18,-81.94 4.99,-15.82 8.92,-32 11.43,-48.41 0.85,-5.56 1.12,-11.24 0.24,-16.79 -2.92,-2.66 -7.33,-5.61 -9.85,-7.22 -1.31,-0.83 -2.4,-1.58 -3.68,-2.48 -8.11,-5.85 -18.71,-8.98 -28.42,-10.74 -20.81,-3.8 -42.09,-5.32 -63.22,-5.32 -40.04,0 -80.08,3.18 -119.48,10.33 -28.28,5.14 -58.6,10.46 -86.26,18.24 -2.06,0.58 -3.82,1.01 -5.91,1.44 -17.04,3.47 -34.29,10.77 -49.75,18.58 -19.9,10.05 -37.8,23.98 -53.8,39.44 -20.73,20.06 -38.11,43.9 -52.85,68.63 -17.55,29.46 -28.81,62.77 -36.25,96.11 -9.3,41.68 -17.65,83.73 -24.11,125.94 -7.44,48.54 -12.83,98.18 -13.41,147.32 -0.47,41.72 1.86,83.4 6.93,124.81 4.76,39.01 13.02,82.85 29.84,118.64 10.27,21.85 24.32,46.07 42.49,62.37 17.47,15.67 37.08,27.18 59.55,33.91 26.49,7.91 53.78,11.51 81.4,11.51 33.6,0 66.98,-3.99 99.74,-11.33 34.5,-7.72 68.7,-17.18 102.06,-28.95 28.89,-10.19 57.66,-21.26 85.56,-33.95 18.8,-8.56 37.62,-17.12 56.38,-25.8 -5.71,-5.36 -11.01,-11.15 -15.79,-17.44 -26.75,-35.38 -27.56,-82.19 -1.48,-116.8 19.39,-27.43 51.81,-45.37 83.09,-58.96 46.74,-20.29 107.85,-23.56 158.26,-23.56 15.9,0 31.82,-0.33 47.7,-0.8 12.14,-0.36 24.81,-1.49 37.45,-2.98 44.76,-77.41 87.74,-156.27 126.54,-236.73 32.79,-68.04 64.69,-137.49 91.83,-208.01 16.83,-43.76 34.07,-89.94 45.9,-135.34 3.37,-12.94 8.34,-30.08 10.96,-44.65 -3.07,-9.15 -5.73,-18.43 -8.04,-27.79 -2.88,-11.68 -5.03,-23.54 -6.38,-35.5 -2.21,-19.31 -0.74,-38.74 5.2,-57.3 0.93,-2.91 1.86,-5.36 3.09,-8.16 17,-38.64 53.25,-57.15 92.25,-66 28.15,-6.39 57.32,-8.74 86.13,-8.74 28.14,0 56.19,2.88 83.81,8.15 31.79,6.09 62.18,17.15 89.88,33.97 0.48,0.31 0.9,0.56 1.39,0.88 27.42,17.42 53.49,39.07 66.76,69.57 12.98,29.89 14.16,63.24 0.4,93.08 -7.16,15.51 -17.08,29.31 -29.4,40.95 -3.01,7.14 -6.34,14.11 -9.47,20.7 -9.3,19.61 -18.95,39.06 -28.72,58.44 -11.4,22.64 -22.37,45.51 -33.05,68.51 -6.99,15.04 -14,30.09 -21.02,45.11 4.38,22.4 9.13,44.74 14.03,67.02 8.35,37.99 17.31,75.85 26.72,113.6 9.34,37.4 19.62,74.57 31.03,111.41 2.88,9.31 5.83,18.63 8.9,27.93 19.15,-2.52 38.29,-5.22 57.4,-8.08 20.25,-3.05 40.49,-6.28 60.68,-9.75 13.03,-2.24 26.46,-4.97 38.28,-8.71 27.9,-9.46 58.16,-12.55 88.02,-6.85 22.27,4.24 43.74,11.6 63.88,22.03 18.21,9.43 35.32,20.84 50.85,34.24 10.93,9.42 21.63,19.19 31.8,29.46 19.24,19.44 32.16,43.51 37.02,70.45 6.19,34.33 -3.01,68.12 -25.1,95.07 -20.01,24.42 -47.98,38.68 -77.85,47.25 -31.28,8.97 -66.14,10.16 -98.49,9.01 -0.8,-0.03 -1.49,-0.06 -2.29,-0.11 -15.09,-0.96 -30.21,-1.51 -45.33,-1.51 -15.28,0 -30.57,0 -45.86,0 -4.87,0 -9.72,0.01 -14.59,0.02 14.39,20.33 30.29,40 48,57.34 18.41,18.02 38.17,34.71 59.36,49.36 17.43,12.05 35.6,22.95 54.45,32.62 -2.25,-11.36 -2.81,-23.06 -0.97,-35.1 6.15,-40.1 36.58,-69.82 76.07,-77.45 14.11,-2.74 28.58,-3.09 42.88,-2.19 10.94,0.69 21.86,1.67 32.76,2.77 8.21,0.82 16.46,1.24 24.7,1.24 2.79,0 7.89,-0.12 12.04,-0.74 1.2,-2.25 2.3,-4.69 3.07,-6.41 9.27,-20.97 16.09,-44.17 21.83,-66.34 8.64,-33.48 15.67,-67.49 21.83,-101.53 2.73,-15.07 5.44,-30.14 8.14,-45.22 -20.47,-9.53 -39.71,-21.6 -56.43,-36.86 -17.26,-15.74 -31.64,-34.25 -41,-55.76 -15.36,-35.26 -13.63,-74.55 9.91,-105.81 3.75,-5 7.41,-8.91 12.14,-12.97 23.88,-20.6 56.75,-24.04 86.75,-27.87 9.3,-1.2 18.6,-2.32 27.92,-3.41l16.97 -110.82 9.42 -71.89c0.49,-6.53 1,-13.05 1.52,-19.58 -26.82,3.92 -53.97,6.35 -81.01,6.35 -37.22,0 -75.93,-5.73 -106.12,-29.29 -34.14,-26.65 -63.87,-60.86 -67.78,-105.93 -2.79,-32.06 0.75,-62.98 23.09,-87.16 18.06,-20.38 42.42,-27.96 68.8,-34.31 22.19,-5.34 44.88,-9.37 67.41,-12.96 27.2,-4.32 54.47,-8.2 81.77,-11.81 -2.56,-27.03 1.71,-53.7 19.19,-76.93 30.63,-40.66 78.74,-41.84 123.76,-33.43 30.67,5.75 60.82,14.62 90.09,25.38 29.95,11 59.19,24.17 86.93,39.93 9.87,5.61 19.52,11.77 28.5,18.63 17.52,-2.13 35.04,-4.26 52.56,-6.38 36.06,-4.36 72.11,-8.79 108.14,-13.3 32.74,-4.08 65.48,-8.19 98.2,-12.45 20.89,-2.72 41.96,-5.42 62.75,-8.79 1.78,-0.3 3.33,-0.49 5.14,-0.67 10.33,-1.02 20.64,-2.5 30.88,-4.23 2.32,-0.4 4.64,-0.79 6.96,-1.18 1.82,-2.38 3.68,-4.73 5.56,-7.06 20.2,-24.63 47.07,-41.75 79.48,-42.9 31.92,-1.72 63.65,5.75 93.3,17.17 25.65,9.87 50.09,22.63 72.58,38.38zm1.5 259.67c-7.93,2.23 -16.14,3.86 -24.55,4.89 -12.6,6.61 -25.01,13.53 -37.26,20.72 -17.26,10.16 -33.4,23.03 -48.03,36.66 -35.35,32.96 -77.37,69.61 -120.35,92.08 -16.86,8.81 -35.07,16.99 -53.87,20.41 -53.04,9.67 -103.37,-23.56 -108.72,-78.64 -0.69,-7.26 -0.52,-13.54 0.6,-20.75 2.18,-14.17 7.41,-28.48 12.62,-41.8 3.58,-9.15 7.29,-18.24 11.09,-27.31 -25.43,1.54 -50.83,3.6 -76.15,6.22 -32.41,3.35 -64.75,7.43 -97,12.1 -25.05,3.61 -50.1,7.29 -75.12,11.01 -1.25,2.71 -2.48,5.42 -3.69,8.12 -6.76,15.1 -10.54,34.06 -13.03,50.31 -1.74,11.37 -3.85,22.7 -6.14,33.98 -2.42,11.93 -4.41,24.01 -6.25,36.04 -3.97,25.92 -7.26,51.99 -10.34,78.03 -0.48,4.07 -0.96,8.11 -1.43,12.17 20.51,-2.51 41,-5.28 61.43,-8.37 28.32,-4.27 56.69,-8.29 85.08,-11.92 19.09,-2.44 38.15,-5.09 57.17,-8.03 30.99,-4.82 61.94,-9.85 92.79,-15.47 33.95,-6.19 68.23,-10.91 102.62,-13.61 28.31,-2.21 58.22,3.63 85.49,10.87 29.42,7.81 58.21,17.82 86.13,29.92 20.53,8.9 40.86,18.83 60.2,30.25 5.6,-49.78 10.8,-99.59 15.61,-149.45 3.83,-39.46 7.47,-78.95 11.1,-118.43zm-3366.76 704.18c-7.69,3.24 -15.64,5.98 -23.73,8.3 -31.28,8.97 -66.14,10.16 -98.49,9.01 -0.81,-0.03 -1.49,-0.06 -2.29,-0.11 -15.09,-0.96 -30.21,-1.51 -45.33,-1.51 -15.29,0 -30.57,0 -45.86,0 -4.87,0 -9.72,0.01 -14.59,0.02 14.39,20.33 30.28,40 48,57.34 18.4,18.02 38.17,34.71 59.36,49.36 20.58,14.23 42.21,26.84 64.72,37.76 26.08,12.62 52.54,24.45 78.36,35.26 19.16,7.48 39.97,16.91 57.41,29.86 -0.32,-0.59 -0.64,-1.18 -0.95,-1.78 -33.75,-62.99 -56.73,-131.83 -72.05,-201.49 -1.61,-7.31 -3.13,-14.66 -4.56,-22.02zm2629.54 80.9c16.29,-3.77 33.95,-3.49 51.41,0.31 13.81,3 27.6,6.29 41.34,9.62 16.83,4.06 33.82,7.55 50.82,10.78 17.33,3.28 34.9,5.26 51.81,6.11 18.6,0.6 38.41,-1.57 56.34,-9.23 17.03,-7.26 32.13,-17.23 45.16,-30.37 15.34,-15.49 28.23,-32.96 38.84,-51.99 11.94,-21.4 22.39,-43.67 30.67,-66.76 5.64,-15.78 10.35,-31.98 14.63,-48.17 4.32,-16.38 7.92,-32.97 10.47,-49.72 2.89,-18.86 4.27,-38.49 2.64,-57.63 -2.98,-0.51 -5.94,-0.85 -8.59,-1.1 -16.98,-1.57 -34.09,-2.15 -51.14,-2.15 -21.3,0 -42.6,0.84 -63.84,2.31 -22.35,1.54 -44.66,3.61 -66.89,6.28 -21.41,2.56 -42.8,5.25 -64.16,8.16 -16.34,2.23 -32.69,4.49 -49.01,6.92l-48.39 10.57 -16.88 110.22c-4.17,27.21 -8.68,54.37 -13.33,81.5 -3.69,21.49 -7.65,42.94 -11.9,64.34zm-3267.05 -299.03c1.24,-0.13 2.49,-0.26 3.73,-0.39 -0.26,-1.53 -0.52,-3.04 -0.77,-4.56 -0.99,1.65 -1.97,3.3 -2.96,4.95zm2174.01 0c1.25,-0.13 2.49,-0.26 3.73,-0.39 -0.26,-1.53 -0.52,-3.04 -0.77,-4.56 -0.99,1.65 -1.97,3.3 -2.96,4.95z"/>
    <g>
     <path class="fil4" d="M625.83 5493.04c-35.93,-41.13 -76.39,-87.26 -121.35,-138.38 -44.96,-51.14 -86.75,-103.1 -125.34,-155.9 -38.59,-52.8 -69.85,-104.5 -93.78,-155.07 -23.94,-50.57 -32.84,-95.87 -26.7,-135.88 3.06,-20 8.54,-39.46 16.44,-58.36 7.89,-18.89 17.4,-35.57 28.5,-50.02 11.11,-14.45 22.62,-26.11 34.55,-35.01 11.92,-8.9 24,-13.34 36.22,-13.34 16.68,0 30.78,9.45 42.34,28.34 3.59,5.56 7.39,18.91 11.39,40.02 3.98,21.11 10.65,48.36 19.99,81.7 9.34,33.35 21.75,71.97 37.26,115.87 15.51,43.91 36.02,91.44 61.53,142.56 6.85,13.34 17.03,30.29 30.55,50.86 13.52,20.56 28.35,41.68 44.49,63.35 16.12,21.68 32.06,42.79 47.8,63.36 15.75,20.56 29.84,37.52 42.24,50.86 46.13,-54.47 86.54,-111.44 121.21,-170.9 34.7,-59.47 63.48,-115.05 86.42,-166.74 22.91,-51.67 40.05,-96.43 51.4,-134.21 11.35,-37.8 17.32,-62.25 17.91,-73.36 -0.08,-6.68 -0.56,-14.46 -1.42,-23.35 -0.86,-8.89 -1.95,-18.06 -3.3,-27.52 -1.33,-9.44 -2.14,-18.6 -2.45,-27.5 -0.31,-8.9 0.63,-16.68 2.74,-23.35 3.41,-7.77 10.98,-13.6 22.7,-17.5 11.71,-3.89 26.47,-5.84 44.24,-5.84 18.9,0 39.83,3.06 62.8,9.17 22.96,6.12 45.54,16.4 67.79,30.85 20.35,12.22 29.09,27.79 26.2,46.68 -1.53,10.02 -4.93,19.46 -10.17,28.34 -5.26,8.9 -9.43,16.13 -12.51,21.69 -53.36,123.37 -112.81,241.2 -178.36,353.46 -65.56,112.27 -139.41,217.04 -221.56,314.3 -82.15,97.25 -174.29,185.35 -276.41,264.27 -102.13,78.91 -216.37,146.17 -342.71,201.75 -16.58,6.67 -31.67,10.83 -45.26,12.5 -13.6,1.67 -23.77,0.83 -30.47,-2.5 -6.71,-3.33 -8.96,-8.62 -6.74,-15.84 2.21,-7.23 10.68,-15.28 25.38,-24.18 58.63,-34.46 114.87,-71.42 168.72,-110.88 53.84,-39.45 103.31,-79.47 148.45,-120.04 45.11,-40.57 84.62,-80.86 118.55,-120.88 33.92,-40.02 60.84,-77.82 80.72,-113.38zm1530.1 443.51c19.91,7.78 33.82,15 41.69,21.67 7.87,6.67 12.31,12.23 13.28,16.68 0.99,4.44 -0.68,8.05 -4.99,10.83 -4.32,2.77 -8.7,4.18 -13.15,4.18 -20.34,2.22 -41.99,3.89 -64.94,5 -22.97,1.11 -46.68,1.66 -71.13,1.66 -28.9,0 -57.95,-0.83 -87.15,-2.49 -29.19,-1.68 -56,-4.46 -80.42,-8.35 -24.42,-3.89 -45.36,-8.61 -62.85,-14.17 -17.5,-5.55 -29.53,-12.23 -36.13,-20.01 -10.18,-13.34 -21.11,-27.22 -32.78,-41.68 -11.69,-14.45 -23.71,-33.9 -36.09,-58.35 -12.37,-24.45 -25.46,-55.03 -39.29,-91.71 -13.83,-36.68 -28,-83.92 -42.48,-141.72 -22.23,0 -46.49,0.55 -72.79,1.67 -26.29,1.11 -53.74,2.5 -82.34,4.16 -28.6,1.68 -56.72,3.89 -84.38,6.67 -27.66,2.79 -53.5,6.4 -77.53,10.84 -48.45,62.25 -105.52,122.83 -171.23,181.74 -65.72,58.91 -148.78,115.04 -249.22,168.4 -14.53,7.78 -27.49,12.5 -38.86,14.17 -11.36,1.67 -19.62,1.11 -24.75,-1.67 -5.13,-2.78 -6.36,-7.5 -3.68,-14.16 2.71,-6.68 10.92,-15.01 24.69,-25.02 74.86,-53.35 137.31,-107.26 187.33,-161.72 50.04,-54.47 90.86,-105.05 122.47,-151.73 -18.13,2.22 -29.27,4.16 -33.41,5.83 -4.15,1.67 -11.95,3.61 -23.4,5.83 -29.76,5.57 -52.55,9.18 -68.36,10.85 -15.82,1.66 -29.66,1.39 -41.55,-0.84 -11.89,-2.22 -24.16,-5.55 -36.81,-10.01 -12.67,-4.44 -23.81,-9.72 -33.44,-15.83 -9.62,-6.12 -16.73,-12.23 -21.36,-18.34 -4.63,-6.11 -4.83,-11.95 -0.65,-17.51 7.09,-10 23.44,-20.57 49.03,-31.68 25.61,-11.12 67.31,-16.67 125.11,-16.67 14.45,0 31.16,-0.28 50.14,-0.84 18.98,-0.55 47.8,-3.61 86.44,-9.16 60.13,-102.27 110.16,-194.81 150.07,-277.61 39.94,-82.82 71.44,-154.23 94.54,-214.26 23.08,-60.02 39.35,-108.1 48.77,-144.22 9.42,-36.13 14.34,-59.2 14.76,-69.19 -0.26,-5.56 -1.73,-12.24 -4.43,-20.01 -2.7,-7.78 -5.08,-15.85 -7.14,-24.18 -2.05,-8.33 -3.55,-16.68 -4.51,-25.01 -0.94,-8.33 -0.34,-15.84 1.79,-22.5 3.43,-7.78 14.92,-13.91 34.5,-18.35 19.56,-4.44 42.14,-6.67 67.7,-6.67 22.24,0 44.95,2.23 68.17,6.67 23.22,4.44 43.98,12.23 62.28,23.35 19.26,12.23 30.93,23.06 35.04,32.5 4.12,9.46 4.51,17.79 1.17,25.02 -3.32,7.23 -8.15,13.33 -14.48,18.33 -6.33,5.01 -10.38,9.74 -12.17,14.18 -0.51,3.34 -4.47,12.79 -11.85,28.34 -7.38,15.57 -16.66,34.46 -27.86,56.69 -11.18,22.24 -22.59,45.86 -34.2,70.87 -11.62,25.01 -22.36,48.07 -32.27,69.19 4.81,26.67 11.3,58.63 19.48,95.87 8.19,37.24 17.29,75.86 27.26,115.87 9.99,40.03 20.75,78.65 32.28,115.89 11.53,37.24 22.55,68.63 33.09,94.2 18.11,-2.22 37.95,-4.72 59.5,-7.5 21.55,-2.78 43.4,-5.84 65.59,-9.17 22.19,-3.34 42.98,-6.67 62.4,-10.01 19.4,-3.33 36.11,-7.22 50.13,-11.66 16.42,-5.57 31.92,-6.95 46.5,-4.18 14.57,2.78 28.3,7.51 41.17,14.18 12.88,6.66 24.46,14.45 34.77,23.34 10.31,8.89 19.32,17.23 27.02,25.01 7.69,7.78 12.44,16.68 14.25,26.67 1.8,10.01 -0.71,19.18 -7.55,27.52 -6.83,8.34 -18.96,15 -36.42,20.01 -17.42,4.99 -41.62,6.93 -72.58,5.84 -17.61,-1.11 -34.48,-1.68 -50.59,-1.68 -16.12,0 -31.4,0 -45.86,0 -35.57,0 -66.22,0.57 -91.96,1.68 -25.73,1.09 -47.11,2.78 -64.12,4.99 5.73,13.34 10.95,24.73 15.6,34.18 4.67,9.46 9.41,18.34 14.26,26.69 4.84,8.33 9.99,16.38 15.47,24.16 5.47,7.79 11.89,16.68 19.26,26.68 21.74,32.23 43.96,59.47 66.68,81.7 22.7,22.23 46.13,41.69 70.25,58.36 24.12,16.67 49.38,31.4 75.76,44.18 26.38,12.79 54.2,25.3 83.46,37.52zm-781.46 -395.16c14.45,0 32.09,-0.83 52.9,-2.5 20.83,-1.67 43.07,-3.61 66.76,-5.83 23.68,-2.22 47.41,-4.72 71.16,-7.51 23.79,-2.78 45.92,-5.83 66.45,-9.17 -3.52,-13.34 -7.78,-34.46 -12.8,-63.35 -5.03,-28.9 -10.07,-59.47 -15.14,-91.71 -5.06,-32.24 -9.74,-63.36 -14.03,-93.37 -4.3,-30.01 -7.94,-53.36 -10.95,-70.03 -4.87,10 -15.18,28.34 -30.94,55.02 -15.76,26.68 -33.69,56.7 -53.81,90.04 -20.11,33.35 -40.67,67.8 -61.69,103.38 -21.01,35.56 -40.32,67.24 -57.91,95.03zm1701.26 -445.17c-0.26,-20.01 2.84,-40.29 9.32,-60.86 6.49,-20.56 11.27,-40.85 14.33,-60.86 3.07,-20 2.07,-38.9 -2.98,-56.69 -5.06,-17.78 -19.73,-34.46 -44.02,-50.01 -17.03,-12.23 -37.7,-20.57 -62.03,-25.01 -24.32,-4.45 -50.4,-6.68 -78.18,-6.68 -46.69,0 -91.46,3.9 -134.34,11.68 -42.87,7.78 -74.18,14.45 -93.93,20.01 -21.8,4.44 -45.34,13.05 -70.66,25.84 -25.29,12.77 -49.97,30.57 -74.13,53.9 -24.12,23.35 -46.3,51.98 -66.5,85.87 -20.19,33.91 -35.49,73.92 -45.98,120.61 -10.82,48.91 -19.23,92.81 -25.15,131.44 -9.02,58.9 -13.81,111.99 -14.35,158.95 -0.56,47.24 1.94,92.54 7.52,135.89 6.76,57.52 19.11,105.59 37.14,143.94 18.03,38.35 38.8,67.8 62.25,88.93 27.37,24.45 57.79,41.68 91.28,51.68 33.48,10.01 68.56,15.01 105.24,15.01 38.91,0 78.21,-4.44 117.93,-13.34 39.7,-8.89 76.89,-19.45 111.56,-31.68 34.66,-12.23 65.43,-24.45 92.32,-36.68 26.89,-12.22 47.5,-21.67 61.86,-28.34 7.19,-3.34 13.7,-4.17 19.56,-2.51 5.86,1.67 11.57,2.51 17.12,2.51 16.68,0 24.49,8.88 23.43,26.67 -1.05,17.79 -18.14,36.68 -51.2,56.69 -15.82,8.89 -42.22,21.68 -79.24,38.35 -37.02,16.68 -79.83,33.07 -128.42,49.19 -48.6,16.12 -99.63,30.01 -153.11,41.68 -53.48,11.68 -104.67,17.51 -153.58,17.51 -32.23,0 -62.05,-3.06 -89.46,-9.17 -27.41,-6.12 -51.59,-16.95 -72.55,-32.52 -33.1,-23.34 -63.05,-60.02 -89.84,-110.05 -26.8,-50.01 -48.16,-110.03 -64.12,-180.06 -14.84,-70.02 -23.3,-148.95 -25.41,-236.77 -2.1,-87.81 7.49,-193.96 28.77,-318.45 8.28,-46.69 23.19,-91.43 44.75,-134.21 21.56,-42.81 49.07,-80.88 82.53,-114.22 33.45,-33.35 72.49,-61.41 117.11,-84.2 44.62,-22.79 95.32,-38.08 152.08,-45.86 71.55,-10 145.13,-15 220.72,-15 78.91,0 152.37,6.67 220.31,20.29 67.94,13.62 122.46,35.01 163.56,64.19 29.73,23.62 43.13,45.02 40.24,63.92 -2.05,13.33 -8.93,25.56 -20.63,36.67 -11.71,11.12 -25.05,21.95 -40,32.52 -14.96,10.55 -29.67,21.4 -44.17,32.51 -14.48,11.12 -25.61,23.9 -33.38,38.35 -6.49,13.33 -13.35,27.23 -20.55,41.68 -7.22,14.45 -14.28,27.79 -21.15,40.01 -6.87,12.24 -13.41,22.23 -19.6,30.02 -6.19,7.78 -11.52,11.67 -15.97,11.67 -6.66,0 -8.76,-11.67 -6.3,-35.01zm1254.21 840.33c19.91,7.78 33.82,15 41.69,21.67 7.87,6.67 12.31,12.23 13.29,16.68 0.99,4.44 -0.68,8.05 -4.99,10.83 -4.32,2.77 -8.71,4.18 -13.16,4.18 -20.34,2.22 -41.99,3.89 -64.94,5 -22.96,1.11 -46.68,1.66 -71.13,1.66 -28.9,0 -57.95,-0.83 -87.15,-2.49 -29.18,-1.68 -56,-4.46 -80.42,-8.35 -24.41,-3.89 -45.36,-8.61 -62.85,-14.17 -17.49,-5.55 -29.53,-12.23 -36.13,-20.01 -10.17,-13.34 -21.1,-27.22 -32.78,-41.68 -11.68,-14.45 -23.71,-33.9 -36.08,-58.35 -12.38,-24.45 -25.47,-55.03 -39.3,-91.71 -13.83,-36.68 -28,-83.92 -42.48,-141.72 -22.23,0 -46.49,0.55 -72.79,1.67 -26.29,1.11 -53.74,2.5 -82.33,4.16 -28.61,1.68 -56.73,3.89 -84.39,6.67 -27.66,2.79 -53.5,6.4 -77.53,10.84 -48.44,62.25 -105.52,122.83 -171.23,181.74 -65.72,58.91 -148.78,115.04 -249.21,168.4 -14.54,7.78 -27.49,12.5 -38.87,14.17 -11.36,1.67 -19.62,1.11 -24.75,-1.67 -5.13,-2.78 -6.36,-7.5 -3.67,-14.16 2.7,-6.68 10.91,-15.01 24.69,-25.02 74.86,-53.35 137.3,-107.26 187.33,-161.72 50.03,-54.47 90.85,-105.05 122.46,-151.73 -18.13,2.22 -29.27,4.16 -33.41,5.83 -4.15,1.67 -11.95,3.61 -23.4,5.83 -29.76,5.57 -52.55,9.18 -68.36,10.85 -15.82,1.66 -29.66,1.39 -41.55,-0.84 -11.89,-2.22 -24.16,-5.55 -36.81,-10.01 -12.67,-4.44 -23.81,-9.72 -33.44,-15.83 -9.61,-6.12 -16.73,-12.23 -21.36,-18.34 -4.62,-6.11 -4.83,-11.95 -0.65,-17.51 7.09,-10 23.44,-20.57 49.04,-31.68 25.6,-11.12 67.31,-16.67 125.1,-16.67 14.45,0 31.17,-0.28 50.14,-0.84 18.98,-0.55 47.81,-3.61 86.45,-9.16 60.12,-102.27 110.15,-194.81 150.06,-277.61 39.94,-82.82 71.44,-154.23 94.54,-214.26 23.09,-60.02 39.35,-108.1 48.78,-144.22 9.41,-36.13 14.33,-59.2 14.75,-69.19 -0.26,-5.56 -1.73,-12.24 -4.43,-20.01 -2.7,-7.78 -5.08,-15.85 -7.14,-24.18 -2.05,-8.33 -3.55,-16.68 -4.51,-25.01 -0.94,-8.33 -0.33,-15.84 1.79,-22.5 3.43,-7.78 14.92,-13.91 34.5,-18.35 19.57,-4.44 42.14,-6.67 67.7,-6.67 22.24,0 44.96,2.23 68.18,6.67 23.22,4.44 43.97,12.23 62.28,23.35 19.25,12.23 30.93,23.06 35.04,32.5 4.11,9.46 4.5,17.79 1.17,25.02 -3.33,7.23 -8.15,13.33 -14.49,18.33 -6.32,5.01 -10.37,9.74 -12.17,14.18 -0.51,3.34 -4.47,12.79 -11.85,28.34 -7.38,15.57 -16.66,34.46 -27.86,56.69 -11.18,22.24 -22.59,45.86 -34.2,70.87 -11.62,25.01 -22.36,48.07 -32.27,69.19 4.81,26.67 11.3,58.63 19.49,95.87 8.18,37.24 17.28,75.86 27.26,115.87 9.99,40.03 20.74,78.65 32.27,115.89 11.53,37.24 22.55,68.63 33.09,94.2 18.11,-2.22 37.96,-4.72 59.5,-7.5 21.55,-2.78 43.41,-5.84 65.59,-9.17 22.19,-3.34 42.98,-6.67 62.4,-10.01 19.41,-3.33 36.12,-7.22 50.13,-11.66 16.42,-5.57 31.92,-6.95 46.5,-4.18 14.58,2.78 28.3,7.51 41.17,14.18 12.88,6.66 24.47,14.45 34.77,23.34 10.31,8.89 19.32,17.23 27.02,25.01 7.7,7.78 12.44,16.68 14.25,26.67 1.8,10.01 -0.71,19.18 -7.55,27.52 -6.83,8.34 -18.96,15 -36.42,20.01 -17.42,4.99 -41.62,6.93 -72.58,5.84 -17.61,-1.11 -34.47,-1.68 -50.59,-1.68 -16.11,0 -31.4,0 -45.86,0 -35.56,0 -66.22,0.57 -91.95,1.68 -25.74,1.09 -47.12,2.78 -64.13,4.99 5.73,13.34 10.95,24.73 15.6,34.18 4.67,9.46 9.41,18.34 14.26,26.69 4.84,8.33 9.99,16.38 15.48,24.16 5.47,7.79 11.89,16.68 19.25,26.68 21.74,32.23 43.96,59.47 66.68,81.7 22.71,22.23 46.13,41.69 70.25,58.36 24.13,16.67 49.38,31.4 75.77,44.18 26.37,12.79 54.19,25.3 83.45,37.52zm-781.46 -395.16c14.45,0 32.09,-0.83 52.9,-2.5 20.83,-1.67 43.07,-3.61 66.76,-5.83 23.68,-2.22 47.41,-4.72 71.17,-7.51 23.78,-2.78 45.91,-5.83 66.44,-9.17 -3.52,-13.34 -7.78,-34.46 -12.8,-63.35 -5.03,-28.9 -10.07,-59.47 -15.14,-91.71 -5.05,-32.24 -9.73,-63.36 -14.03,-93.37 -4.3,-30.01 -7.94,-53.36 -10.95,-70.03 -4.87,10 -15.18,28.34 -30.94,55.02 -15.75,26.68 -33.69,56.7 -53.81,90.04 -20.11,33.35 -40.67,67.8 -61.68,103.38 -21.01,35.56 -40.33,67.24 -57.92,95.03zm1733.2 -301.78c13.52,-1.12 32.54,1.66 57.65,8.33 25.1,6.66 49.89,15.28 74.39,25.84 24.24,10.56 45.08,21.4 62.26,32.52 17.21,11.12 24.73,20.01 22.59,26.67 -5.71,15.57 -13.09,31.13 -22.15,46.69 -9.05,15.56 -18.44,40.58 -28.16,75.03 -6.24,18.9 -12.25,47.24 -18.03,85.04 -4.1,26.67 -9.72,56.13 -16.88,88.36 -7.16,32.23 -17.43,64.75 -30.5,97.54 -13.37,32.8 -30.21,64.75 -50.27,95.87 -20.33,31.13 -45.34,58.36 -75.32,81.7 -14.1,12.23 -32.28,23.9 -55.09,35.01 -22.55,11.12 -46.92,21.4 -72.83,30.85 -25.89,9.45 -52.33,16.95 -79.3,22.51 -26.98,5.55 -51.02,8.34 -72.14,8.34 -37.79,0 -61.44,-8.89 -70.94,-26.68 -8.57,-16.68 -18.56,-33.07 -29.98,-49.19 -11.43,-16.11 -22.28,-30.57 -32.54,-43.35 -10.27,-12.78 -18.56,-23.9 -24.9,-33.35 -6.34,-9.44 -8.7,-15.83 -7.07,-19.18 1.62,-3.33 7.55,-3.88 17.76,-1.66 10.21,2.23 23.37,5.29 39.45,9.18 16.06,3.89 34.37,7.77 54.9,11.66 20.51,3.89 41.81,6.4 63.87,7.51 34.29,1.11 65.12,-4.16 92.46,-15.84 27.35,-11.68 51.23,-27.79 71.61,-48.35 20.37,-20.57 37.85,-43.91 52.42,-70.03 14.56,-26.12 26.65,-52.52 36.3,-79.2 5.89,-16.67 11.48,-35.01 16.77,-55.02 5.28,-20.01 9.37,-39.46 12.27,-58.36 4.93,-32.23 5.6,-61.96 2,-89.21 -3.61,-27.22 -15.86,-45.28 -36.72,-54.18 -12.49,-5.55 -27.77,-9.16 -45.85,-10.83 -18.09,-1.67 -37.7,-2.5 -58.8,-2.5 -22.24,0 -45.44,0.83 -69.59,2.5 -24.16,1.67 -47.83,3.88 -71.05,6.67 -23.21,2.78 -45.03,5.55 -65.46,8.33 -20.44,2.79 -38.05,5.28 -52.84,7.51l-106.95 23.34 -25.56 166.73c-3.57,23.34 -7.93,50.01 -13.08,80.04 -5.15,30 -10.82,59.73 -17.01,89.19 -6.18,29.47 -11.89,55.86 -17.14,79.2 -5.24,23.34 -10.12,38.91 -14.65,46.69 -10.84,20.01 -23.76,37.24 -38.77,51.68 -15,14.45 -30.44,26.4 -46.34,35.85 -15.9,9.45 -31.41,16.4 -46.55,20.85 -15.12,4.44 -28.81,6.66 -41.03,6.66 -6.67,0 -18.36,-8.9 -35.1,-26.67 -16.71,-17.79 -33.85,-38.36 -51.41,-61.69 -17.53,-23.35 -32.97,-45.86 -46.33,-67.54 -13.35,-21.67 -19.44,-36.4 -18.24,-44.18 0.68,-4.45 3.89,-7.22 9.61,-8.34 5.73,-1.1 12.99,-1.38 21.8,-0.83 8.81,0.56 18.69,1.39 29.64,2.51 10.94,1.1 21.96,1.66 33.08,1.66 24.45,0 44.04,-4.44 58.74,-13.34 12.31,-7.78 23.14,-22.23 32.48,-43.35 9.36,-21.13 18.12,-47.52 26.3,-79.2 8.2,-31.68 15.92,-67.52 23.15,-107.54 7.24,-40.01 14.91,-82.8 23.01,-128.38 -2.22,0 -4.81,0.56 -7.76,1.67 -2.94,1.11 -5.53,1.66 -7.75,1.66 -15.56,0 -30.62,-3.33 -45.16,-10.01 -14.54,-6.67 -26.68,-14.44 -36.44,-23.34 -9.75,-8.89 -16.68,-18.05 -20.79,-27.51 -4.12,-9.44 -4.08,-16.95 0.11,-22.51 2.57,-2.22 16.88,-4.99 42.96,-8.33 26.08,-3.33 56.04,-6.67 89.9,-10l9.7 -63.36 17.12 -111.71 9.83 -75.03c2.21,-28.91 4.16,-52.52 5.86,-70.86 1.7,-18.34 1.3,-37.52 -1.19,-57.53 -26.42,5.56 -54.74,10.85 -84.96,15.85 -30.22,4.99 -57.56,7.5 -82.01,7.5 -26.69,0 -44.99,-3.89 -54.91,-11.67 -22.83,-17.78 -34.86,-33.63 -36.07,-47.52 -1.2,-13.9 -0.53,-21.95 2.05,-24.18 1.45,-2.23 10.25,-5.28 26.41,-9.17 16.16,-3.89 36.48,-7.78 60.98,-11.67 24.49,-3.89 51.48,-7.78 80.99,-11.67 29.49,-3.89 58.77,-6.39 87.84,-7.5 -5.75,-27.8 -10.63,-50.3 -14.66,-67.53 -4.04,-17.23 -3.96,-28.62 0.23,-34.19 4.19,-5.55 18.16,-6.11 41.95,-1.66 23.76,4.45 49.34,11.67 76.7,21.68 27.09,10 52.02,21.39 74.51,34.18 22.51,12.77 34.65,24.17 36.46,34.17 27.19,-3.33 58.9,-7.22 95.7,-11.66 36.81,-4.45 73.06,-8.9 108.49,-13.35 35.68,-4.44 68.56,-8.61 98.61,-12.51 29.77,-3.89 51.64,-6.94 65.32,-9.16 11.29,-1.11 23.49,-2.78 36.62,-5 13.13,-2.23 27.07,-4.44 41.87,-6.67 7.42,-12.23 14.28,-22.5 21.12,-30.85 6.83,-8.33 13.02,-12.5 18.58,-12.5 16.86,-1.11 36.81,2.78 59.92,11.67 23.08,8.9 43.85,20.28 62,34.18 18.43,13.89 32.89,28.35 43.39,43.35 10.48,15 12.73,27.51 6.74,37.52 -8.44,18.89 -26.84,28.34 -55.47,28.34 -17.75,8.9 -36.84,19.17 -56.68,30.85 -19.85,11.66 -40.91,27.51 -62.58,47.52 -41.54,38.89 -75.6,65.3 -102.17,79.19 -26.59,13.89 -40.31,16.4 -41.17,7.51 0.68,-4.45 3.3,-12.51 7.87,-24.19 4.57,-11.66 10.31,-25.56 17.22,-41.67 6.92,-16.12 14,-33.35 21.25,-51.7 7.27,-18.33 13.85,-35.84 19.73,-52.52 -41.3,1.12 -78.47,2.51 -111.52,4.17 -33.03,1.67 -65.66,4.17 -97.84,7.51 -32.2,3.34 -65.63,7.5 -100.3,12.5 -34.66,5.01 -74.19,10.85 -118.56,17.51 -7.77,14.44 -15.88,31.12 -24.33,50.02 -8.46,18.89 -14.9,42.79 -19.33,71.69 -1.37,8.9 -3.17,18.9 -5.43,30.02 -2.25,11.11 -4.59,24.45 -6.97,40.01 -3.4,22.23 -6.97,49.18 -10.73,80.87 -3.73,31.68 -7.98,70.3 -12.74,115.88 22.57,-2.22 48.84,-5 78.53,-8.35 29.97,-3.33 59.75,-7.22 89.31,-11.67 29.32,-4.44 57.14,-8.33 83.22,-11.66 26.07,-3.34 45.95,-6.12 59.36,-8.34 29.58,-4.45 61.23,-9.72 94.96,-15.84 33.45,-6.12 64.94,-10.28 94.17,-12.5z"/>
     <path class="fil4" d="M6557.59 5586.41c-1.54,10 -3.26,19.45 -5.18,28.34 -1.91,8.9 -3.55,17.79 -4.92,26.68 -4.43,28.91 -6.93,52.52 -7.52,70.87 -0.6,18.33 -0.88,34.72 -0.88,49.18 0.02,14.44 0.26,29.18 0.75,44.19 0.48,14.99 -0.43,33.62 -2.73,55.85 -2.89,18.9 -9.08,37.51 -18.56,55.85 -9.48,18.34 -20.6,34.74 -33.38,49.18 -12.78,14.46 -26.46,25.85 -41.08,34.19 -14.62,8.33 -28.03,12.51 -40.26,12.51 -11.13,0 -22.39,-4.46 -33.81,-13.34 -11.42,-8.89 -20.98,-20.85 -28.69,-35.86 -7.7,-14.99 -12.44,-33.06 -14.2,-54.18 -1.77,-21.12 0.89,-43.91 7.97,-68.36 8.54,-26.68 19.99,-68.91 34.43,-126.72 14.41,-57.8 28.09,-121.71 41.03,-191.74 4.69,-23.34 9.74,-50.86 15.17,-82.53 5.39,-31.68 10.82,-65.3 16.27,-100.88l17.12 -111.71 16.6 -108.37c-60.58,68.92 -121.07,133.67 -181.48,194.24 -60.42,60.58 -118.48,116.71 -174.2,168.4 -55.71,51.69 -107.29,98.1 -154.71,139.23 -47.44,41.12 -88.46,76.69 -123.06,106.7 -12.48,8.9 -28.01,21.4 -46.59,37.52 -18.6,16.11 -38.27,33.89 -59.03,53.35 -20.76,19.46 -41.63,39.46 -62.56,60.03 -20.93,20.56 -39.43,39.74 -55.49,57.52 -48.71,56.68 -86.39,85.03 -113.07,85.03 -26.67,0 -46.96,-27.23 -60.84,-81.7 -7.38,-24.45 -12.93,-44.46 -16.65,-60.02 -3.74,-15.56 -4.66,-29.46 -2.79,-41.68 1.87,-12.23 7.88,-24.18 18,-35.84 10.11,-11.68 25.99,-26.42 47.62,-44.19 6.4,-5.56 12.68,-15.57 18.76,-30.02 6.11,-14.46 12.46,-32.23 19.02,-53.35 3.16,-13.34 5.92,-27.79 8.31,-43.35 2.39,-15.57 5.02,-32.79 7.92,-51.69 6.64,-43.35 13.62,-92.53 20.94,-147.56 7.32,-55.02 14.34,-111.72 21.05,-170.06 6.73,-58.36 12.94,-116.99 18.62,-175.91 5.7,-58.9 10.87,-114.49 15.56,-166.73 2.11,-21.12 2.07,-40.85 -0.12,-59.18 -2.2,-18.35 -4.91,-35.02 -8.17,-50.03 -3.26,-15 -5.94,-28.34 -8.04,-40.01 -2.1,-11.68 -2.01,-21.41 0.3,-29.19 2.13,-6.67 9.98,-10.83 23.58,-12.49 13.61,-1.68 29.96,-1.4 49.08,0.83 19.1,2.22 39.58,6.39 61.43,12.5 21.85,6.11 41.63,13.06 59.33,20.84 17.71,7.79 32.18,16.67 43.43,26.68 11.26,10 16.11,20.01 14.58,30.01 -2.31,7.78 -6.74,15.01 -13.33,21.68 -6.59,6.67 -13.37,14.72 -20.37,24.17 -7,9.45 -14,20.57 -20.95,33.34 -6.96,12.79 -11.98,29.19 -15.05,49.19 -1.78,18.9 -4.15,38.08 -7.14,57.53 -2.97,19.45 -6.09,39.73 -9.32,60.85 -3.07,20.01 -6.17,40.3 -9.32,60.86 -3.15,20.57 -5.8,41.41 -7.92,62.53l-1.79 11.66c-5.45,35.58 -10.44,70.03 -15,103.38 -4.56,33.35 -9.3,66.14 -14.25,98.37 -6.47,42.25 -13.02,81.43 -19.67,117.55 -6.65,36.13 -14.58,69.75 -23.78,100.88 -3.41,22.23 -3.54,37.51 -0.36,45.85 3.17,8.33 8.64,12.5 16.41,12.5 8.89,0 19.63,-4.72 32.19,-14.17 12.56,-9.45 23.81,-17.51 33.71,-24.18 22.58,-16.67 61.52,-47.8 116.85,-93.37 55.34,-45.57 118.32,-101.15 188.94,-166.73 70.63,-65.59 143.99,-138.11 220.09,-217.58 76.09,-79.48 146.25,-162.02 210.49,-247.6 -1.12,-28.91 -4.02,-51.69 -8.7,-68.36 -4.66,-16.68 -8.96,-30.3 -12.9,-40.86 -3.96,-10.55 -6.79,-19.17 -8.55,-25.83 -1.75,-6.67 -0.3,-14.46 4.41,-23.35 10.68,-18.9 28.24,-28.34 52.69,-28.34 15.57,0 30.62,3.33 45.16,10 14.53,6.66 26.13,14.45 34.77,23.34 37.89,21.12 62.62,48.35 74.18,81.7 11.57,33.34 14.88,66.14 9.94,98.37 -4.26,27.79 -12.44,52.24 -24.57,73.36l-5.65 15.02c-9.47,25.56 -14.98,43.34 -16.5,53.35l-5.38 35.01c-3.74,24.45 -9.05,57.24 -15.89,98.37 -6.86,41.13 -13.61,83.36 -20.25,126.71 -6.4,34.47 -12.87,73.09 -19.42,115.89 -6.56,42.79 -14.1,84.75 -22.63,125.88z"/>
    </g>
   </g>
  </g>
 </g>
</svg>
