<?xml version="1.0" encoding="UTF-8"?>
<!DOCTYPE svg PUBLIC "-//W3C//DTD SVG 1.1//EN" "http://www.w3.org/Graphics/SVG/1.1/DTD/svg11.dtd">
<!-- Creator: CorelDRAW 2021 (64-Bit) -->
<svg xmlns="http://www.w3.org/2000/svg" xml:space="preserve" width="210mm" height="297mm" version="1.1" style="shape-rendering:geometricPrecision; text-rendering:geometricPrecision; image-rendering:optimizeQuality; fill-rule:evenodd; clip-rule:evenodd"
viewBox="0 0 21000 29700"
 xmlns:xlink="http://www.w3.org/1999/xlink"
 xmlns:xodm="http://www.corel.com/coreldraw/odm/2003">
 <defs>
  <style type="text/css">
   <![CDATA[
    .fil4 {fill:#2B2A29}
    .fil3 {fill:#2B2A29}
    .fil2 {fill:#E95623}
    .fil1 {fill:#A3C626}
    .fil0 {fill:#2B2A29;fill-rule:nonzero}
    .fil5 {fill:#A3C626;fill-rule:nonzero}
   ]]>
  </style>
 </defs>
 <g id="Layer_x0020_1">
  <metadata id="CorelCorpID_0Corel-Layer"/>
  <g id="_2842192705920">
   <path class="fil0" d="M8579.7 6224.2c0,8.04 -1.16,17.41 -3.53,28.11l-21.17 100.53 -68.78 0 19.51 -91.61c1.71,-6.89 2.59,-12.4 2.59,-16.64 0,-7.22 -3.64,-10.81 -10.97,-10.81 -3.58,0 -7.66,1.82 -12.35,5.4 -4.68,3.64 -8.81,8.39 -12.34,14.23 -3.58,5.89 -6.01,11.85 -7.27,18.02l-16.65 81.41 -69.12 0 19.57 -91.61c1.82,-7.33 2.7,-12.84 2.7,-16.64 0,-7.22 -3.64,-10.81 -10.97,-10.81 -5.79,0 -12.13,3.86 -18.9,11.58 -6.78,7.66 -11.19,16.37 -13.23,26.07l-17.09 81.41 -69.11 0 23.42 -109.79c3.75,-17.87 7,-36.38 9.65,-55.56l67.68 0c-0.78,12.95 -1.82,22.43 -3.25,28.49l0.66 0c8.82,-10.03 18.96,-17.91 30.42,-23.75 11.47,-5.79 22.27,-8.71 32.41,-8.71 24.64,0 37.75,12.18 39.36,36.48 8.43,-11.08 18.68,-19.95 30.8,-26.56 12.08,-6.61 24.25,-9.92 36.38,-9.92 26.4,0 39.58,13.55 39.58,40.68zm212 0.6c0,10.86 -3.75,19.84 -11.3,27.01 -7.55,7.16 -18.3,12.18 -32.3,15.1 11.41,0.6 20.5,3.85 27.23,9.65 6.72,5.84 10.08,13.39 10.08,22.59 0,10.36 -4.24,20.23 -12.73,29.66 -8.54,9.42 -19.9,16.42 -34.17,21.05 -14.28,4.63 -30.7,6.94 -49.33,6.94 -26.07,0 -45.09,-5.28 -57.1,-15.87 -12.02,-10.64 -17.97,-27.17 -17.97,-49.61 0,-22.81 4.41,-42.49 13.23,-59.08 8.82,-16.59 21.61,-28.82 38.42,-36.76 16.81,-7.99 36.92,-11.96 60.4,-11.96 14.23,0 26.08,1.71 35.66,5.07 9.59,3.42 16.98,8.21 22.16,14.44 5.13,6.23 7.72,13.5 7.72,21.77zm-63.77 9.32c0,-2.98 -1.05,-5.63 -3.14,-7.89 -2.1,-2.25 -5.13,-3.36 -9.15,-3.36 -14,0 -24.36,10.25 -31.15,30.76 15.38,-0.44 26.46,-2.21 33.24,-5.3 6.84,-3.13 10.2,-7.88 10.2,-14.21zm-6.29 62.88c0,-3.8 -1.59,-6.94 -4.68,-9.47 -3.14,-2.54 -7.44,-3.81 -12.95,-3.81 -5.13,0 -9.98,0.27 -14.44,0.88 -4.47,0.61 -8.38,1.05 -11.69,1.38 -0.88,2.81 -1.32,6.06 -1.32,9.7 0,6.39 1.71,11.19 5.12,14.33 3.37,3.2 8.11,4.8 14.12,4.8 7.33,0 13.45,-1.71 18.41,-5.18 4.96,-3.47 7.43,-7.67 7.43,-12.63zm283.71 -40.73c0,19.29 -4.3,36.88 -12.95,52.86 -8.71,15.98 -20.78,27.89 -36.27,35.82 -15.49,7.89 -33.68,11.85 -54.56,11.85 -25.52,0 -45.26,-6.39 -59.2,-19.18 -13.95,-12.84 -20.89,-30.8 -20.89,-53.9 0,-13.56 2.42,-26.84 7.38,-39.85 4.96,-13.01 11.86,-23.97 20.68,-32.85 8.82,-8.87 19.67,-15.65 32.57,-20.39 12.84,-4.74 27.56,-7.11 44.15,-7.11 25.18,0 44.64,6.34 58.42,18.96 13.78,12.62 20.67,30.59 20.67,53.79zm-68.45 0c0,-7.33 -1.54,-12.9 -4.69,-16.75 -3.09,-3.81 -7.33,-5.74 -12.57,-5.74 -5.95,0 -11.07,2.32 -15.54,6.89 -4.41,4.58 -7.88,10.86 -10.36,18.91 -2.53,8.05 -3.8,16.32 -3.8,24.8 0,7.33 1.59,12.84 4.74,16.59 3.19,3.7 7.44,5.57 12.84,5.57 8.82,0 15.93,-4.74 21.33,-14.22 5.35,-9.48 8.05,-21.5 8.05,-36.05zm267.27 96.57l-68.78 0 11.96 -56.56 -4.68 0c-5.18,0 -9.92,1.66 -14.17,5.02 -4.24,3.31 -8.66,9.15 -13.28,17.42l-19.24 34.12 -75.73 0 27.12 -42c11.19,-17.37 26.57,-27.73 46.02,-31.2 -10.2,-1.81 -18.57,-6.39 -25.02,-13.61 -6.46,-7.28 -9.71,-15.6 -9.71,-24.97 0,-35.72 27.34,-53.57 82.02,-53.57l98.55 0 -35.06 165.35zm-52.97 -126.33c-16.91,0 -25.34,6.12 -25.34,18.41 0,4.85 1.76,8.65 5.34,11.46 3.53,2.81 8.82,4.19 15.82,4.19l7.88 0 7.28 -34.06 -10.98 0zm592.75 -2.31c0,8.04 -1.15,17.41 -3.52,28.11l-21.17 100.53 -68.79 0 19.52 -91.61c1.71,-6.89 2.59,-12.4 2.59,-16.64 0,-7.22 -3.64,-10.81 -10.97,-10.81 -3.59,0 -7.66,1.82 -12.35,5.4 -4.69,3.64 -8.82,8.39 -12.34,14.23 -3.59,5.89 -6.01,11.85 -7.28,18.02l-16.65 81.41 -69.11 0 19.56 -91.61c1.82,-7.33 2.7,-12.84 2.7,-16.64 0,-7.22 -3.63,-10.81 -10.96,-10.81 -5.79,0 -12.13,3.86 -18.91,11.58 -6.78,7.66 -11.19,16.37 -13.23,26.07l-17.08 81.41 -69.12 0 23.43 -109.79c3.74,-17.87 6.99,-36.38 9.64,-55.56l67.68 0c-0.77,12.95 -1.81,22.43 -3.25,28.49l0.66 0c8.82,-10.03 18.96,-17.91 30.43,-23.75 11.46,-5.79 22.26,-8.71 32.41,-8.71 24.63,0 37.75,12.18 39.35,36.48 8.43,-11.08 18.68,-19.95 30.81,-26.56 12.07,-6.61 24.25,-9.92 36.38,-9.92 26.4,0 39.57,13.55 39.57,40.68zm204.46 8.7c0,18.91 -8.71,33.02 -26.13,42.28 -17.36,9.26 -44.15,14.38 -80.3,15.48l0 1.27c0,6.28 2.64,11.14 7.87,14.67 5.3,3.47 12.35,5.23 21.17,5.23 7.88,0 17.31,-1.38 28.33,-4.08 11.08,-2.7 20.12,-5.9 27.23,-9.54l-9.53 45.04c-8.39,3.97 -18.58,7.22 -30.6,9.75 -12.01,2.54 -23.97,3.8 -35.94,3.8 -23.14,0 -41.33,-6.11 -54.56,-18.4 -13.23,-12.24 -19.84,-29.05 -19.84,-50.33 0,-19.34 4.52,-37.2 13.61,-53.57 9.1,-16.37 21.66,-28.94 37.65,-37.75 15.98,-8.82 34.39,-13.23 55.28,-13.23 20.89,0 37.09,4.24 48.56,12.73 11.46,8.49 17.2,20.72 17.2,36.65zm-63.5 -0.39c0,-2.31 -0.71,-4.46 -2.15,-6.39 -1.49,-1.92 -4.02,-2.92 -7.66,-2.92 -7.22,0 -13.45,2.76 -18.69,8.21 -5.23,5.46 -8.76,13.23 -10.58,23.21 12.19,0 21.72,-1.82 28.66,-5.46 6.94,-3.69 10.42,-9.2 10.42,-16.65zm281.66 10.86c0,22.27 -4.68,42.17 -14.05,59.64 -9.37,17.47 -22.49,30.81 -39.35,40.02 -16.82,9.2 -36.38,13.77 -58.7,13.77 -1.49,0 -5.13,-0.16 -10.97,-0.49 -5.79,-0.33 -8.99,-0.61 -9.53,-0.94l-16.15 73.53 -69.12 0 38.97 -183.26c2.42,-11.03 4.68,-22.27 6.61,-33.79 1.93,-11.52 3.03,-19.62 3.36,-24.36l66.03 0c-0.49,9.04 -1.71,18.84 -3.52,29.43l0.66 0c15.15,-22.27 34.22,-33.4 57.15,-33.4 14.61,0 26.4,5.51 35.28,16.59 8.87,11.08 13.33,25.52 13.33,43.26zm-68.51 10.64c0,-13.5 -5.12,-20.23 -15.48,-20.23 -7,0 -13.51,4.36 -19.52,13.01 -6.06,8.71 -10.96,21.33 -14.88,37.92l-6.28 27.45c3.86,0.66 7.33,0.99 10.31,0.99 12.84,0 23.7,-5.78 32.57,-17.31 8.88,-11.51 13.28,-25.46 13.28,-41.83zm295.56 -10.64c0,22.27 -4.68,42.17 -14.05,59.64 -9.37,17.47 -22.49,30.81 -39.36,40.02 -16.81,9.2 -36.37,13.77 -58.69,13.77 -1.49,0 -5.13,-0.16 -10.98,-0.49 -5.78,-0.33 -8.98,-0.61 -9.53,-0.94l-16.15 73.53 -69.11 0 38.97 -183.26c2.42,-11.03 4.68,-22.27 6.61,-33.79 1.92,-11.52 3.03,-19.62 3.36,-24.36l66.03 0c-0.5,9.04 -1.71,18.84 -3.53,29.43l0.66 0c15.16,-22.27 34.23,-33.4 57.16,-33.4 14.6,0 26.4,5.51 35.28,16.59 8.87,11.08 13.33,25.52 13.33,43.26zm-68.51 10.64c0,-13.5 -5.12,-20.23 -15.48,-20.23 -7.01,0 -13.51,4.36 -19.52,13.01 -6.06,8.71 -10.96,21.33 -14.88,37.92l-6.28 27.45c3.86,0.66 7.33,0.99 10.3,0.99 12.85,0 23.71,-5.78 32.58,-17.31 8.87,-11.51 13.28,-25.46 13.28,-41.83zm272.47 98.83l-69.78 0c0.77,-12.51 1.6,-21.56 2.59,-27.18l-0.66 0c-9.71,10.42 -19.9,18.25 -30.65,23.37 -10.8,5.18 -21.49,7.77 -32.13,7.77 -26.95,0 -40.4,-13.55 -40.4,-40.67 0,-8.05 1.21,-17.42 3.58,-28.11l21.28 -100.53 68.78 0 -19.18 89.62c-1.82,7.27 -2.76,13.39 -2.76,18.24 0,2.15 0.78,4.02 2.32,5.73 1.6,1.65 4.03,2.48 7.38,2.48 7.83,0 14.94,-4.02 21.28,-12.02 6.39,-8.04 10.75,-17.91 13.12,-29.65l15.48 -74.4 68.79 0 -22.1 103.83c-2.04,9.7 -3.75,20.4 -5.01,32.14 -1.33,11.74 -1.93,21.49 -1.93,29.38zm353.32 -128.64c0,8.04 -1.16,17.41 -3.53,28.11l-21.17 100.53 -68.78 0 19.51 -91.61c1.71,-6.89 2.59,-12.4 2.59,-16.64 0,-7.22 -3.64,-10.81 -10.97,-10.81 -3.58,0 -7.66,1.82 -12.35,5.4 -4.68,3.64 -8.81,8.39 -12.34,14.23 -3.58,5.89 -6.01,11.85 -7.27,18.02l-16.65 81.41 -69.12 0 19.57 -91.61c1.82,-7.33 2.7,-12.84 2.7,-16.64 0,-7.22 -3.64,-10.81 -10.97,-10.81 -5.79,0 -12.13,3.86 -18.9,11.58 -6.78,7.66 -11.19,16.37 -13.23,26.07l-17.09 81.41 -69.11 0 23.42 -109.79c3.75,-17.87 7,-36.38 9.65,-55.56l67.68 0c-0.78,12.95 -1.82,22.43 -3.25,28.49l0.66 0c8.82,-10.03 18.96,-17.91 30.42,-23.75 11.47,-5.79 22.27,-8.71 32.41,-8.71 24.64,0 37.75,12.18 39.36,36.48 8.43,-11.08 18.68,-19.95 30.8,-26.56 12.08,-6.61 24.25,-9.92 36.38,-9.92 26.4,0 39.58,13.55 39.58,40.68zm216.19 32.07c0,19.29 -4.3,36.88 -12.95,52.86 -8.71,15.98 -20.78,27.89 -36.27,35.82 -15.49,7.89 -33.68,11.85 -54.56,11.85 -25.52,0 -45.26,-6.39 -59.2,-19.18 -13.95,-12.84 -20.89,-30.8 -20.89,-53.9 0,-13.56 2.42,-26.84 7.38,-39.85 4.96,-13.01 11.85,-23.97 20.67,-32.85 8.83,-8.87 19.68,-15.65 32.58,-20.39 12.84,-4.74 27.55,-7.11 44.15,-7.11 25.18,0 44.64,6.34 58.42,18.96 13.78,12.62 20.67,30.59 20.67,53.79zm-68.46 0c0,-7.33 -1.54,-12.9 -4.68,-16.75 -3.09,-3.81 -7.33,-5.74 -12.57,-5.74 -5.95,0 -11.08,2.32 -15.54,6.89 -4.41,4.58 -7.88,10.86 -10.36,18.91 -2.53,8.05 -3.8,16.32 -3.8,24.8 0,7.33 1.59,12.84 4.74,16.59 3.19,3.7 7.43,5.57 12.83,5.57 8.83,0 15.94,-4.74 21.34,-14.22 5.35,-9.48 8.04,-21.5 8.04,-36.05zm295.39 -12.9c0,22.27 -4.68,42.17 -14.05,59.64 -9.37,17.47 -22.49,30.81 -39.36,40.02 -16.81,9.2 -36.37,13.77 -58.69,13.77 -1.49,0 -5.13,-0.16 -10.97,-0.49 -5.79,-0.33 -8.99,-0.61 -9.54,-0.94l-16.15 73.53 -69.11 0 38.97 -183.26c2.42,-11.03 4.68,-22.27 6.61,-33.79 1.92,-11.52 3.03,-19.62 3.36,-24.36l66.03 0c-0.5,9.04 -1.71,18.84 -3.53,29.43l0.66 0c15.16,-22.27 34.23,-33.4 57.16,-33.4 14.61,0 26.4,5.51 35.28,16.59 8.87,11.08 13.33,25.52 13.33,43.26zm-68.51 10.64c0,-13.5 -5.12,-20.23 -15.48,-20.23 -7.01,0 -13.51,4.36 -19.52,13.01 -6.06,8.71 -10.96,21.33 -14.88,37.92l-6.28 27.45c3.86,0.66 7.33,0.99 10.3,0.99 12.85,0 23.71,-5.78 32.58,-17.31 8.87,-11.51 13.28,-25.46 13.28,-41.83zm272.47 98.83l-69.78 0c0.77,-12.51 1.6,-21.56 2.59,-27.18l-0.66 0c-9.71,10.42 -19.9,18.25 -30.65,23.37 -10.8,5.18 -21.49,7.77 -32.13,7.77 -26.95,0 -40.4,-13.55 -40.4,-40.67 0,-8.05 1.21,-17.42 3.58,-28.11l21.28 -100.53 68.78 0 -19.18 89.62c-1.82,7.27 -2.76,13.39 -2.76,18.24 0,2.15 0.78,4.02 2.32,5.73 1.6,1.65 4.03,2.48 7.38,2.48 7.83,0 14.94,-4.02 21.28,-12.02 6.39,-8.04 10.75,-17.91 13.12,-29.65l15.49 -74.4 68.78 0 -22.1 103.83c-2.04,9.7 -3.75,20.4 -5.01,32.14 -1.33,11.74 -1.93,21.49 -1.93,29.38zm220.43 0l-68.79 0 11.97 -56.56 -4.69 0c-5.18,0 -9.92,1.66 -14.16,5.02 -4.25,3.31 -8.66,9.15 -13.29,17.42l-19.24 34.12 -75.72 0 27.11 -42c11.19,-17.37 26.57,-27.73 46.02,-31.2 -10.19,-1.81 -18.57,-6.39 -25.02,-13.61 -6.45,-7.28 -9.7,-15.6 -9.7,-24.97 0,-35.72 27.34,-53.57 82.02,-53.57l98.55 0 -35.06 165.35zm-52.97 -126.33c-16.92,0 -25.35,6.12 -25.35,18.41 0,4.85 1.76,8.65 5.34,11.46 3.53,2.81 8.83,4.19 15.82,4.19l7.89 0 7.27 -34.06 -10.97 0zm472.76 -1.71c0,10.86 -3.75,19.84 -11.3,27.01 -7.55,7.16 -18.3,12.18 -32.3,15.1 11.41,0.6 20.5,3.85 27.23,9.65 6.72,5.84 10.08,13.39 10.08,22.59 0,10.36 -4.24,20.23 -12.73,29.66 -8.54,9.42 -19.9,16.42 -34.17,21.05 -14.28,4.63 -30.7,6.94 -49.33,6.94 -26.07,0 -45.09,-5.28 -57.1,-15.87 -12.02,-10.64 -17.97,-27.17 -17.97,-49.61 0,-22.81 4.41,-42.49 13.23,-59.08 8.82,-16.59 21.6,-28.82 38.42,-36.76 16.81,-7.99 36.92,-11.96 60.4,-11.96 14.22,0 26.08,1.71 35.66,5.07 9.59,3.42 16.98,8.21 22.16,14.44 5.13,6.23 7.72,13.5 7.72,21.77zm-63.77 9.32c0,-2.98 -1.05,-5.63 -3.14,-7.89 -2.1,-2.25 -5.13,-3.36 -9.15,-3.36 -14,0 -24.36,10.25 -31.15,30.76 15.38,-0.44 26.46,-2.21 33.24,-5.3 6.84,-3.13 10.2,-7.88 10.2,-14.21zm-6.29 62.88c0,-3.8 -1.59,-6.94 -4.68,-9.47 -3.14,-2.54 -7.44,-3.81 -12.95,-3.81 -5.13,0 -9.98,0.27 -14.44,0.88 -4.47,0.61 -8.38,1.05 -11.69,1.38 -0.88,2.81 -1.32,6.06 -1.32,9.7 0,6.39 1.71,11.19 5.12,14.33 3.37,3.2 8.11,4.8 14.12,4.8 7.33,0 13.44,-1.71 18.41,-5.18 4.96,-3.47 7.43,-7.67 7.43,-12.63zm244.52 -26.51l31.47 82.35 -75.12 0 -24.2 -81.69 -0.66 0 -17.41 81.69 -68.79 0 35.33 -165.35 68.78 0 -16.58 77.65 0.76 0 54.79 -77.65 79.43 0 -67.8 83zm76.69 160.06c-14.44,0 -27.11,-2.2 -38.09,-6.61l11.3 -50.6c5.57,4.63 12.95,6.95 22.11,6.95 12.89,0 22.48,-5.18 28.71,-15.49l8.27 -13.56 -33.73 -163.75 72.14 0 6.62 79.75c0.66,7.44 0.99,15.38 0.99,23.76l-0.33 6.28 0.66 0c1.6,-4.74 3.59,-10.03 5.9,-15.88 2.31,-5.89 15.54,-37.2 39.79,-93.91l70.72 0 -95.9 170.03c-11.42,20.18 -21.72,35 -30.87,44.54 -9.15,9.53 -19.24,16.64 -30.26,21.38 -11.02,4.74 -23.7,7.11 -38.03,7.11zm345.55 -189.82c-7.11,-4.63 -16.59,-6.95 -28.44,-6.95 -12.46,0 -23.04,4.47 -31.69,13.4 -8.72,8.98 -13.01,20.01 -13.01,33.18 0,17.47 9.15,26.18 27.44,26.18 5.18,0 10.92,-0.77 17.26,-2.31 6.34,-1.6 12.07,-3.75 17.14,-6.56l-9.54 46.9c-7.77,4.08 -16.2,7.11 -25.4,9.15 -9.21,2.04 -18.09,3.08 -26.57,3.08 -21.44,0 -38.25,-6.06 -50.49,-18.13 -12.23,-12.13 -18.3,-28.77 -18.3,-49.94 0,-19.29 4.63,-37.03 13.94,-53.24 9.32,-16.25 22.27,-28.99 38.87,-38.2 16.53,-9.2 35.22,-13.77 55.99,-13.77 17.7,0 32.3,2.92 43.93,8.71l-11.13 48.5zm206.21 112.11l-68.13 0c0,-3.47 0.83,-13.29 2.43,-29.43l-0.66 0c-16.37,22.26 -34.78,33.39 -55.23,33.39 -16.26,0 -28.82,-5.62 -37.7,-16.91 -8.87,-11.3 -13.29,-27.18 -13.29,-47.63 0,-14.6 2.81,-29.05 8.44,-43.21 5.68,-14.22 13.51,-26.07 23.43,-35.55 9.97,-9.42 22.2,-16.81 36.65,-22.1 14.49,-5.23 31.19,-7.88 50.15,-7.88 25.96,0 53.19,3.36 81.69,10.03l-21.44 101.19c-1.77,7.61 -3.2,17.31 -4.47,29.05 -1.21,11.74 -1.87,21.38 -1.87,29.05zm-47.95 -124.68c-2.59,-0.66 -5.84,-0.99 -9.82,-0.99 -8.65,0 -16.36,2.48 -23.25,7.44 -6.89,4.96 -12.46,12.4 -16.76,22.32 -4.24,9.87 -6.34,19.79 -6.34,29.71 0,6.51 1.38,11.41 4.19,14.82 2.81,3.37 6.23,5.08 10.31,5.08 7.77,0 14.71,-4.41 20.83,-13.17 6.18,-8.77 11.02,-21.39 14.55,-37.76l6.29 -27.45z"/>
   <g>
    <path class="fil1" d="M6571.51 4338.79c69.1,76.17 128.92,160.85 177.92,252.28l-1624.46 0 0 1747.58c-124.16,-55.21 -237.78,-129.89 -336.93,-220.23l0 -1758.18c-45.62,-63.65 -76.43,-132.36 -101.16,-209.33 -27.49,-85.57 -49.74,-307.03 -15.1,-351.4 114.92,79.69 240.86,143.08 358.9,216.59 0.77,-12.76 -21.4,-61.38 -29.04,-82.73 -78.09,-218.41 -34.09,-485.1 84.05,-678.07 34.68,29.36 117.52,167.39 153.71,214.38 30.28,39.33 60.35,106.96 87.2,123.15 4,-5.41 8.67,-158.72 15.63,-192.63 35.7,-173.88 123.12,-297.05 231.58,-421.5 45.42,-52.13 62.12,-78.7 86.19,-5.68l31.87 128.98c6.74,32 18.18,175.48 22.81,184.36 9.82,-4.71 24.78,-27.69 26.19,-28.85 58.83,-97.08 193.09,-213.28 265.83,-279.93 30.08,-27.55 89.61,-79.8 142.57,-138.29 76.18,-84.17 121.36,-171.33 133.38,-284.05 4.36,-40.66 3.68,-67.43 6.45,-108.04 266.7,241.13 332.05,506.24 260.72,751.94 14.03,-1.21 14.78,-3.82 26.23,-9.63 14.84,-7.52 15.3,-6.84 28.61,-13.02 56.67,-26.29 98.58,-36.13 169.05,-70.81 34.27,-16.86 78.78,-33.42 109.42,-58.17l49.64 -37.69c15.62,-13.02 26.64,-29.34 50.06,-30.61 42.57,54.63 20.32,212.6 -0.56,286.78 -35.2,125.09 -144.92,206.87 -157.23,230.14 36.97,-2.45 85.74,-11.31 130.86,-13.91 63.5,-3.67 334.19,-10.93 374.9,-61.73 1.76,2.89 13.62,6.27 7.41,39.36 -2.43,12.96 -8.48,33.48 -12.45,46.57 -77.49,204.6 -190.85,262.51 -362.55,318.29 87.47,7.3 148.65,42.69 221.95,68.44 84.1,29.56 160.47,58.89 297.83,60.31 -181.07,243.54 -513.14,194.65 -684.9,161.83 10.56,44.64 268.67,190.7 278.64,213.91 -13.21,19.13 -73.41,40.85 -104.66,48.81 -141.16,35.97 -265.45,5.33 -400.56,-39.22zm-1432.51 -11.89l205.08 0c314.37,-754.3 835.45,-864.21 1060.42,-993.71 -608.59,72.8 -1054.94,540.93 -1262.13,986.39l-3.37 7.32zm729.52 0l134.86 0c113.81,-357.9 311.95,-501.43 455.59,-611.12 -217.92,57.1 -470.06,364.67 -590.45,611.12zm174.02 0l106.26 0c167.56,-222.39 318.03,-307.23 555.76,-411.41 -197.33,1.21 -520.75,251.8 -662.02,411.41z"/>
    <polygon class="fil1" points="6445.44,5898.06 5811.67,5898.06 6445.44,5269.99 "/>
    <polygon class="fil2" points="5798.96,5878.37 5798.96,5250.3 6432.72,5250.3 "/>
    <path class="fil3" d="M5361.02 4805.32l1473.27 0c38.01,120.14 58.56,248.04 58.56,380.75 0,246.93 -71.03,477.24 -193.69,671.73l0 -739.94 -1025.6 0 0 1025.6 778.99 0c-220.59,189.32 -507.34,303.74 -820.83,303.74 -92.94,0 -183.48,-10.15 -270.7,-29.23l0 -1612.65z"/>
   </g>
   <g>
    <path class="fil4" d="M12833.48 4528.36c16.99,-32.45 50.13,-50.06 86.92,-54.58 22.92,-2.82 46.47,-1.89 69.37,0.78 25.3,2.93 50.33,8.28 74.84,15.14 24.16,6.75 48.01,14.9 70.98,24.99 23.72,10.44 46.32,23.72 65.74,40.99 30.51,27.11 48.21,64.37 41.9,105.65 -0.61,3.97 -1.37,7.33 -2.51,11.18 -6.43,21.69 -18.31,40.88 -34.17,56.94 -4.63,4.69 -8.89,10.06 -12.82,15.37 -5.53,7.46 -10.41,15.63 -14.84,23.78 -2.73,5 -4.55,13.8 -5.58,20.04 -1.95,20.1 -4.48,40.14 -7.53,60.11 -3.14,20.45 -6.27,40.89 -9.4,61.34 -3.14,20.46 -6.26,40.91 -9.4,61.35 -2.99,19.5 -5.46,39.07 -7.43,58.71 -0.16,1.52 -0.32,2.82 -0.56,4.33l-1.8 11.75c-5.25,34.25 -10.23,68.53 -14.93,102.85 -4.58,33.53 -9.41,67.04 -14.54,100.51 -5.07,33.02 -10.44,66.01 -16.27,98.91 12.28,-10.09 24.47,-20.19 36.58,-30.17 64.01,-52.72 125.96,-108.36 186.7,-164.78 75,-69.63 147.57,-141.96 218.34,-215.87 66.13,-69.06 128.64,-141.53 186.96,-217.31 -0.83,-7.26 -2.02,-14.35 -3.74,-20.52 -3.22,-11.47 -6.63,-23.25 -10.8,-34.42 -4.18,-11.17 -8.14,-22.58 -11.17,-34.11 -7.57,-28.78 -2.34,-58.08 11.4,-84.08 0.4,-0.73 0.73,-1.36 1.14,-2.08 26.45,-46.77 72.87,-71.17 126.16,-71.17 27.95,0 55.1,6.06 80.5,17.72 18.24,8.37 35.45,18.87 50.5,32.07 47.58,28.77 85.06,69.1 103.61,122.58 15.64,45.11 20.92,92.11 13.68,139.36 -5.17,33.74 -15.18,66.43 -31.32,96.5l-3.53 9.37c-4.03,10.74 -10.19,26.24 -12.29,37.24l-5.37 35.06c-5.13,33.44 -10.64,66.84 -16.2,100.23 -7.03,42.16 -13.76,84.38 -20.23,126.63 -0.15,0.93 -0.28,1.7 -0.44,2.63 -7.05,37.93 -13.3,76.04 -19.14,114.18 -6.62,43.23 -14.32,86.3 -23.16,129.13 -1.65,10.47 -3.55,20.91 -5.78,31.28 -1.56,7.28 -2.93,14.6 -4.05,21.95 -3.07,20.03 -6.01,41.17 -6.66,61.44 -0.5,15.59 -0.85,31.22 -0.84,46.83 0,13.94 0.26,27.89 0.72,41.83 0.73,22.47 -0.85,45.34 -3.16,67.68 -0.16,1.42 -0.3,2.64 -0.52,4.07 -4.41,28.76 -13.76,56.29 -27.13,82.12 -12.38,23.97 -27.44,46.41 -45.31,66.63 -18.09,20.45 -38.93,38.21 -62.69,51.76 -25.22,14.39 -52.89,23.63 -82.16,23.63 -31.72,0 -60.82,-11.83 -85.63,-31.15 -22.07,-17.19 -39.25,-39.19 -52.01,-64.02 -13.72,-26.74 -20.79,-56.11 -23.28,-85.95 -2.8,-33.54 1.72,-66.99 11.05,-99.22 0.23,-0.79 0.44,-1.47 0.69,-2.27 12.77,-39.88 23.07,-81.83 33.2,-122.46 15.54,-62.3 28.41,-125.44 40.33,-188.53 5.14,-27.23 10.35,-54.42 15.01,-81.74 3.06,-17.87 6.01,-35.76 8.89,-53.67 -58.03,58.18 -117,115.43 -177.24,171.32 -51.95,48.19 -104.51,95.78 -158.05,142.21 -41.34,35.86 -82.7,71.7 -124.05,107.56 -2.11,1.84 -3.98,3.31 -6.25,4.93 -14.06,10.02 -27.68,21.58 -40.71,32.89 -19.38,16.81 -38.39,34.07 -57.11,51.61 -20.77,19.47 -41.31,39.19 -61.62,59.14 -17.96,17.64 -35.6,35.7 -51.79,53.59 -42.77,49.8 -105.12,114.16 -176.91,114.16 -83.05,0 -123.78,-73.04 -142.15,-143.68 -3.52,-11.65 -6.96,-23.38 -10.21,-35.15 -13.86,14.49 -28.79,28 -44.69,40.5 -21.63,18.41 -46.38,33.26 -71.84,45.73 -26.53,13 -53.82,24.46 -81.57,34.58 -29.91,10.91 -60.57,19.61 -91.75,26.04 -29.38,6.04 -59.62,10.13 -89.65,10.13 -57.91,0 -116.95,-16.81 -145.81,-71.83 -7.26,-13.85 -15.32,-27.27 -24.37,-40.03 -9.56,-13.48 -19.42,-26.79 -29.77,-39.68 -7.3,-9.1 -14.49,-18.36 -21.32,-27.85 -2.47,6.12 -5.22,11.94 -8.31,17.24 -13.91,25.71 -32.03,50.28 -54.03,71.46 -18.85,18.15 -39.51,34.44 -62.04,47.82 -20.8,12.36 -42.91,22.56 -66.16,29.39 -21.09,6.18 -42.95,10.12 -64.99,10.12 -28.66,0 -52.01,-12.81 -72.44,-30.1 -2.58,2.06 -5.29,4 -8.13,5.83 -15.84,10.19 -33.73,16.25 -52.44,17.36 -22.48,2.4 -45.04,4.03 -67.62,5.13 -25.22,1.22 -50.48,1.78 -75.75,1.78 -30.9,0 -61.79,-0.9 -92.64,-2.66 -29.92,-1.71 -59.87,-4.6 -89.48,-9.32 -25.42,-4.05 -51,-9.38 -75.55,-17.17 -28.42,-9.03 -55.43,-22.78 -75.02,-45.88 -0.97,-1.16 -1.78,-2.16 -2.69,-3.37 -10.34,-13.54 -20.89,-26.91 -31.6,-40.17 -18.09,-22.37 -33.02,-48.05 -45.98,-73.67 -16.43,-32.49 -30.41,-66.67 -43.25,-100.71 -10.72,-28.42 -20.03,-57.7 -28.45,-87.19 -1.9,0.08 -3.8,0.15 -5.7,0.23 -27.22,1.16 -54.44,2.54 -81.65,4.12 -27.22,1.6 -54.41,3.73 -81.54,6.45 -13.74,1.39 -27.46,3.02 -41.14,5.01 -49.38,60.23 -104.03,116.14 -162.01,168.11 -80.03,71.75 -173.13,130.99 -267.83,181.34 -20.77,11.05 -43,19.79 -66.37,23.22 -26.54,3.91 -53.05,2.11 -77.1,-10.9 -26.64,-14.43 -43.09,-38.91 -47.66,-66.14 -7.99,2.77 -15.99,5.48 -23.99,8.13 -53.43,17.72 -107.88,32.34 -162.86,44.35 -56.71,12.38 -114.61,19.58 -172.7,19.58 -36.41,0 -72.89,-3.33 -108.45,-11.26 -38.03,-8.49 -73.57,-24.04 -104.04,-46.7 -24.48,-17.24 -46.04,-38.54 -65.06,-62.16 5.29,36.66 -11.3,72.19 -42.84,92.49 -15.85,10.19 -33.74,16.25 -52.45,17.36 -22.47,2.4 -45.03,4.03 -67.61,5.13 -25.22,1.22 -50.49,1.78 -75.75,1.78 -30.9,0 -61.8,-0.9 -92.64,-2.66 -29.92,-1.71 -59.87,-4.6 -89.48,-9.32 -25.42,-4.05 -51,-9.38 -75.55,-17.17 -28.42,-9.03 -55.43,-22.78 -75.02,-45.88 -0.98,-1.16 -1.78,-2.16 -2.7,-3.37 -10.34,-13.54 -20.89,-26.91 -31.59,-40.17 -18.1,-22.37 -33.02,-48.05 -45.98,-73.67 -16.44,-32.49 -30.42,-66.67 -43.25,-100.71 -10.72,-28.42 -20.03,-57.7 -28.46,-87.19 -1.89,0.08 -3.79,0.15 -5.69,0.23 -27.23,1.16 -54.44,2.54 -81.66,4.12 -27.21,1.6 -54.41,3.73 -81.54,6.45 -13.74,1.39 -27.45,3.02 -41.13,5.01 -49.39,60.23 -104.04,116.14 -162.01,168.11 -80.03,71.75 -173.13,130.99 -267.84,181.34 -20.76,11.05 -42.99,19.79 -66.36,23.22 -26.54,3.91 -53.06,2.11 -77.11,-10.9 -43.57,-23.61 -59.88,-74.09 -41.53,-119.5 10.63,-26.31 31.26,-45.86 53.89,-62.03 60.15,-43 118.97,-90.92 169.74,-144.97 -14.13,-3.02 -28.03,-7.04 -41.66,-11.82 -17.77,-6.25 -34.97,-14.2 -50.89,-24.32 -16.47,-10.47 -31.6,-23.03 -43.43,-38.67 -17.18,-22.71 -23.75,-50.08 -19.47,-75.98 -80.8,91.93 -170.32,175.67 -267.23,250.57 -111.63,86.26 -233.93,157.01 -362.98,213.77 -0.85,0.38 -1.59,0.69 -2.46,1.04 -21.37,8.6 -43.79,15.23 -66.71,18.04 -26.79,3.29 -53.75,1.53 -78.29,-10.67 -43.41,-21.59 -63.85,-69.31 -49.67,-115.64 9.97,-32.61 34.64,-55.21 63.1,-72.04 56.04,-33.14 110.66,-68.74 163.18,-107.23 49.49,-36.26 97.5,-74.69 143.13,-115.72 39.47,-35.47 77.28,-73.21 111.61,-113.7 14.12,-16.66 27.96,-34.03 40.86,-52.06 -26.91,-30.72 -53.86,-61.4 -80.83,-92.06 -46.06,-52.39 -89.91,-106.72 -131.07,-163.05 -39.03,-53.42 -74.3,-110.07 -102.63,-169.92 -27.36,-57.81 -43.84,-121.42 -34.01,-185.57 4.14,-26.98 11.56,-53.28 22.09,-78.47 10.29,-24.61 23.35,-48 39.62,-69.17 14.77,-19.25 31.7,-36.91 51.18,-51.44 25.34,-18.92 54.86,-30.1 86.69,-30.1 49.28,0 89.01,27.45 113.69,67.82 12.61,19.48 18.44,45.82 22.9,69.41 4.76,25.21 11.59,50.61 18.5,75.31 10.52,37.53 22.89,74.73 35.87,111.49 16.2,45.83 36.11,90.58 57.91,134 7.3,14.54 16.98,29.23 25.91,42.81 13.39,20.38 27.49,40.3 42.05,59.86 7.4,9.96 14.84,19.89 22.3,29.79 18.06,-25.62 35.05,-52 50.86,-79.1 30.19,-51.77 58.58,-105.03 82.88,-159.83 18.01,-40.58 35.38,-82.85 48.16,-125.4 4.53,-15.07 11.82,-37.14 14.38,-53.34 -0.19,-3.99 -0.54,-8 -0.91,-11.95 -0.78,-8.03 -1.76,-16.04 -2.89,-24.03 -1.72,-12.14 -2.83,-24.36 -3.25,-36.59 -0.61,-17.56 1.33,-35.11 6.67,-51.88 0.94,-2.95 1.88,-5.44 3.13,-8.28 13.92,-31.72 40.92,-52.8 73.24,-63.54 22.81,-7.57 47.11,-10.16 71.06,-10.16 28.64,0 57.24,4.71 84.87,12.06 32.54,8.67 63.09,22.89 91.36,41.1 46.39,28.49 73.15,75.83 64.74,130.83 -3.18,20.73 -10.28,40.46 -20.95,58.53 -3.21,5.45 -6.43,10.93 -9.55,16.45 -53.76,123.89 -114.53,244.71 -182.63,361.35 -54.97,94.13 -116.24,184.36 -183.71,269.87 9.67,-5.32 19.67,-10.05 29.55,-14.34 47.11,-20.46 108.72,-23.75 159.53,-23.75 16.02,0 32.07,-0.34 48.08,-0.81 12.24,-0.36 25.01,-1.5 37.75,-3 45.13,-78.04 88.44,-157.52 127.55,-238.63 33.06,-68.58 65.21,-138.59 92.56,-209.67 16.97,-44.11 34.35,-90.66 46.29,-136.42 3.39,-13.04 8.4,-30.32 11.03,-45.02 -3.09,-9.22 -5.77,-18.57 -8.1,-28.01 -2.9,-11.77 -5.06,-23.72 -6.44,-35.77 -2.22,-19.48 -0.73,-39.06 5.25,-57.77 0.94,-2.93 1.87,-5.4 3.11,-8.22 17.14,-38.95 53.68,-57.61 92.99,-66.53 28.38,-6.44 57.78,-8.8 86.83,-8.8 28.36,0 56.63,2.89 84.48,8.21 32.04,6.13 62.67,17.28 90.59,34.24 0.49,0.31 0.91,0.57 1.41,0.88 27.64,17.56 53.91,39.39 67.28,70.13 13.09,30.13 14.29,63.75 0.41,93.82 -7.21,15.64 -17.22,29.55 -29.63,41.28 -3.04,7.2 -6.39,14.22 -9.55,20.87 -9.37,19.76 -19.11,39.37 -28.94,58.9 -11.5,22.83 -22.56,45.89 -33.32,69.06 -7.05,15.17 -14.11,30.33 -21.19,45.48 4.42,22.58 9.21,45.09 14.14,67.55 8.42,38.3 17.45,76.46 26.94,114.51 9.41,37.7 19.78,75.18 31.28,112.3 2.9,9.38 5.88,18.78 8.96,28.15 19.31,-2.54 38.6,-5.25 57.86,-8.15 20.42,-3.07 40.82,-6.31 61.18,-9.81 13.13,-2.26 26.66,-5.02 38.58,-8.78 28.12,-9.55 58.62,-12.65 88.73,-6.91 22.44,4.28 44.09,11.69 64.38,22.2 5.95,3.08 11.79,6.38 17.49,9.88 0,-103 13.12,-208.47 30.54,-309.31 9.57,-55.41 27.56,-108.56 52.85,-158.76 25.57,-50.76 58.65,-96.7 98.89,-136.81 40.84,-40.71 87.81,-73.97 139.11,-100.17 56.34,-28.78 117.43,-45.95 179.95,-54.61 77.53,-10.75 155.74,-15.92 234,-15.92 79.91,0 160.16,6.37 238.56,22.09 69.17,13.86 139.02,37.42 196.97,78.56 1.29,0.92 2.37,1.73 3.62,2.72 44.03,34.99 80.44,83.15 71.29,142.83 -5.1,33.25 -21.73,62.08 -45.95,85.09 -15.51,14.73 -32.24,28.15 -49.71,40.47 -14.14,10 -28.09,20.27 -41.84,30.82 -3.9,2.99 -7.74,6.59 -10.29,10.87 -6.63,13.59 -13.32,27.15 -20.06,40.68 -7.41,14.83 -15.14,29.52 -23.26,43.98 -8.07,14.37 -16.98,28.5 -27.26,41.41 -20.42,25.65 -47.8,43.41 -81.73,43.41 -46.1,0 -81.23,-33.54 -89.21,-77.86 -2.67,-14.88 -2.42,-30.28 -1.06,-45.34 0.19,-28.01 4.87,-55.88 13.3,-82.59 5.02,-15.95 8.99,-32.26 11.52,-48.79 0.86,-5.62 1.12,-11.34 0.23,-16.93 -2.94,-2.69 -7.39,-5.65 -9.92,-7.28 -1.33,-0.84 -2.43,-1.59 -3.71,-2.51 -8.18,-5.88 -18.86,-9.04 -28.65,-10.82 -20.97,-3.83 -42.43,-5.36 -63.73,-5.36 -40.36,0 -80.71,3.21 -120.43,10.42 -28.51,5.18 -59.07,10.54 -86.95,18.38 -2.08,0.59 -3.85,1.02 -5.96,1.45 -17.18,3.5 -34.57,10.85 -50.15,18.73 -20.06,10.13 -38.1,24.17 -54.22,39.76 -20.9,20.22 -38.43,44.24 -53.28,69.17 -17.69,29.7 -29.05,63.27 -36.55,96.89 -9.36,42.01 -17.79,84.39 -24.3,126.94 -7.5,48.92 -12.93,98.97 -13.51,148.5 -0.48,42.06 1.87,84.07 6.98,125.81 4.8,39.32 13.13,83.52 30.09,119.59 10.35,22.03 24.51,46.44 42.83,62.88 17.6,15.78 37.36,27.39 60.02,34.16 26.7,7.99 54.21,11.61 82.05,11.61 33.87,0 67.51,-4.02 100.54,-11.42 34.77,-7.78 69.25,-17.31 102.87,-29.17 29.12,-10.28 58.12,-21.44 86.25,-34.22 18.95,-8.64 37.92,-17.27 56.83,-26.01 -5.76,-5.4 -11.1,-11.25 -15.91,-17.59 -26.97,-35.66 -27.79,-82.84 -1.5,-117.73 19.55,-27.65 52.23,-45.73 83.76,-59.43 47.11,-20.46 108.71,-23.75 159.52,-23.75 16.03,0 32.07,-0.34 48.09,-0.81 12.24,-0.36 25,-1.5 37.74,-3 45.13,-78.04 88.45,-157.52 127.55,-238.63 33.06,-68.58 65.22,-138.59 92.57,-209.67 16.97,-44.11 34.34,-90.66 46.28,-136.42 3.4,-13.04 8.4,-30.32 11.03,-45.02 -3.08,-9.22 -5.77,-18.57 -8.09,-28.01 -2.91,-11.77 -5.07,-23.72 -6.44,-35.77 -2.23,-19.48 -0.74,-39.06 5.24,-57.77 0.94,-2.93 1.88,-5.4 3.12,-8.22 17.13,-38.95 53.67,-57.61 92.99,-66.53 28.38,-6.44 57.77,-8.8 86.83,-8.8 28.35,0 56.63,2.89 84.47,8.21 32.04,6.13 62.68,17.28 90.59,34.24 0.5,0.31 0.92,0.57 1.41,0.88 27.65,17.56 53.92,39.39 67.29,70.13 13.09,30.13 14.28,63.75 0.41,93.82 -7.22,15.64 -17.22,29.55 -29.64,41.28 -3.03,7.2 -6.39,14.22 -9.54,20.87 -9.38,19.76 -19.11,39.37 -28.95,58.9 -11.49,22.83 -22.56,45.89 -33.32,69.06 -7.05,15.17 -14.1,30.33 -21.18,45.48 4.41,22.58 9.2,45.09 14.13,67.55 8.42,38.3 17.45,76.46 26.95,114.51 9.4,37.7 19.78,75.18 31.27,112.3 2.91,9.38 5.88,18.78 8.97,28.15 19.3,-2.54 38.59,-5.25 57.86,-8.15 20.42,-3.07 40.81,-6.31 61.17,-9.81 13.13,-2.26 26.66,-5.02 38.58,-8.78 28.12,-9.55 58.62,-12.65 88.73,-6.91 22.44,4.28 44.09,11.69 64.38,22.2 18.36,9.51 35.61,21.01 51.27,34.51 11.02,9.51 21.8,19.35 32.05,29.7 19.4,19.61 32.41,43.86 37.31,71.02 6.24,34.61 -3.03,68.67 -25.29,95.83 -20.18,24.62 -48.37,38.99 -78.47,47.63 -31.54,9.04 -66.67,10.24 -99.29,9.08 -0.81,-0.03 -1.5,-0.06 -2.31,-0.12 -15.2,-0.96 -30.45,-1.52 -45.69,-1.52 -15.41,0 -30.81,0 -46.22,0 -4.91,0 -9.81,0.01 -14.71,0.03 14.5,20.5 30.53,40.32 48.39,57.8 18.55,18.15 38.46,34.99 59.83,49.75 17.56,12.15 35.89,23.13 54.88,32.88 -2.27,-11.45 -2.83,-23.25 -0.98,-35.37 6.2,-40.42 36.88,-70.38 76.69,-78.08 14.22,-2.76 28.8,-3.12 43.22,-2.2 11.02,0.69 22.03,1.67 33.01,2.79 8.28,0.82 16.6,1.24 24.91,1.24 2.81,0 7.95,-0.12 12.13,-0.74 1.21,-2.27 2.32,-4.73 3.1,-6.46 9.34,-21.13 16.22,-44.53 22,-66.87 8.72,-33.75 15.8,-68.03 22.01,-102.34 2.74,-15.2 5.48,-30.39 8.21,-45.59 -20.64,-9.6 -40.03,-21.77 -56.89,-37.15 -17.4,-15.86 -31.89,-34.53 -41.33,-56.21 -15.48,-35.54 -13.74,-75.14 10,-106.66 3.77,-5.03 7.46,-8.98 12.24,-13.08 24.05,-20.75 57.19,-24.22 87.44,-28.08 9.37,-1.21 18.74,-2.34 28.13,-3.44l17.11 -111.7 9.5 -72.47c0.5,-6.58 1,-13.16 1.53,-19.73 -27.03,3.94 -54.4,6.4 -81.66,6.4 -37.51,0 -76.54,-5.78 -106.96,-29.53 -34.42,-26.87 -64.39,-61.35 -68.33,-106.78 -2.81,-32.31 0.76,-63.48 23.27,-87.86 18.21,-20.54 42.76,-28.18 69.36,-34.58 22.37,-5.38 45.23,-9.45 67.95,-13.06 27.41,-4.35 54.9,-8.26 82.42,-11.9 -2.58,-27.25 1.72,-54.14 19.35,-77.56 30.86,-40.99 79.37,-42.17 124.74,-33.69 30.91,5.79 61.31,14.74 90.82,25.58 30.18,11.09 59.65,24.37 87.62,40.25 9.95,5.66 19.68,11.87 28.73,18.78 17.66,-2.15 35.32,-4.3 52.98,-6.43 36.35,-4.4 72.68,-8.86 109.01,-13.4 33,-4.13 66,-8.27 98.98,-12.56 21.06,-2.74 42.29,-5.46 63.25,-8.86 1.81,-0.29 3.36,-0.49 5.18,-0.67 10.42,-1.03 20.81,-2.53 31.13,-4.27 2.34,-0.4 4.68,-0.8 7.02,-1.19 1.83,-2.4 3.7,-4.77 5.61,-7.11 20.35,-24.83 47.43,-42.09 80.1,-43.25 32.19,-1.73 64.17,5.8 94.06,17.31 25.86,9.95 50.48,22.81 73.16,38.69zm1.51 261.75c-7.99,2.25 -16.27,3.89 -24.75,4.93 -12.69,6.65 -25.22,13.63 -37.56,20.89 -17.4,10.23 -33.67,23.21 -48.41,36.94 -35.64,33.23 -77.99,70.17 -121.32,92.82 -16.99,8.88 -35.34,17.13 -54.3,20.58 -53.46,9.74 -104.19,-23.75 -109.58,-79.27 -0.7,-7.32 -0.52,-13.65 0.6,-20.92 2.2,-14.29 7.46,-28.71 12.72,-42.14 3.61,-9.22 7.35,-18.39 11.18,-27.52 -25.63,1.54 -51.23,3.62 -76.76,6.26 -32.67,3.39 -65.26,7.5 -97.78,12.2 -25.25,3.65 -50.49,7.35 -75.73,11.1 -1.24,2.73 -2.48,5.46 -3.71,8.18 -6.81,15.22 -10.62,34.34 -13.13,50.72 -1.76,11.47 -3.88,22.89 -6.19,34.24 -2.44,12.03 -4.44,24.21 -6.3,36.34 -4.01,26.13 -7.32,52.41 -10.43,78.66 -0.48,4.09 -0.96,8.17 -1.43,12.26 20.67,-2.53 41.32,-5.32 61.92,-8.43 28.54,-4.31 57.13,-8.36 85.76,-12.02 19.24,-2.46 38.45,-5.13 57.62,-8.1 31.25,-4.85 62.44,-9.93 93.54,-15.59 34.21,-6.24 68.77,-11 103.44,-13.72 28.54,-2.22 58.68,3.66 86.18,10.96 29.65,7.88 58.67,17.96 86.81,30.16 20.7,8.97 41.19,18.99 60.69,30.49 5.64,-50.17 10.88,-100.39 15.74,-150.64 3.85,-39.78 7.52,-79.58 11.18,-119.38zm-3393.72 709.81c-7.75,3.27 -15.76,6.03 -23.91,8.37 -31.53,9.04 -66.67,10.24 -99.28,9.08 -0.81,-0.03 -1.5,-0.06 -2.31,-0.12 -15.21,-0.96 -30.46,-1.52 -45.69,-1.52 -15.41,0 -30.82,0 -46.22,0 -4.91,0 -9.81,0.01 -14.72,0.03 14.51,20.5 30.53,40.32 48.39,57.8 18.55,18.15 38.47,34.99 59.83,49.75 20.75,14.34 42.55,27.06 65.25,38.06 26.28,12.72 52.95,24.65 78.98,35.55 19.31,7.54 40.28,17.04 57.87,30.1 -0.33,-0.6 -0.65,-1.2 -0.96,-1.8 -34.02,-63.49 -57.18,-132.89 -72.62,-203.1 -1.63,-7.37 -3.16,-14.78 -4.61,-22.2zm2650.6 81.55c16.41,-3.8 34.22,-3.51 51.82,0.31 13.92,3.02 27.82,6.34 41.67,9.69 16.96,4.1 34.09,7.62 51.23,10.87 17.47,3.31 35.18,5.31 52.21,6.17 18.77,0.6 38.73,-1.59 56.8,-9.31 17.17,-7.32 32.39,-17.36 45.52,-30.62 15.47,-15.61 28.46,-33.21 39.16,-52.4 12.03,-21.57 22.56,-44.02 30.91,-67.3 5.69,-15.89 10.43,-32.22 14.74,-48.55 4.37,-16.51 7.98,-33.24 10.56,-50.11 2.92,-19.02 4.3,-38.81 2.66,-58.1 -3,-0.51 -5.98,-0.85 -8.65,-1.11 -17.12,-1.58 -34.37,-2.17 -51.56,-2.17 -21.47,0 -42.94,0.85 -64.35,2.33 -22.53,1.55 -45.02,3.64 -67.43,6.33 -21.57,2.59 -43.13,5.3 -64.66,8.23 -16.48,2.24 -32.96,4.53 -49.4,6.98l-48.78 10.65 -17.02 111.1c-4.21,27.43 -8.75,54.81 -13.43,82.15 -3.73,21.67 -7.72,43.3 -12,64.86zm-3293.2 -301.43c1.25,-0.12 2.51,-0.26 3.75,-0.39 -0.26,-1.54 -0.52,-3.07 -0.77,-4.6 -1,1.67 -1.99,3.34 -2.98,4.99zm2191.41 0c1.25,-0.12 2.51,-0.26 3.76,-0.39 -0.26,-1.54 -0.53,-3.07 -0.78,-4.6 -1,1.67 -1.98,3.34 -2.98,4.99z"/>
    <g>
     <path class="fil5" d="M7887.8 5327.64c-36.21,-41.46 -77,-87.96 -122.32,-139.5 -45.32,-51.54 -87.44,-103.92 -126.34,-157.14 -38.9,-53.23 -70.41,-105.33 -94.54,-156.31 -24.13,-50.98 -33.09,-96.63 -26.91,-136.97 3.09,-20.17 8.61,-39.78 16.57,-58.82 7.96,-19.05 17.55,-35.86 28.74,-50.43 11.19,-14.57 22.8,-26.32 34.82,-35.29 12.02,-8.97 24.19,-13.44 36.52,-13.44 16.81,0 31.02,9.52 42.67,28.56 3.62,5.6 7.45,19.06 11.47,40.34 4.02,21.29 10.74,48.75 20.16,82.36 9.42,33.61 21.93,72.54 37.56,116.8 15.63,44.26 36.3,92.16 62.02,143.7 6.9,13.44 17.17,30.53 30.79,51.26 13.64,20.73 28.58,42.02 44.85,63.86 16.25,21.86 32.32,43.14 48.19,63.87 15.88,20.72 30.07,37.82 42.57,51.26 46.5,-54.9 87.23,-112.33 122.19,-172.26 34.96,-59.95 63.98,-115.98 87.1,-168.08 23.1,-52.09 40.37,-97.2 51.82,-135.29 11.44,-38.09 17.46,-62.75 18.05,-73.95 -0.09,-6.72 -0.57,-14.56 -1.43,-23.53 -0.87,-8.96 -1.97,-18.21 -3.33,-27.73 -1.34,-9.52 -2.16,-18.76 -2.47,-27.73 -0.3,-8.97 0.63,-16.81 2.77,-23.53 3.44,-7.84 11.06,-13.72 22.87,-17.64 11.81,-3.93 26.68,-5.89 44.61,-5.89 19.04,0 40.14,3.09 63.29,9.24 23.14,6.17 45.91,16.53 68.33,31.1 20.52,12.32 29.33,28.01 26.41,47.06 -1.54,10.08 -4.97,19.61 -10.25,28.56 -5.3,8.97 -9.51,16.26 -12.61,21.86 -53.78,124.36 -113.72,243.13 -179.79,356.3 -66.08,113.17 -140.52,218.77 -223.33,316.8 -82.81,98.04 -175.69,186.84 -278.63,266.39 -102.94,79.55 -218.1,147.34 -345.45,203.36 -16.7,6.73 -31.92,10.92 -45.62,12.61 -13.71,1.68 -23.95,0.84 -30.71,-2.53 -6.76,-3.35 -9.03,-8.68 -6.79,-15.96 2.22,-7.29 10.76,-15.41 25.58,-24.37 59.1,-34.74 115.79,-71.99 170.06,-111.77 54.28,-39.77 104.15,-80.1 149.64,-121 45.48,-40.9 85.31,-81.51 119.51,-121.85 34.19,-40.33 61.32,-78.44 81.36,-114.28zm1542.35 447.05c20.07,7.85 34.09,15.12 42.02,21.85 7.94,6.72 12.41,12.32 13.39,16.81 1,4.48 -0.68,8.12 -5.03,10.92 -4.35,2.8 -8.77,4.2 -13.26,4.2 -20.5,2.25 -42.32,3.92 -65.46,5.05 -23.15,1.12 -47.05,1.67 -71.69,1.67 -29.14,0 -58.42,-0.83 -87.85,-2.51 -29.43,-1.69 -56.45,-4.49 -81.07,-8.41 -24.61,-3.93 -45.72,-8.69 -63.35,-14.29 -17.63,-5.6 -29.77,-12.32 -36.41,-20.17 -10.26,-13.44 -21.28,-27.44 -33.05,-42.01 -11.78,-14.57 -23.9,-34.18 -36.37,-58.82 -12.47,-24.65 -25.68,-55.46 -39.61,-92.44 -13.95,-36.97 -28.23,-84.59 -42.82,-142.85 -22.42,0 -46.87,0.55 -73.38,1.68 -26.5,1.12 -54.16,2.51 -82.99,4.19 -28.83,1.69 -57.18,3.92 -85.06,6.72 -27.89,2.81 -53.93,6.45 -78.15,10.93 -48.83,62.75 -106.37,123.81 -172.6,183.2 -66.25,59.38 -149.98,115.96 -251.22,169.74 -14.65,7.84 -27.7,12.61 -39.17,14.28 -11.45,1.69 -19.78,1.13 -24.95,-1.67 -5.17,-2.8 -6.41,-7.57 -3.7,-14.29 2.73,-6.72 11,-15.12 24.89,-25.21 75.46,-53.78 138.4,-108.12 188.83,-163.02 50.43,-54.9 91.57,-105.88 123.44,-152.94 -18.27,2.23 -29.51,4.2 -33.68,5.88 -4.19,1.68 -12.04,3.64 -23.59,5.88 -29.99,5.61 -52.96,9.25 -68.9,10.93 -15.94,1.67 -29.9,1.4 -41.89,-0.84 -11.99,-2.25 -24.35,-5.6 -37.1,-10.09 -12.77,-4.48 -24,-9.8 -33.7,-15.97 -9.7,-6.16 -16.87,-12.32 -21.53,-18.48 -4.67,-6.16 -4.88,-12.04 -0.66,-17.64 7.14,-10.09 23.63,-20.74 49.43,-31.94 25.81,-11.21 67.84,-16.81 126.1,-16.81 14.57,0 31.42,-0.27 50.55,-0.84 19.13,-0.56 48.18,-3.64 87.13,-9.24 60.61,-103.08 111.04,-196.36 151.27,-279.83 40.25,-83.48 72.01,-155.47 95.29,-215.97 23.28,-60.5 39.67,-108.97 49.17,-145.38 9.49,-36.41 14.45,-59.66 14.87,-69.74 -0.26,-5.6 -1.74,-12.34 -4.47,-20.17 -2.71,-7.84 -5.11,-15.97 -7.19,-24.37 -2.07,-8.4 -3.58,-16.81 -4.54,-25.22 -0.96,-8.4 -0.35,-15.96 1.8,-22.68 3.45,-7.84 15.03,-14.01 34.77,-18.49 19.73,-4.48 42.48,-6.72 68.25,-6.72 22.41,0 45.31,2.24 68.72,6.72 23.4,4.48 44.33,12.32 62.77,23.53 19.41,12.33 31.18,23.25 35.33,32.77 4.14,9.53 4.54,17.93 1.17,25.21 -3.35,7.29 -8.21,13.45 -14.6,18.49 -6.37,5.04 -10.45,9.81 -12.27,14.28 -0.51,3.37 -4.5,12.89 -11.93,28.57 -7.45,15.69 -16.8,34.74 -28.09,57.15 -11.27,22.41 -22.77,46.22 -34.47,71.43 -11.72,25.21 -22.55,48.45 -32.53,69.74 4.84,26.89 11.39,59.11 19.64,96.65 8.25,37.53 17.42,76.46 27.48,116.8 10.07,40.34 20.91,79.27 32.53,116.81 11.62,37.53 22.73,69.18 33.35,94.95 18.26,-2.23 38.26,-4.76 59.98,-7.56 21.72,-2.8 43.75,-5.88 66.11,-9.24 22.37,-3.37 43.33,-6.72 62.91,-10.09 19.56,-3.35 36.4,-7.28 50.53,-11.76 16.55,-5.61 32.17,-7 46.87,-4.2 14.69,2.8 28.52,7.56 41.49,14.28 12.99,6.73 24.67,14.57 35.05,23.54 10.4,8.95 19.48,17.36 27.24,25.2 7.76,7.84 12.54,16.81 14.37,26.89 1.81,10.09 -0.72,19.33 -7.62,27.74 -6.89,8.4 -19.11,15.12 -36.7,20.17 -17.57,5.03 -41.96,6.99 -73.17,5.88 -17.75,-1.12 -34.75,-1.69 -50.99,-1.69 -16.25,0 -31.66,0 -46.22,0 -35.86,0 -66.76,0.57 -92.7,1.69 -25.94,1.11 -47.49,2.8 -64.64,5.03 5.78,13.45 11.03,24.93 15.73,34.46 4.7,9.53 9.48,18.49 14.37,26.9 4.88,8.4 10.07,16.51 15.6,24.36 5.51,7.84 11.98,16.81 19.41,26.89 21.91,32.49 44.31,59.95 67.21,82.36 22.89,22.4 46.51,42.01 70.82,58.81 24.32,16.81 49.77,31.66 76.37,44.54 26.58,12.89 54.63,25.5 84.12,37.82zm-787.72 -398.32c14.57,0 32.35,-0.84 53.33,-2.51 20.99,-1.69 43.41,-3.65 67.29,-5.89 23.87,-2.24 47.79,-4.76 71.74,-7.56 23.97,-2.81 46.28,-5.88 66.97,-9.25 -3.54,-13.44 -7.84,-34.73 -12.9,-63.86 -5.06,-29.13 -10.15,-59.95 -15.26,-92.44 -5.09,-32.5 -9.81,-63.87 -14.15,-94.12 -4.33,-30.25 -8,-53.78 -11.03,-70.58 -4.91,10.08 -15.3,28.56 -31.19,55.46 -15.88,26.89 -33.96,57.14 -54.24,90.75 -20.27,33.62 -41,68.35 -62.18,104.21 -21.18,35.85 -40.64,67.78 -58.38,95.79zm1714.88 -448.74c-0.26,-20.17 2.87,-40.61 9.4,-61.34 6.54,-20.73 11.36,-41.18 14.44,-61.34 3.1,-20.17 2.09,-39.22 -3.01,-57.15 -5.09,-17.92 -19.88,-34.74 -44.37,-50.41 -17.16,-12.33 -38,-20.74 -62.53,-25.22 -24.51,-4.48 -50.79,-6.72 -78.8,-6.72 -47.06,0 -92.19,3.92 -135.42,11.77 -43.21,7.84 -74.76,14.56 -94.68,20.17 -21.97,4.47 -45.7,13.16 -71.22,26.05 -25.5,12.88 -50.37,30.81 -74.71,54.33 -24.33,23.54 -46.68,52.39 -67.04,86.56 -20.36,34.18 -35.78,74.51 -46.36,121.57 -10.9,49.3 -19.38,93.56 -25.34,132.49 -9.1,59.38 -13.93,112.89 -14.47,160.23 -0.56,47.61 1.96,93.27 7.59,136.97 6.8,57.98 19.26,106.45 37.44,145.09 18.16,38.66 39.1,68.35 62.73,89.64 27.6,24.66 58.26,42.01 92.02,52.1 33.75,10.09 69.1,15.12 106.08,15.12 39.22,0 78.84,-4.47 118.87,-13.44 40.02,-8.96 77.51,-19.6 112.46,-31.93 34.93,-12.33 65.95,-24.65 93.05,-36.97 27.1,-12.33 47.89,-21.85 62.36,-28.57 7.25,-3.37 13.82,-4.21 19.72,-2.53 5.9,1.68 11.65,2.53 17.25,2.53 16.81,0 24.69,8.95 23.62,26.89 -1.06,17.92 -18.28,36.97 -51.61,57.13 -15.94,8.97 -42.56,21.86 -79.87,38.66 -37.32,16.81 -80.46,33.33 -129.45,49.59 -48.99,16.24 -100.43,30.24 -154.34,42.01 -53.9,11.77 -105.5,17.65 -154.8,17.65 -32.49,0 -62.55,-3.08 -90.19,-9.25 -27.62,-6.15 -51.99,-17.08 -73.12,-32.77 -33.37,-23.53 -63.56,-60.51 -90.56,-110.93 -27.01,-50.41 -48.55,-110.92 -64.63,-181.51 -14.97,-70.58 -23.49,-150.14 -25.62,-238.65 -2.12,-88.52 7.55,-195.52 29.01,-321.01 8.33,-47.06 23.37,-92.15 45.1,-135.29 21.73,-43.14 49.46,-81.52 83.19,-115.13 33.72,-33.61 73.07,-61.9 118.05,-84.88 44.97,-22.97 96.08,-38.37 153.3,-46.22 72.12,-10.07 146.29,-15.12 222.48,-15.12 79.55,0 153.59,6.72 222.07,20.45 68.49,13.73 123.45,35.29 164.88,64.71 29.96,23.81 43.47,45.38 40.56,64.43 -2.07,13.44 -9,25.76 -20.8,36.96 -11.8,11.22 -25.24,22.13 -40.32,32.78 -15.08,10.64 -29.91,21.57 -44.52,32.77 -14.6,11.21 -25.82,24.09 -33.65,38.66 -6.54,13.44 -13.46,27.44 -20.71,42.01 -7.28,14.57 -14.39,28.01 -21.32,40.34 -6.93,12.33 -13.51,22.41 -19.76,30.25 -6.24,7.85 -11.61,11.77 -16.09,11.77 -6.72,0 -8.84,-11.77 -6.36,-35.3zm1264.25 847.06c20.08,7.85 34.1,15.12 42.03,21.85 7.93,6.72 12.4,12.32 13.39,16.81 0.99,4.48 -0.68,8.12 -5.04,10.92 -4.35,2.8 -8.76,4.2 -13.25,4.2 -20.51,2.25 -42.33,3.92 -65.47,5.05 -23.14,1.12 -47.04,1.67 -71.69,1.67 -29.13,0 -58.41,-0.83 -87.84,-2.51 -29.43,-1.69 -56.46,-4.49 -81.07,-8.41 -24.62,-3.93 -45.73,-8.69 -63.36,-14.29 -17.63,-5.6 -29.76,-12.32 -36.41,-20.17 -10.26,-13.44 -21.28,-27.44 -33.05,-42.01 -11.77,-14.57 -23.9,-34.18 -36.37,-58.82 -12.47,-24.65 -25.67,-55.46 -39.61,-92.44 -13.95,-36.97 -28.22,-84.59 -42.82,-142.85 -22.41,0 -46.87,0.55 -73.37,1.68 -26.5,1.12 -54.17,2.51 -83,4.19 -28.83,1.69 -57.18,3.92 -85.05,6.72 -27.89,2.81 -53.93,6.45 -78.16,10.93 -48.83,62.75 -106.36,123.81 -172.59,183.2 -66.25,59.38 -149.99,115.96 -251.22,169.74 -14.65,7.84 -27.71,12.61 -39.17,14.28 -11.46,1.69 -19.78,1.13 -24.95,-1.67 -5.17,-2.8 -6.41,-7.57 -3.71,-14.29 2.73,-6.72 11.01,-15.12 24.89,-25.21 75.46,-53.78 138.41,-108.12 188.83,-163.02 50.44,-54.9 91.58,-105.88 123.44,-152.94 -18.27,2.23 -29.5,4.2 -33.68,5.88 -4.18,1.68 -12.04,3.64 -23.58,5.88 -30,5.61 -52.97,9.25 -68.91,10.93 -15.94,1.67 -29.9,1.4 -41.88,-0.84 -11.99,-2.25 -24.36,-5.6 -37.11,-10.09 -12.76,-4.48 -23.99,-9.8 -33.7,-15.97 -9.7,-6.16 -16.87,-12.32 -21.53,-18.48 -4.66,-6.16 -4.87,-12.04 -0.66,-17.64 7.14,-10.09 23.63,-20.74 49.43,-31.94 25.81,-11.21 67.84,-16.81 126.1,-16.81 14.57,0 31.42,-0.27 50.55,-0.84 19.13,-0.56 48.18,-3.64 87.13,-9.24 60.61,-103.08 111.05,-196.36 151.28,-279.83 40.25,-83.48 72.01,-155.47 95.29,-215.97 23.27,-60.5 39.66,-108.97 49.16,-145.38 9.5,-36.41 14.46,-59.66 14.88,-69.74 -0.27,-5.6 -1.75,-12.34 -4.47,-20.17 -2.72,-7.84 -5.12,-15.97 -7.2,-24.37 -2.06,-8.4 -3.57,-16.81 -4.54,-25.22 -0.95,-8.4 -0.34,-15.96 1.81,-22.68 3.45,-7.84 15.02,-14.01 34.76,-18.49 19.73,-4.48 42.49,-6.72 68.26,-6.72 22.41,0 45.3,2.24 68.71,6.72 23.41,4.48 44.33,12.32 62.78,23.53 19.4,12.33 31.18,23.25 35.32,32.77 4.14,9.53 4.54,17.93 1.18,25.21 -3.36,7.29 -8.22,13.45 -14.6,18.49 -6.38,5.04 -10.46,9.81 -12.27,14.28 -0.52,3.37 -4.5,12.89 -11.94,28.57 -7.44,15.69 -16.8,34.74 -28.08,57.15 -11.28,22.41 -22.77,46.22 -34.48,71.43 -11.71,25.21 -22.55,48.45 -32.53,69.74 4.85,26.89 11.39,59.11 19.64,96.65 8.26,37.53 17.42,76.46 27.48,116.8 10.07,40.34 20.91,79.27 32.53,116.81 11.62,37.53 22.73,69.18 33.35,94.95 18.26,-2.23 38.26,-4.76 59.98,-7.56 21.72,-2.8 43.76,-5.88 66.12,-9.24 22.37,-3.37 43.32,-6.72 62.9,-10.09 19.56,-3.35 36.4,-7.28 50.53,-11.76 16.55,-5.61 32.18,-7 46.87,-4.2 14.69,2.8 28.53,7.56 41.5,14.28 12.98,6.73 24.67,14.57 35.05,23.54 10.39,8.95 19.47,17.36 27.23,25.2 7.77,7.84 12.55,16.81 14.37,26.89 1.82,10.09 -0.72,19.33 -7.61,27.74 -6.89,8.4 -19.12,15.12 -36.71,20.17 -17.56,5.03 -41.96,6.99 -73.17,5.88 -17.74,-1.12 -34.75,-1.69 -50.99,-1.69 -16.25,0 -31.65,0 -46.22,0 -35.86,0 -66.75,0.57 -92.7,1.69 -25.93,1.11 -47.49,2.8 -64.63,5.03 5.77,13.45 11.03,24.93 15.73,34.46 4.7,9.53 9.48,18.49 14.37,26.9 4.87,8.4 10.06,16.51 15.59,24.36 5.52,7.84 11.99,16.81 19.41,26.89 21.91,32.49 44.31,59.95 67.22,82.36 22.88,22.4 46.5,42.01 70.81,58.81 24.32,16.81 49.77,31.66 76.37,44.54 26.59,12.89 54.63,25.5 84.12,37.82zm-787.71 -398.32c14.57,0 32.34,-0.84 53.33,-2.51 20.98,-1.69 43.41,-3.65 67.29,-5.89 23.87,-2.24 47.79,-4.76 71.73,-7.56 23.98,-2.81 46.28,-5.88 66.98,-9.25 -3.55,-13.44 -7.85,-34.73 -12.9,-63.86 -5.07,-29.13 -10.16,-59.95 -15.26,-92.44 -5.1,-32.5 -9.82,-63.87 -14.15,-94.12 -4.33,-30.25 -8,-53.78 -11.03,-70.58 -4.91,10.08 -15.31,28.56 -31.19,55.46 -15.88,26.89 -33.96,57.14 -54.25,90.75 -20.27,33.62 -40.99,68.35 -62.18,104.21 -21.17,35.85 -40.64,67.78 -58.37,95.79zm1747.07 -304.2c13.63,-1.12 32.8,1.68 58.11,8.4 25.3,6.72 50.29,15.41 74.99,26.05 24.43,10.65 45.44,21.57 62.76,32.78 17.35,11.21 24.93,20.16 22.77,26.89 -5.76,15.69 -13.2,31.37 -22.33,47.05 -9.12,15.69 -18.59,40.91 -28.39,75.64 -6.28,19.05 -12.34,47.61 -18.17,85.72 -4.13,26.89 -9.8,56.58 -17.01,89.07 -7.22,32.49 -17.57,65.26 -30.75,98.32 -13.48,33.05 -30.45,65.26 -50.67,96.63 -20.49,31.38 -45.7,58.82 -75.92,82.36 -14.21,12.32 -32.54,24.09 -55.54,35.29 -22.73,11.2 -47.29,21.57 -73.4,31.1 -26.11,9.52 -52.76,17.08 -79.94,22.68 -27.2,5.6 -51.43,8.41 -72.72,8.41 -38.09,0 -61.93,-8.97 -71.51,-26.9 -8.64,-16.8 -18.71,-33.33 -30.22,-49.57 -11.52,-16.25 -22.46,-30.82 -32.8,-43.71 -10.35,-12.87 -18.72,-24.09 -25.1,-33.61 -6.39,-9.52 -8.76,-15.96 -7.12,-19.33 1.63,-3.35 7.6,-3.91 17.9,-1.68 10.3,2.25 23.55,5.33 39.77,9.25 16.19,3.93 34.64,7.84 55.33,11.76 20.68,3.92 42.15,6.45 64.38,7.56 34.57,1.12 65.64,-4.19 93.21,-15.96 27.57,-11.77 51.64,-28.01 72.17,-48.74 20.55,-20.73 38.16,-44.25 52.84,-70.59 14.68,-26.33 26.87,-52.94 36.6,-79.83 5.94,-16.8 11.57,-35.29 16.9,-55.46 5.32,-20.16 9.44,-39.78 12.37,-58.82 4.97,-32.49 5.64,-62.47 2.01,-89.92 -3.64,-27.45 -15.98,-45.66 -37.01,-54.62 -12.58,-5.6 -28,-9.24 -46.22,-10.92 -18.23,-1.69 -37.99,-2.53 -59.27,-2.53 -22.41,0 -45.8,0.84 -70.14,2.53 -24.35,1.68 -48.21,3.91 -71.62,6.72 -23.4,2.8 -45.39,5.6 -65.99,8.4 -20.6,2.8 -38.35,5.32 -53.27,7.57l-107.8 23.52 -25.76 168.07c-3.59,23.53 -8,50.42 -13.19,80.67 -5.19,30.25 -10.91,60.22 -17.15,89.91 -6.23,29.7 -11.97,56.31 -17.26,79.84 -5.3,23.53 -10.21,39.22 -14.78,47.06 -10.92,20.17 -23.95,37.54 -39.07,52.1 -15.13,14.56 -30.69,26.61 -46.71,36.14 -16.03,9.52 -31.67,16.52 -46.93,21 -15.25,4.48 -29.04,6.72 -41.36,6.72 -6.72,0 -18.51,-8.96 -35.37,-26.89 -16.86,-17.92 -34.13,-38.65 -51.82,-62.18 -17.69,-23.53 -33.25,-46.22 -46.71,-68.07 -13.46,-21.85 -19.6,-36.7 -18.39,-44.53 0.68,-4.49 3.92,-7.29 9.69,-8.41 5.78,-1.11 13.1,-1.4 21.98,-0.84 8.88,0.56 18.83,1.4 29.87,2.53 11.03,1.11 22.14,1.67 33.35,1.67 24.65,0 44.39,-4.47 59.2,-13.44 12.41,-7.85 23.33,-22.41 32.75,-43.7 9.43,-21.29 18.27,-47.9 26.51,-79.83 8.26,-31.94 16.05,-68.07 23.33,-108.4 7.3,-40.34 15.03,-83.48 23.2,-129.42 -2.24,0 -4.85,0.57 -7.82,1.69 -2.97,1.12 -5.58,1.68 -7.81,1.68 -15.69,0 -30.87,-3.37 -45.53,-10.09 -14.65,-6.73 -26.89,-14.56 -36.73,-23.53 -9.83,-8.96 -16.81,-18.2 -20.95,-27.73 -4.16,-9.52 -4.11,-17.09 0.1,-22.69 2.59,-2.24 17.02,-5.04 43.31,-8.4 26.29,-3.36 56.49,-6.72 90.62,-10.08l9.78 -63.87 17.26 -112.61 9.91 -75.62c2.22,-29.14 4.19,-52.94 5.9,-71.43 1.71,-18.49 1.31,-37.82 -1.2,-57.99 -26.63,5.6 -55.18,10.93 -85.64,15.97 -30.46,5.04 -58.02,7.57 -82.67,7.57 -26.9,0 -45.35,-3.93 -55.34,-11.77 -23.02,-17.92 -35.15,-33.9 -36.36,-47.9 -1.22,-14.01 -0.54,-22.13 2.05,-24.37 1.47,-2.25 10.34,-5.32 26.63,-9.24 16.29,-3.92 36.77,-7.85 61.47,-11.77 24.69,-3.92 51.89,-7.84 81.63,-11.77 29.74,-3.92 59.25,-6.43 88.55,-7.56 -5.79,-28.01 -10.72,-50.69 -14.78,-68.06 -4.07,-17.37 -3.98,-28.85 0.23,-34.46 4.23,-5.6 18.32,-6.16 42.29,-1.68 23.95,4.49 49.73,11.77 77.31,21.85 27.31,10.08 52.44,21.57 75.12,34.46 22.68,12.88 34.92,24.36 36.75,34.45 27.4,-3.37 59.37,-7.29 96.46,-11.77 37.11,-4.48 73.64,-8.97 109.35,-13.44 35.98,-4.48 69.12,-8.69 99.41,-12.61 30.01,-3.92 52.05,-7.01 65.84,-9.24 11.38,-1.12 23.68,-2.8 36.91,-5.04 13.24,-2.25 27.29,-4.48 42.21,-6.73 7.48,-12.32 14.39,-22.68 21.28,-31.09 6.9,-8.4 13.14,-12.61 18.74,-12.61 16.99,-1.11 37.1,2.81 60.39,11.77 23.28,8.97 44.21,20.45 62.5,34.45 18.58,14.01 33.16,28.58 43.73,43.7 10.57,15.13 12.84,27.73 6.81,37.82 -8.52,19.05 -27.07,28.57 -55.92,28.57 -17.89,8.97 -37.14,19.33 -57.14,31.09 -20.01,11.76 -41.23,27.73 -63.08,47.9 -41.87,39.21 -76.19,65.82 -102.99,79.83 -26.79,14 -40.63,16.53 -41.5,7.56 0.69,-4.47 3.34,-12.6 7.94,-24.37 4.61,-11.76 10.39,-25.77 17.36,-42.01 6.97,-16.25 14.11,-33.62 21.42,-52.1 7.32,-18.49 13.95,-36.13 19.89,-52.95 -41.64,1.13 -79.1,2.53 -112.42,4.21 -33.3,1.68 -66.18,4.19 -98.62,7.56 -32.46,3.37 -66.16,7.56 -101.1,12.61 -34.95,5.04 -74.78,10.93 -119.51,17.65 -7.83,14.55 -16.01,31.37 -24.53,50.41 -8.53,19.05 -15.02,43.14 -19.49,72.27 -1.37,8.97 -3.18,19.05 -5.47,30.26 -2.27,11.2 -4.61,24.64 -7.02,40.33 -3.43,22.41 -7.02,49.58 -10.81,81.51 -3.76,31.94 -8.05,70.87 -12.85,116.81 22.75,-2.24 49.23,-5.04 79.16,-8.41 30.21,-3.35 60.22,-7.28 90.03,-11.76 29.54,-4.48 57.6,-8.4 83.88,-11.76 26.28,-3.37 46.32,-6.17 59.83,-8.41 29.83,-4.48 61.73,-9.8 95.72,-15.96 33.72,-6.17 65.46,-10.37 94.93,-12.61z"/>
     <path class="fil5" d="M13867.04 5421.75c-1.54,10.08 -3.28,19.6 -5.21,28.57 -1.93,8.97 -3.59,17.92 -4.96,26.89 -4.47,29.14 -6.99,52.94 -7.59,71.43 -0.59,18.49 -0.88,35.01 -0.88,49.58 0.01,14.56 0.25,29.41 0.76,44.54 0.48,15.12 -0.44,33.89 -2.76,56.31 -2.92,19.04 -9.15,37.8 -18.71,56.29 -9.55,18.49 -20.77,35.02 -33.64,49.58 -12.88,14.57 -26.67,26.05 -41.41,34.46 -14.73,8.4 -28.26,12.61 -40.59,12.61 -11.21,0 -22.57,-4.49 -34.08,-13.45 -11.51,-8.97 -21.14,-21.02 -28.92,-36.14 -7.76,-15.12 -12.54,-33.33 -14.31,-54.62 -1.78,-21.29 0.9,-44.26 8.03,-68.91 8.61,-26.89 20.16,-69.46 34.71,-127.73 14.52,-58.26 28.31,-122.68 41.36,-193.28 4.73,-23.52 9.82,-51.26 15.28,-83.18 5.44,-31.94 10.92,-65.83 16.41,-101.69l17.25 -112.61 16.74 -109.24c-61.07,69.47 -122.04,134.74 -182.93,195.8 -60.9,61.07 -119.43,117.65 -175.6,169.75 -56.16,52.1 -108.14,98.88 -155.95,140.33 -47.81,41.46 -89.16,77.32 -124.04,107.56 -12.58,8.97 -28.24,21.58 -46.97,37.82 -18.74,16.25 -38.57,34.17 -59.5,53.78 -20.93,19.61 -41.95,39.78 -63.06,60.51 -21.1,20.73 -39.74,40.06 -55.94,57.98 -49.09,57.14 -87.07,85.72 -113.96,85.72 -26.89,0 -47.35,-27.46 -61.34,-82.36 -7.43,-24.65 -13.02,-44.82 -16.78,-60.51 -3.76,-15.67 -4.69,-29.69 -2.81,-42.01 1.89,-12.32 7.94,-24.37 18.15,-36.13 10.19,-11.77 26.19,-26.62 47.99,-44.54 6.46,-5.6 12.78,-15.69 18.92,-30.26 6.15,-14.56 12.55,-32.49 19.17,-53.78 3.18,-13.44 5.97,-28.01 8.37,-43.69 2.41,-15.69 5.06,-33.05 7.98,-52.1 6.7,-43.7 13.74,-93.28 21.12,-148.75 7.37,-55.45 14.45,-112.6 21.22,-171.41 6.77,-58.83 13.03,-117.94 18.76,-177.32 5.75,-59.38 10.96,-115.4 15.68,-168.06 2.14,-21.29 2.1,-41.19 -0.12,-59.67 -2.21,-18.49 -4.95,-35.3 -8.23,-50.42 -3.28,-15.12 -5.99,-28.57 -8.11,-40.34 -2.11,-11.76 -2.02,-21.57 0.31,-29.41 2.15,-6.73 10.07,-10.92 23.77,-12.6 13.71,-1.69 30.2,-1.4 49.46,0.84 19.26,2.23 39.91,6.44 61.93,12.61 22.03,6.15 41.96,13.16 59.81,21 17.84,7.85 32.43,16.8 43.78,26.89 11.35,10.08 16.23,20.17 14.69,30.25 -2.33,7.84 -6.79,15.13 -13.43,21.86 -6.64,6.72 -13.48,14.84 -20.54,24.36 -7.06,9.52 -14.1,20.73 -21.12,33.61 -7.02,12.89 -12.07,29.42 -15.17,49.59 -1.79,19.04 -4.18,38.37 -7.19,57.98 -3,19.6 -6.14,40.05 -9.4,61.34 -3.09,20.17 -6.22,40.62 -9.39,61.35 -3.18,20.73 -5.85,41.74 -7.98,63.03l-1.81 11.75c-5.49,35.86 -10.53,70.59 -15.12,104.21 -4.6,33.61 -9.38,66.67 -14.36,99.16 -6.52,42.58 -13.13,82.07 -19.83,118.49 -6.7,36.41 -14.69,70.31 -23.98,101.67 -3.44,22.42 -3.56,37.82 -0.36,46.22 3.2,8.4 8.71,12.61 16.55,12.61 8.96,0 19.79,-4.76 32.45,-14.29 12.65,-9.52 23.99,-17.65 33.97,-24.37 22.76,-16.8 62.02,-48.18 117.79,-94.11 55.77,-45.94 119.27,-101.96 190.46,-168.07 71.19,-66.11 145.13,-139.22 221.84,-219.33 76.7,-80.11 147.42,-163.31 212.18,-249.58 -1.14,-29.13 -4.05,-52.1 -8.77,-68.9 -4.7,-16.81 -9.03,-30.54 -13.01,-41.19 -3.98,-10.63 -6.85,-19.32 -8.61,-26.04 -1.77,-6.72 -0.3,-14.57 4.44,-23.53 10.77,-19.05 28.47,-28.57 53.12,-28.57 15.69,0 30.86,3.36 45.51,10.08 14.66,6.72 26.35,14.57 35.05,23.53 38.2,21.29 63.13,48.74 74.78,82.35 11.66,33.61 15,66.67 10.02,99.16 -4.29,28.01 -12.55,52.66 -24.78,73.95l-5.68 15.13c-9.55,25.77 -15.1,43.69 -16.64,53.78l-5.42 35.29c-3.77,24.65 -9.12,57.71 -16.02,99.16 -6.91,41.46 -13.72,84.03 -20.41,127.73 -6.45,34.74 -12.97,73.67 -19.58,116.81 -6.61,43.14 -14.21,85.44 -22.81,126.89z"/>
    </g>
   </g>
  </g>
 </g>
</svg>
